<svg xmlns="http://www.w3.org/2000/svg" viewBox="0 0 1200 600"><defs><linearGradient id="bg" x2="1" y2="1"><stop stop-color="#06152c"/><stop offset="1" stop-color="#140b2d"/></linearGradient><marker id="a" markerWidth="10" markerHeight="10" refX="8" refY="3" orient="auto"><path d="M0 0L9 3L0 6Z" fill="#55e8d5"/></marker></defs><rect width="1200" height="600" rx="34" fill="url(#bg)"/><g font-family="Inter,Segoe UI,sans-serif"><rect x="70" y="185" width="245" height="180" rx="22" fill="#0b1d3b" stroke="#55e8d5" stroke-width="3"/><rect x="88" y="203" width="8" height="144" rx="4" fill="#55e8d5"/><text x="192.5" y="233" text-anchor="middle" font-size="23" font-weight="700" fill="#eef8ff">Inbound</text><text x="192.5" y="268" text-anchor="middle" font-size="17" font-weight="700" fill="#acc3dc">Proteger</text><rect x="355" y="185" width="245" height="180" rx="22" fill="#0b1d3b" stroke="#55e8d5" stroke-width="3"/><rect x="373" y="203" width="8" height="144" rx="4" fill="#55e8d5"/><text x="477.5" y="233" text-anchor="middle" font-size="23" font-weight="700" fill="#eef8ff">Backend</text><text x="477.5" y="268" text-anchor="middle" font-size="17" font-weight="700" fill="#acc3dc">Enrutar</text><rect x="640" y="185" width="245" height="180" rx="22" fill="#0b1d3b" stroke="#55e8d5" stroke-width="3"/><rect x="658" y="203" width="8" height="144" rx="4" fill="#55e8d5"/><text x="762.5" y="233" text-anchor="middle" font-size="23" font-weight="700" fill="#eef8ff">Outbound</text><text x="762.5" y="268" text-anchor="middle" font-size="17" font-weight="700" fill="#acc3dc">Responder</text><rect x="925" y="185" width="245" height="180" rx="22" fill="#0b1d3b" stroke="#ff866f" stroke-width="3"/><rect x="943" y="203" width="8" height="144" rx="4" fill="#ff866f"/><text x="1047.5" y="233" text-anchor="middle" font-size="23" font-weight="700" fill="#eef8ff">On-error</text><text x="1047.5" y="268" text-anchor="middle" font-size="17" font-weight="700" fill="#acc3dc">tratar fallos</text><path d="M315 275L350 275" stroke="#55e8d5" stroke-width="4" marker-end="url(#a)"/><path d="M600 275L635 275" stroke="#55e8d5" stroke-width="4" marker-end="url(#a)"/><path d="M885 275L920 275" stroke="#55e8d5" stroke-width="4" marker-end="url(#a)"/><text x="600" y="470" text-anchor="middle" font-size="22" font-weight="700" fill="#ffcf8c">Cualquier fase puede finalizar o desviar el flujo</text></g></svg>