<svg xmlns="http://www.w3.org/2000/svg" viewBox="0 0 1200 620" role="img" aria-label="Anatomy of an OpenAPI Description"><defs><linearGradient id="g" x1="0" x2="1"><stop stop-color="#26d9ff"/><stop offset="1" stop-color="#a579ff"/></linearGradient><filter id="glow"><feGaussianBlur stdDeviation="5" result="b"/><feMerge><feMergeNode in="b"/><feMergeNode in="SourceGraphic"/></feMerge></filter></defs><rect width="1200" height="620" rx="28" fill="#070d22"/><path d="M0 90H1200M0 530H1200" stroke="#243b69" opacity=".35"/><text x="60" y="72" fill="#edf6ff" font-family="Inter,Arial,sans-serif" font-size="30" font-weight="700">Anatomy of an OpenAPI Description</text><rect x="430" y="225" width="340" height="170" rx="18" fill="#0d1732" stroke="#26d9ff" stroke-width="2"/><text x="600" y="285" text-anchor="middle" fill="#26d9ff" font-family="Inter,Arial,sans-serif" font-size="27" font-weight="700"><tspan x="600" dy="0">OpenAPI Object</tspan></text><text x="600" y="335" text-anchor="middle" fill="#9fb3cd" font-family="Inter,Arial,sans-serif" font-size="18" font-weight="500"><tspan x="600" dy="0">root document</tspan></text><rect x="55" y="140" width="250" height="105" rx="18" fill="#0d1732" stroke="#a579ff" stroke-width="2"/><text x="180" y="178" text-anchor="middle" fill="#edf6ff" font-family="Inter,Arial,sans-serif" font-size="20" font-weight="700"><tspan x="180" dy="0">info</tspan></text><text x="180" y="212" text-anchor="middle" fill="#9fb3cd" font-family="Inter,Arial,sans-serif" font-size="15" font-weight="500"><tspan x="180" dy="0">identity and version</tspan></text><path d="M305 192.5L430 310" stroke="#243b69" stroke-width="3"/><rect x="310" y="120" width="250" height="105" rx="18" fill="#0d1732" stroke="#26d9ff" stroke-width="2"/><text x="435" y="158" text-anchor="middle" fill="#edf6ff" font-family="Inter,Arial,sans-serif" font-size="20" font-weight="700"><tspan x="435" dy="0">servers</tspan></text><text x="435" y="192" text-anchor="middle" fill="#9fb3cd" font-family="Inter,Arial,sans-serif" font-size="15" font-weight="500"><tspan x="435" dy="0">base URLs</tspan></text><path d="M560 172.5L430 310" stroke="#243b69" stroke-width="3"/><rect x="835" y="120" width="250" height="105" rx="18" fill="#0d1732" stroke="#ffc861" stroke-width="2"/><text x="960" y="158" text-anchor="middle" fill="#edf6ff" font-family="Inter,Arial,sans-serif" font-size="20" font-weight="700"><tspan x="960" dy="0">paths</tspan></text><text x="960" y="192" text-anchor="middle" fill="#9fb3cd" font-family="Inter,Arial,sans-serif" font-size="15" font-weight="500"><tspan x="960" dy="0">HTTP operations</tspan></text><path d="M835 172.5L770 310" stroke="#243b69" stroke-width="3"/><rect x="55" y="410" width="250" height="105" rx="18" fill="#0d1732" stroke="#35f2c1" stroke-width="2"/><text x="180" y="448" text-anchor="middle" fill="#edf6ff" font-family="Inter,Arial,sans-serif" font-size="20" font-weight="700"><tspan x="180" dy="0">components</tspan></text><text x="180" y="482" text-anchor="middle" fill="#9fb3cd" font-family="Inter,Arial,sans-serif" font-size="15" font-weight="500"><tspan x="180" dy="0">reusable items</tspan></text><path d="M305 462.5L430 310" stroke="#243b69" stroke-width="3"/><rect x="310" y="430" width="250" height="105" rx="18" fill="#0d1732" stroke="#a579ff" stroke-width="2"/><text x="435" y="468" text-anchor="middle" fill="#edf6ff" font-family="Inter,Arial,sans-serif" font-size="20" font-weight="700"><tspan x="435" dy="0">security</tspan></text><text x="435" y="502" text-anchor="middle" fill="#9fb3cd" font-family="Inter,Arial,sans-serif" font-size="15" font-weight="500"><tspan x="435" dy="0">requirements</tspan></text><path d="M560 482.5L430 310" stroke="#243b69" stroke-width="3"/><rect x="835" y="410" width="250" height="105" rx="18" fill="#0d1732" stroke="#26d9ff" stroke-width="2"/><text x="960" y="448" text-anchor="middle" fill="#edf6ff" font-family="Inter,Arial,sans-serif" font-size="20" font-weight="700"><tspan x="960" dy="0">tags</tspan></text><text x="960" y="482" text-anchor="middle" fill="#9fb3cd" font-family="Inter,Arial,sans-serif" font-size="15" font-weight="500"><tspan x="960" dy="0">organization</tspan></text><path d="M835 462.5L770 310" stroke="#243b69" stroke-width="3"/></svg>