<svg xmlns="http://www.w3.org/2000/svg" viewBox="0 0 1200 520" role="img"><rect width="1200" height="520" rx="30" fill="url(#bg)"/><defs><linearGradient id="bg" x1="0" y1="0" x2="1" y2="1"><stop stop-color="#061326"/><stop offset="1" stop-color="#120b2d"/></linearGradient><filter id="glow"><feGaussianBlur stdDeviation="4" result="b"/><feMerge><feMergeNode in="b"/><feMergeNode in="SourceGraphic"/></feMerge></filter><marker id="arrow" markerWidth="10" markerHeight="10" refX="8" refY="3" orient="auto"><path d="M0,0 L0,6 L9,3 z" fill="#39d9ff"/></marker></defs><g font-family="Inter,Segoe UI,Arial,sans-serif"><text x="600" y="58" text-anchor="middle" fill="#f4f7ff" font-size="32" font-weight="700">Identity broker como ponto de tradução e política</text><rect x="455" y="170" width="290" height="150" rx="18" fill="#0a1b34" stroke="#c682ff" stroke-width="2"/><text x="600" y="210" text-anchor="middle" fill="#c682ff" font-size="23" font-weight="700">Identity Broker</text><text x="600" y="245" text-anchor="middle" fill="#dbe8fb" font-size="16">normaliza claims, confiança e sessão</text><rect x="30" y="105" width="245" height="90" rx="18" fill="#0a1b34" stroke="#39d9ff" stroke-width="2"/><text x="152.5" y="145" text-anchor="middle" fill="#39d9ff" font-size="18" font-weight="700">IdP corporativo</text><text x="152.5" y="180" text-anchor="middle" fill="#dbe8fb" font-size="16">SAML</text><path d="M275 150 L440 225" stroke="#39d9ff" stroke-width="3" fill="none" marker-end="url(#arrow)" filter="url(#glow)"/><rect x="30" y="220" width="245" height="90" rx="18" fill="#0a1b34" stroke="#39d9ff" stroke-width="2"/><text x="152.5" y="260" text-anchor="middle" fill="#39d9ff" font-size="18" font-weight="700">IdP social</text><text x="152.5" y="295" text-anchor="middle" fill="#dbe8fb" font-size="16">OIDC</text><path d="M275 265 L440 225" stroke="#39d9ff" stroke-width="3" fill="none" marker-end="url(#arrow)" filter="url(#glow)"/><rect x="30" y="335" width="245" height="90" rx="18" fill="#0a1b34" stroke="#39d9ff" stroke-width="2"/><text x="152.5" y="375" text-anchor="middle" fill="#39d9ff" font-size="18" font-weight="700">Parceiro</text><text x="152.5" y="410" text-anchor="middle" fill="#dbe8fb" font-size="16">SAML / OIDC</text><path d="M275 380 L440 225" stroke="#39d9ff" stroke-width="3" fill="none" marker-end="url(#arrow)" filter="url(#glow)"/><rect x="925" y="105" width="245" height="90" rx="18" fill="#0a1b34" stroke="#78e2ae" stroke-width="2"/><text x="1047.5" y="145" text-anchor="middle" fill="#78e2ae" font-size="18" font-weight="700">Portal</text><text x="1047.5" y="180" text-anchor="middle" fill="#dbe8fb" font-size="16">OIDC</text><path d="M760 245 L910 150" stroke="#39d9ff" stroke-width="3" fill="none" marker-end="url(#arrow)" filter="url(#glow)"/><rect x="925" y="220" width="245" height="90" rx="18" fill="#0a1b34" stroke="#78e2ae" stroke-width="2"/><text x="1047.5" y="260" text-anchor="middle" fill="#78e2ae" font-size="18" font-weight="700">API</text><text x="1047.5" y="295" text-anchor="middle" fill="#dbe8fb" font-size="16">token</text><path d="M760 245 L910 265" stroke="#39d9ff" stroke-width="3" fill="none" marker-end="url(#arrow)" filter="url(#glow)"/><rect x="925" y="335" width="245" height="90" rx="18" fill="#0a1b34" stroke="#78e2ae" stroke-width="2"/><text x="1047.5" y="375" text-anchor="middle" fill="#78e2ae" font-size="18" font-weight="700">SaaS</text><text x="1047.5" y="410" text-anchor="middle" fill="#dbe8fb" font-size="16">SAML</text><path d="M760 245 L910 380" stroke="#39d9ff" stroke-width="3" fill="none" marker-end="url(#arrow)" filter="url(#glow)"/><rect x="100" y="438" width="1000" height="54" rx="14" fill="#091a32" stroke="#36537d"/><text x="600" y="471" text-anchor="middle" fill="#c8d7ee" font-size="17">O broker normaliza protocolos sem eliminar a responsabilidade da aplicação.</text></g></svg>