<svg xmlns="http://www.w3.org/2000/svg" viewBox="0 0 1200 520" role="img"><rect width="1200" height="520" rx="30" fill="url(#bg)"/><defs><linearGradient id="bg" x1="0" y1="0" x2="1" y2="1"><stop stop-color="#061326"/><stop offset="1" stop-color="#120b2d"/></linearGradient><filter id="glow"><feGaussianBlur stdDeviation="4" result="b"/><feMerge><feMergeNode in="b"/><feMergeNode in="SourceGraphic"/></feMerge></filter><marker id="arrow" markerWidth="10" markerHeight="10" refX="8" refY="3" orient="auto"><path d="M0,0 L0,6 L9,3 z" fill="#39d9ff"/></marker></defs><g font-family="Inter,Segoe UI,Arial,sans-serif"><text x="600" y="58" text-anchor="middle" fill="#f4f7ff" font-size="32" font-weight="700">Uma autenticação, múltiplas aplicações</text><rect x="45" y="185" width="230" height="120" rx="18" fill="#0a1b34" stroke="#39d9ff" stroke-width="2"/><text x="160" y="225" text-anchor="middle" fill="#39d9ff" font-size="21" font-weight="700">Usuário</text><text x="160" y="260" text-anchor="middle" fill="#dbe8fb" font-size="16">credencial e sessão</text><rect x="355" y="185" width="300" height="120" rx="18" fill="#0a1b34" stroke="#c682ff" stroke-width="2"/><text x="505" y="225" text-anchor="middle" fill="#c682ff" font-size="21" font-weight="700">Identity Provider</text><text x="505" y="260" text-anchor="middle" fill="#dbe8fb" font-size="16">autentica e emite asserções</text><path d="M275 245 L340 245" stroke="#39d9ff" stroke-width="3" fill="none" marker-end="url(#arrow)" filter="url(#glow)"/><rect x="830" y="105" width="300" height="82" rx="18" fill="#0a1b34" stroke="#78e2ae" stroke-width="2"/><text x="980" y="145" text-anchor="middle" fill="#78e2ae" font-size="21" font-weight="700">Aplicação A</text><text x="980" y="180" text-anchor="middle" fill="#dbe8fb" font-size="16">sessão local</text><path d="M655 245 L815 146" stroke="#39d9ff" stroke-width="3" fill="none" marker-end="url(#arrow)" filter="url(#glow)"/><rect x="830" y="215" width="300" height="82" rx="18" fill="#0a1b34" stroke="#ffcf6a" stroke-width="2"/><text x="980" y="255" text-anchor="middle" fill="#ffcf6a" font-size="21" font-weight="700">Aplicação B</text><text x="980" y="290" text-anchor="middle" fill="#dbe8fb" font-size="16">sessão local</text><path d="M655 245 L815 256" stroke="#39d9ff" stroke-width="3" fill="none" marker-end="url(#arrow)" filter="url(#glow)"/><rect x="830" y="325" width="300" height="82" rx="18" fill="#0a1b34" stroke="#78e2ae" stroke-width="2"/><text x="980" y="365" text-anchor="middle" fill="#78e2ae" font-size="21" font-weight="700">Aplicação C</text><text x="980" y="400" text-anchor="middle" fill="#dbe8fb" font-size="16">sessão local</text><path d="M655 245 L815 366" stroke="#39d9ff" stroke-width="3" fill="none" marker-end="url(#arrow)" filter="url(#glow)"/><rect x="100" y="438" width="1000" height="54" rx="14" fill="#091a32" stroke="#36537d"/><text x="600" y="471" text-anchor="middle" fill="#c8d7ee" font-size="17">Federação transfere confiança; cada aplicação mantém sua própria sessão.</text></g></svg>