<svg xmlns="http://www.w3.org/2000/svg" width="1200" height="600" viewBox="0 0 1200 600" role="img" aria-labelledby="title desc">
<title id="title">Transport layer: port multiplexing</title><desc id="desc">Transport layer: port multiplexing</desc>
<defs><linearGradient id="bg" x1="0" y1="0" x2="1" y2="1"><stop stop-color="#071426"/><stop offset="1" stop-color="#111236"/></linearGradient><linearGradient id="cyan" x1="0" y1="0" x2="1" y2="1"><stop stop-color="#00ffd1"/><stop offset="1" stop-color="#38a8ff"/></linearGradient><filter id="glow"><feGaussianBlur stdDeviation="5" result="b"/><feMerge><feMergeNode in="b"/><feMergeNode in="SourceGraphic"/></feMerge></filter><marker id="arrow" markerWidth="10" markerHeight="10" refX="9" refY="3" orient="auto"><path d="M0 0L10 3L0 6Z" fill="#5de7ff"/></marker></defs>
<rect width="100%" height="100%" rx="26" fill="url(#bg)"/><g font-family="Arial, sans-serif"><text x="600" y="50" text-anchor="middle" fill="#f3f7ff" font-size="30" font-weight="700">Transport layer: port multiplexing</text><rect x="80" y="110" width="270" height="82" rx="16" fill="#0b2038" stroke="#38a8ff" stroke-width="3"/><text x="215.0" y="144" text-anchor="middle" fill="#f3f7ff" font-size="20" font-weight="700">Application A</text><text x="215.0" y="172" text-anchor="middle" fill="#a9bdd2" font-size="15" font-weight="400"><tspan x="215.0" dy="0">ephemeral port 51021</tspan></text><rect x="80" y="230" width="270" height="82" rx="16" fill="#0b2038" stroke="#00ffd1" stroke-width="3"/><text x="215.0" y="264" text-anchor="middle" fill="#f3f7ff" font-size="20" font-weight="700">Application B</text><text x="215.0" y="292" text-anchor="middle" fill="#a9bdd2" font-size="15" font-weight="400"><tspan x="215.0" dy="0">ephemeral port 51022</tspan></text><rect x="80" y="350" width="270" height="82" rx="16" fill="#0b2038" stroke="#ffcf5a" stroke-width="3"/><text x="215.0" y="384" text-anchor="middle" fill="#f3f7ff" font-size="20" font-weight="700">Application C</text><text x="215.0" y="412" text-anchor="middle" fill="#a9bdd2" font-size="15" font-weight="400"><tspan x="215.0" dy="0">ephemeral port 51023</tspan></text><rect x="470" y="190" width="260" height="150" rx="16" fill="#191a3c" stroke="#b25cff" stroke-width="3"/><text x="600.0" y="224" text-anchor="middle" fill="#f3f7ff" font-size="20" font-weight="700">TCP / UDP</text><text x="600.0" y="252" text-anchor="middle" fill="#a9bdd2" font-size="15" font-weight="400"><tspan x="600.0" dy="0">multiplexes flows</tspan><tspan x="600.0" dy="20">by addresses and ports</tspan></text><rect x="880" y="210" width="240" height="110" rx="16" fill="#2a1d2b" stroke="#ff986c" stroke-width="3"/><text x="1000.0" y="244" text-anchor="middle" fill="#f3f7ff" font-size="20" font-weight="700">Server</text><text x="1000.0" y="272" text-anchor="middle" fill="#a9bdd2" font-size="15" font-weight="400"><tspan x="1000.0" dy="0">10.20.30.40:443</tspan></text><line x1="350" y1="151" x2="470" y2="250" stroke="#5de7ff" stroke-width="3" marker-end="url(#arrow)"/><line x1="350" y1="271" x2="470" y2="250" stroke="#5de7ff" stroke-width="3" marker-end="url(#arrow)"/><line x1="350" y1="391" x2="470" y2="250" stroke="#5de7ff" stroke-width="3" marker-end="url(#arrow)"/><line x1="730" y1="265" x2="880" y2="265" stroke="#5de7ff" stroke-width="3" marker-end="url(#arrow)"/><text x="600" y="540" text-anchor="middle" fill="#91a6bd" font-size="14" font-weight="400">A TCP connection is generally distinguished by: protocol + source IP + source port + destination IP + destination port.</text></g></svg>