<svg xmlns="http://www.w3.org/2000/svg" viewBox="0 0 1200 620"><defs><linearGradient id="bg" x2="1" y2="1"><stop stop-color="#031326"/><stop offset="1" stop-color="#1a0a35"/></linearGradient><marker id="a" markerWidth="11" markerHeight="11" refX="9" refY="3" orient="auto"><path d="M0 0L10 3L0 6Z" fill="#5ce8d4"/></marker></defs><rect width="1200" height="620" rx="34" fill="url(#bg)"/><g font-family="Inter,Segoe UI,sans-serif"><rect x="55" y="235" width="245" height="140" rx="22" fill="#0b2142" stroke="#5ce8d4" stroke-width="3"/><text x="177.5" y="287" text-anchor="middle" font-size="23" font-weight="700" fill="#f4f8ff">Requests</text><text x="177.5" y="323" text-anchor="middle" font-size="15" font-weight="700" fill="#b8cce2">cost c</text><path d="M300 305L455 305" stroke="#5ce8d4" stroke-width="5" marker-end="url(#a)"/><rect x="455" y="180" width="310" height="250" rx="35" fill="#0b2142" stroke="#5ce8d4" stroke-width="4"/><text x="610" y="225" text-anchor="middle" font-size="25" font-weight="700" fill="#f4f8ff">Token bucket</text><circle cx="560" cy="260" r="12" fill="#5ce8d4"/><circle cx="594" cy="260" r="12" fill="#5ce8d4"/><circle cx="628" cy="260" r="12" fill="#5ce8d4"/><circle cx="662" cy="260" r="12" fill="#5ce8d4"/><circle cx="696" cy="260" r="12" fill="#5ce8d4"/><circle cx="560" cy="300" r="12" fill="#5ce8d4"/><circle cx="594" cy="300" r="12" fill="#5ce8d4"/><circle cx="628" cy="300" r="12" fill="#34506f"/><circle cx="662" cy="300" r="12" fill="#34506f"/><circle cx="696" cy="300" r="12" fill="#34506f"/><text x="610" y="395" text-anchor="middle" font-size="18" font-weight="700" fill="#b8cce2">capacity B</text><path d="M765 265L930 200" stroke="#5ce8d4" stroke-width="5" marker-end="url(#a)"/><path d="M765 350L930 430" stroke="#ff718d" stroke-width="5" marker-end="url(#a)"/><rect x="930" y="130" width="220" height="130" rx="22" fill="#0b2142" stroke="#5ce8d4" stroke-width="3"/><text x="1040" y="182" text-anchor="middle" font-size="23" font-weight="700" fill="#f4f8ff">allow</text><text x="1040" y="218" text-anchor="middle" font-size="15" font-weight="700" fill="#b8cce2">refill r/s</text><rect x="930" y="365" width="220" height="130" rx="22" fill="#0b2142" stroke="#ff718d" stroke-width="3"/><text x="1040" y="417" text-anchor="middle" font-size="23" font-weight="700" fill="#f4f8ff">429 / queue / fallback</text><text x="1040" y="453" text-anchor="middle" font-size="15" font-weight="700" fill="#b8cce2">reaction to excess</text></g></svg>