<svg xmlns="http://www.w3.org/2000/svg" viewBox="0 0 1200 620"><defs><linearGradient id="b" x2="1" y2="1"><stop stop-color="#031426"/><stop offset="1" stop-color="#190b35"/></linearGradient><marker id="a" markerWidth="10" markerHeight="10" refX="8" refY="3" orient="auto"><path d="M0 0L9 3L0 6Z" fill="#5ce8d4"/></marker></defs><rect width="1200" height="620" rx="34" fill="url(#b)"/><g font-family="Inter,Segoe UI,sans-serif"><rect x="18" y="230" width="170" height="155" rx="20" fill="#0a2142" stroke="#5ce8d4" stroke-width="3"/><text x="103" y="279" text-anchor="middle" font-size="22" font-weight="700" fill="#f4f8ff">Design</text><text x="103" y="312" text-anchor="middle" font-size="15" font-weight="700" fill="#b8cce2">contrato revisado</text><rect x="213" y="230" width="170" height="155" rx="20" fill="#0a2142" stroke="#5ce8d4" stroke-width="3"/><text x="298" y="279" text-anchor="middle" font-size="22" font-weight="700" fill="#f4f8ff">Preview</text><text x="298" y="312" text-anchor="middle" font-size="15" font-weight="700" fill="#b8cce2">pilotos</text><rect x="408" y="230" width="170" height="155" rx="20" fill="#0a2142" stroke="#9be47a" stroke-width="3"/><text x="493" y="279" text-anchor="middle" font-size="22" font-weight="700" fill="#f4f8ff">Ativa</text><text x="493" y="312" text-anchor="middle" font-size="15" font-weight="700" fill="#b8cce2">SLA e suporte</text><rect x="603" y="230" width="170" height="155" rx="20" fill="#0a2142" stroke="#ffbd59" stroke-width="3"/><text x="688" y="279" text-anchor="middle" font-size="22" font-weight="700" fill="#f4f8ff">Depreciação</text><text x="688" y="312" text-anchor="middle" font-size="15" font-weight="700" fill="#b8cce2">prazo e migração</text><rect x="798" y="230" width="170" height="155" rx="20" fill="#0a2142" stroke="#ff718d" stroke-width="3"/><text x="883" y="279" text-anchor="middle" font-size="22" font-weight="700" fill="#f4f8ff">Sunset</text><text x="883" y="312" text-anchor="middle" font-size="15" font-weight="700" fill="#b8cce2">retirada marcada</text><rect x="993" y="230" width="170" height="155" rx="20" fill="#0a2142" stroke="#ff718d" stroke-width="3"/><text x="1078" y="279" text-anchor="middle" font-size="22" font-weight="700" fill="#f4f8ff">Retirada</text><text x="1078" y="312" text-anchor="middle" font-size="15" font-weight="700" fill="#b8cce2">sem tráfego</text><path d="M188 307L213 307" stroke="#5ce8d4" stroke-width="4" marker-end="url(#a)"/><path d="M383 307L408 307" stroke="#5ce8d4" stroke-width="4" marker-end="url(#a)"/><path d="M578 307L603 307" stroke="#5ce8d4" stroke-width="4" marker-end="url(#a)"/><path d="M773 307L798 307" stroke="#5ce8d4" stroke-width="4" marker-end="url(#a)"/><path d="M968 307L993 307" stroke="#5ce8d4" stroke-width="4" marker-end="url(#a)"/></g></svg>