<svg xmlns="http://www.w3.org/2000/svg" viewBox="0 0 1200 620" role="img" aria-label="Unilateral TLS × mutual TLS">
    <defs>
    <linearGradient id="bg" x1="0" y1="0" x2="1" y2="1"><stop stop-color="#071126"/><stop offset="1" stop-color="#111c3f"/></linearGradient>
    <linearGradient id="line" x1="0" y1="0" x2="1" y2="0"><stop stop-color="#21d4fd"/><stop offset="1" stop-color="#a855f7"/></linearGradient>
    <filter id="glow"><feGaussianBlur stdDeviation="4" result="b"/><feMerge><feMergeNode in="b"/><feMergeNode in="SourceGraphic"/></feMerge></filter>
    <marker id="arrow" viewBox="0 0 10 10" refX="9" refY="5" markerWidth="8" markerHeight="8" orient="auto-start-reverse"><path d="M0 0L10 5L0 10Z" fill="#55dcff"/></marker>
  </defs><rect width="1200" height="620" rx="34" fill="url(#bg)"/>
    <path d="M40 102H1160" stroke="#243e72" stroke-width="2"/><text x="60" y="70" fill="#f2f7ff" font-family="Inter,Arial,sans-serif" font-size="30" font-weight="700">Unilateral TLS × mutual TLS</text>
    <text x="300" y="150" text-anchor="middle" fill="#8be8ff" font-family="Inter,Arial,sans-serif" font-size="25" font-weight="700">Unilateral TLS</text><g><rect x="80" y="230" width="180" height="105" rx="20" fill="#0d2b55" stroke="#21d4fd" stroke-width="3"/><rect x="90" y="240" width="160" height="85" rx="14" fill="#0b1732" opacity=".45"/><text x="170" y="289.5" text-anchor="middle" fill="#e9f8ff" font-family="Inter,Arial,sans-serif" font-size="22" font-weight="650">Client</text></g><g><rect x="340" y="230" width="180" height="105" rx="20" fill="#123c42" stroke="#34d399" stroke-width="3"/><rect x="350" y="240" width="160" height="85" rx="14" fill="#0b1732" opacity=".45"/><text x="430" y="289.5" text-anchor="middle" fill="#ecfdf5" font-family="Inter,Arial,sans-serif" font-size="22" font-weight="650">Server</text></g><g><path d="M260 282L340 282" stroke="url(#line)" stroke-width="5" fill="none" marker-end="url(#arrow)"  filter="url(#glow)"/></g><text x="300" y="210" text-anchor="middle" fill="#d9f7ff" font-family="Inter,Arial,sans-serif" font-size="18" font-weight="600">validates server</text><text x="900" y="150" text-anchor="middle" fill="#c4b5fd" font-family="Inter,Arial,sans-serif" font-size="25" font-weight="700">mutual TLS</text><g><rect x="680" y="230" width="180" height="105" rx="20" fill="#25175a" stroke="#a855f7" stroke-width="3"/><rect x="690" y="240" width="160" height="85" rx="14" fill="#0b1732" opacity=".45"/><text x="770" y="289.5" text-anchor="middle" fill="#f5ecff" font-family="Inter,Arial,sans-serif" font-size="22" font-weight="650">Client</text></g><g><rect x="940" y="230" width="180" height="105" rx="20" fill="#123c42" stroke="#34d399" stroke-width="3"/><rect x="950" y="240" width="160" height="85" rx="14" fill="#0b1732" opacity=".45"/><text x="1030" y="289.5" text-anchor="middle" fill="#ecfdf5" font-family="Inter,Arial,sans-serif" font-size="22" font-weight="650">Server</text></g><g><path d="M860 282L940 282" stroke="url(#line)" stroke-width="5" fill="none" marker-end="url(#arrow)" marker-start="url(#arrow)" filter="url(#glow)"/></g><text x="900" y="210" text-anchor="middle" fill="#d9f7ff" font-family="Inter,Arial,sans-serif" font-size="18" font-weight="600">mutual validation</text></svg>