<svg xmlns="http://www.w3.org/2000/svg" viewBox="0 0 1200 620" role="img" aria-label="Workload identity in the service mesh">
    <defs>
    <linearGradient id="bg" x1="0" y1="0" x2="1" y2="1"><stop stop-color="#071126"/><stop offset="1" stop-color="#111c3f"/></linearGradient>
    <linearGradient id="line" x1="0" y1="0" x2="1" y2="0"><stop stop-color="#21d4fd"/><stop offset="1" stop-color="#a855f7"/></linearGradient>
    <filter id="glow"><feGaussianBlur stdDeviation="4" result="b"/><feMerge><feMergeNode in="b"/><feMergeNode in="SourceGraphic"/></feMerge></filter>
    <marker id="arrow" viewBox="0 0 10 10" refX="9" refY="5" markerWidth="8" markerHeight="8" orient="auto-start-reverse"><path d="M0 0L10 5L0 10Z" fill="#55dcff"/></marker>
  </defs><rect width="1200" height="620" rx="34" fill="url(#bg)"/>
    <path d="M40 102H1160" stroke="#243e72" stroke-width="2"/><text x="60" y="70" fill="#f2f7ff" font-family="Inter,Arial,sans-serif" font-size="30" font-weight="700">Workload identity in the service mesh</text>
    <g><rect x="45" y="270" width="180" height="105" rx="20" fill="#0d2b55" stroke="#21d4fd" stroke-width="3"/><rect x="55" y="280" width="160" height="85" rx="14" fill="#0b1732" opacity=".45"/><text x="135" y="329.5" text-anchor="middle" fill="#e9f8ff" font-family="Inter,Arial,sans-serif" font-size="22" font-weight="650">Workload A</text></g><g><rect x="260" y="270" width="160" height="105" rx="20" fill="#25175a" stroke="#a855f7" stroke-width="3"/><rect x="270" y="280" width="140" height="85" rx="14" fill="#0b1732" opacity=".45"/><text x="340" y="329.5" text-anchor="middle" fill="#f5ecff" font-family="Inter,Arial,sans-serif" font-size="22" font-weight="650">Sidecar</text></g><g><rect x="780" y="270" width="160" height="105" rx="20" fill="#25175a" stroke="#a855f7" stroke-width="3"/><rect x="790" y="280" width="140" height="85" rx="14" fill="#0b1732" opacity=".45"/><text x="860" y="329.5" text-anchor="middle" fill="#f5ecff" font-family="Inter,Arial,sans-serif" font-size="22" font-weight="650">Sidecar</text></g><g><rect x="975" y="270" width="180" height="105" rx="20" fill="#123c42" stroke="#34d399" stroke-width="3"/><rect x="985" y="280" width="160" height="85" rx="14" fill="#0b1732" opacity=".45"/><text x="1065" y="329.5" text-anchor="middle" fill="#ecfdf5" font-family="Inter,Arial,sans-serif" font-size="22" font-weight="650">Workload B</text></g><g><path d="M420 322L780 322" stroke="url(#line)" stroke-width="5" fill="none" marker-end="url(#arrow)" marker-start="url(#arrow)" filter="url(#glow)"/><text x="600" y="306" text-anchor="middle" fill="#d9f7ff" font-family="Inter,Arial,sans-serif" font-size="20" font-weight="600">mTLS + identity</text></g><g><rect x="470" y="125" width="260" height="100" rx="20" fill="#4b3212" stroke="#fbbf24" stroke-width="3"/><rect x="480" y="135" width="240" height="80" rx="14" fill="#0b1732" opacity=".45"/><text x="600" y="182" text-anchor="middle" fill="#fff8df" font-family="Inter,Arial,sans-serif" font-size="22" font-weight="650">Control plane</text></g><g><path d="M545 225L340 270" stroke="url(#line)" stroke-width="5" fill="none" marker-end="url(#arrow)"  filter="url(#glow)"/></g><g><path d="M655 225L860 270" stroke="url(#line)" stroke-width="5" fill="none" marker-end="url(#arrow)"  filter="url(#glow)"/></g><text x="340" y="248" text-anchor="middle" fill="#d9f7ff" font-family="Inter,Arial,sans-serif" font-size="17" font-weight="600">Short-lived certificate</text><text x="860" y="248" text-anchor="middle" fill="#d9f7ff" font-family="Inter,Arial,sans-serif" font-size="17" font-weight="600">Short-lived certificate</text></svg>