<svg xmlns="http://www.w3.org/2000/svg" viewBox="0 0 1200 620" role="img" aria-label="Mutual authentication across the enterprise path">
    <defs>
    <linearGradient id="bg" x1="0" y1="0" x2="1" y2="1"><stop stop-color="#071126"/><stop offset="1" stop-color="#111c3f"/></linearGradient>
    <linearGradient id="line" x1="0" y1="0" x2="1" y2="0"><stop stop-color="#21d4fd"/><stop offset="1" stop-color="#a855f7"/></linearGradient>
    <filter id="glow"><feGaussianBlur stdDeviation="4" result="b"/><feMerge><feMergeNode in="b"/><feMergeNode in="SourceGraphic"/></feMerge></filter>
    <marker id="arrow" viewBox="0 0 10 10" refX="9" refY="5" markerWidth="8" markerHeight="8" orient="auto-start-reverse"><path d="M0 0L10 5L0 10Z" fill="#55dcff"/></marker>
  </defs><rect width="1200" height="620" rx="34" fill="url(#bg)"/>
    <path d="M40 102H1160" stroke="#243e72" stroke-width="2"/><text x="60" y="70" fill="#f2f7ff" font-family="Inter,Arial,sans-serif" font-size="30" font-weight="700">Mutual authentication across the enterprise path</text>
    <g><rect x="55" y="278" width="220" height="120" rx="20" fill="#0d2b55" stroke="#21d4fd" stroke-width="3"/><rect x="65" y="288" width="200" height="100" rx="14" fill="#0b1732" opacity=".45"/><text x="165" y="345" text-anchor="middle" fill="#e9f8ff" font-family="Inter,Arial,sans-serif" font-size="22" font-weight="650">Consumer</text></g><g><rect x="330" y="278" width="220" height="120" rx="20" fill="#25175a" stroke="#a855f7" stroke-width="3"/><rect x="340" y="288" width="200" height="100" rx="14" fill="#0b1732" opacity=".45"/><text x="440" y="345" text-anchor="middle" fill="#f5ecff" font-family="Inter,Arial,sans-serif" font-size="22" font-weight="650">Edge / WAF</text></g><g><rect x="650" y="278" width="240" height="120" rx="20" fill="#0d2b55" stroke="#21d4fd" stroke-width="3"/><rect x="660" y="288" width="220" height="100" rx="14" fill="#0b1732" opacity=".45"/><text x="770" y="345" text-anchor="middle" fill="#e9f8ff" font-family="Inter,Arial,sans-serif" font-size="22" font-weight="650">API Gateway</text></g><g><rect x="970" y="278" width="180" height="120" rx="20" fill="#123c42" stroke="#34d399" stroke-width="3"/><rect x="980" y="288" width="160" height="100" rx="14" fill="#0b1732" opacity=".45"/><text x="1060" y="345" text-anchor="middle" fill="#ecfdf5" font-family="Inter,Arial,sans-serif" font-size="22" font-weight="650">Backend</text></g><g><path d="M275 338L330 338" stroke="url(#line)" stroke-width="5" fill="none" marker-end="url(#arrow)"  filter="url(#glow)"/></g><g><path d="M550 338L650 338" stroke="url(#line)" stroke-width="5" fill="none" marker-end="url(#arrow)"  filter="url(#glow)"/></g><g><path d="M890 338L970 338" stroke="url(#line)" stroke-width="5" fill="none" marker-end="url(#arrow)"  filter="url(#glow)"/></g><text x="302" y="254" text-anchor="middle" fill="#d9f7ff" font-family="Inter,Arial,sans-serif" font-size="18" font-weight="600">Certificate</text><text x="600" y="254" text-anchor="middle" fill="#d9f7ff" font-family="Inter,Arial,sans-serif" font-size="18" font-weight="600">Trusted chain</text><text x="930" y="254" text-anchor="middle" fill="#d9f7ff" font-family="Inter,Arial,sans-serif" font-size="18" font-weight="600">New TLS session</text><path d="M720 176l50-38 50 38v52c0 43-26 73-50 86-24-13-50-43-50-86z" fill="#0d2b55" stroke="#34d399" stroke-width="4"/><path d="M752 211v-13a18 18 0 0136 0v13" fill="none" stroke="#e9f8ff" stroke-width="5"/><rect x="744" y="211" width="52" height="43" rx="9" fill="#21d4fd"/><text x="770" y="452" text-anchor="middle" fill="#c4b5fd" font-family="Inter,Arial,sans-serif" font-size="22">Policy &amp; authorization</text></svg>