<svg xmlns="http://www.w3.org/2000/svg" viewBox="0 0 1200 520" role="img"><rect width="1200" height="520" rx="30" fill="url(#bg)"/><defs><linearGradient id="bg" x1="0" y1="0" x2="1" y2="1"><stop stop-color="#061326"/><stop offset="1" stop-color="#120b2d"/></linearGradient><filter id="glow"><feGaussianBlur stdDeviation="4" result="b"/><feMerge><feMergeNode in="b"/><feMergeNode in="SourceGraphic"/></feMerge></filter><marker id="arrow" markerWidth="10" markerHeight="10" refX="8" refY="3" orient="auto"><path d="M0,0 L0,6 L9,3 z" fill="#39d9ff"/></marker></defs><g font-family="Inter,Segoe UI,Arial,sans-serif"><text x="600" y="58" text-anchor="middle" fill="#f4f7ff" font-size="32" font-weight="700">Topologías de confianza federada</text><text x="300" y="125" text-anchor="middle" fill="#ffcf6a" font-size="23" font-weight="700">Confianza directa</text><rect x="90" y="185" width="190" height="110" rx="18" fill="#0a1b34" stroke="#39d9ff" stroke-width="2"/><text x="185" y="225" text-anchor="middle" fill="#39d9ff" font-size="21" font-weight="700">IdP asociado</text><text x="185" y="260" text-anchor="middle" fill="#dbe8fb" font-size="16"></text><rect x="360" y="185" width="190" height="110" rx="18" fill="#0a1b34" stroke="#78e2ae" stroke-width="2"/><text x="455" y="225" text-anchor="middle" fill="#78e2ae" font-size="21" font-weight="700">Aplicación</text><text x="455" y="260" text-anchor="middle" fill="#dbe8fb" font-size="16"></text><path d="M280 240 L345 240" stroke="#39d9ff" stroke-width="3" fill="none" marker-end="url(#arrow)" filter="url(#glow)"/><text x="880" y="125" text-anchor="middle" fill="#c682ff" font-size="23" font-weight="700">Hub-and-spoke con broker</text><rect x="650" y="185" width="160" height="110" rx="18" fill="#0a1b34" stroke="#39d9ff" stroke-width="2"/><text x="730" y="225" text-anchor="middle" fill="#39d9ff" font-size="18" font-weight="700">IdP A / B</text><text x="730" y="260" text-anchor="middle" fill="#dbe8fb" font-size="16"></text><rect x="850" y="185" width="180" height="110" rx="18" fill="#0a1b34" stroke="#c682ff" stroke-width="2"/><text x="940" y="225" text-anchor="middle" fill="#c682ff" font-size="18" font-weight="700">Identity Broker</text><text x="940" y="260" text-anchor="middle" fill="#dbe8fb" font-size="16"></text><rect x="1070" y="185" width="110" height="110" rx="18" fill="#0a1b34" stroke="#78e2ae" stroke-width="2"/><text x="1125" y="225" text-anchor="middle" fill="#78e2ae" font-size="16" font-weight="700">Aplicaciones</text><text x="1125" y="260" text-anchor="middle" fill="#dbe8fb" font-size="16"></text><path d="M810 240 L835 240" stroke="#39d9ff" stroke-width="3" fill="none" marker-end="url(#arrow)" filter="url(#glow)"/><path d="M1030 240 L1055 240" stroke="#39d9ff" stroke-width="3" fill="none" marker-end="url(#arrow)" filter="url(#glow)"/><rect x="100" y="438" width="1000" height="54" rx="14" fill="#091a32" stroke="#36537d"/><text x="600" y="471" text-anchor="middle" fill="#c8d7ee" font-size="17">La topología define cómo se distribuyen y operan las relaciones de confianza.</text></g></svg>