<svg xmlns="http://www.w3.org/2000/svg" viewBox="0 0 1200 620"><defs><linearGradient id="b"><stop stop-color="#031426"/><stop offset="1" stop-color="#190b35"/></linearGradient><marker id="a" markerWidth="10" markerHeight="10" refX="8" refY="3" orient="auto"><path d="M0 0L9 3L0 6Z" fill="#5ce8d4"/></marker></defs><rect width="1200" height="620" rx="34" fill="url(#b)"/><g font-family="Inter,Segoe UI,sans-serif"><rect x="30" y="220" width="190" height="170" rx="20" fill="#0a2142" stroke="#5ce8d4" stroke-width="3"/><text x="125" y="268" text-anchor="middle" font-size="21" font-weight="700" fill="#f4f8ff">Coleta</text><text x="125" y="300" text-anchor="middle" font-size="14" font-weight="700" fill="#b8cce2">finalidade + necessidade</text><path d="M220 305L267.5 305" stroke="#5ce8d4" stroke-width="4" marker-end="url(#a)"/><rect x="267.5" y="220" width="190" height="170" rx="20" fill="#0a2142" stroke="#a47bff" stroke-width="3"/><text x="362.5" y="268" text-anchor="middle" font-size="21" font-weight="700" fill="#f4f8ff">Processamento</text><text x="362.5" y="300" text-anchor="middle" font-size="14" font-weight="700" fill="#b8cce2">acesso controlado</text><path d="M457.5 305L505 305" stroke="#5ce8d4" stroke-width="4" marker-end="url(#a)"/><rect x="505" y="220" width="190" height="170" rx="20" fill="#0a2142" stroke="#9be47a" stroke-width="3"/><text x="600" y="268" text-anchor="middle" font-size="21" font-weight="700" fill="#f4f8ff">Compartilhamento</text><text x="600" y="300" text-anchor="middle" font-size="14" font-weight="700" fill="#b8cce2">terceiros + segurança</text><path d="M695 305L742.5 305" stroke="#5ce8d4" stroke-width="4" marker-end="url(#a)"/><rect x="742.5" y="220" width="190" height="170" rx="20" fill="#0a2142" stroke="#5ce8d4" stroke-width="3"/><text x="837.5" y="268" text-anchor="middle" font-size="21" font-weight="700" fill="#f4f8ff">Retenção</text><text x="837.5" y="300" text-anchor="middle" font-size="14" font-weight="700" fill="#b8cce2">prazo + backups</text><path d="M932.5 305L980 305" stroke="#5ce8d4" stroke-width="4" marker-end="url(#a)"/><rect x="980" y="220" width="190" height="170" rx="20" fill="#0a2142" stroke="#a47bff" stroke-width="3"/><text x="1075" y="268" text-anchor="middle" font-size="21" font-weight="700" fill="#f4f8ff">Eliminação</text><text x="1075" y="300" text-anchor="middle" font-size="14" font-weight="700" fill="#b8cce2">propagação</text></g></svg>