<svg xmlns="http://www.w3.org/2000/svg" viewBox="0 0 1200 620"><defs><linearGradient id="b"><stop stop-color="#031426"/><stop offset="1" stop-color="#190b35"/></linearGradient><marker id="a" markerWidth="10" markerHeight="10" refX="8" refY="3" orient="auto"><path d="M0 0L9 3L0 6Z" fill="#5ce8d4"/></marker></defs><rect width="1200" height="620" rx="34" fill="url(#b)"/><g font-family="Inter,Segoe UI,sans-serif"><rect x="30" y="225" width="170" height="170" rx="20" fill="#0a2142" stroke="#5ce8d4" stroke-width="3"/><text x="115" y="273" text-anchor="middle" font-size="21" font-weight="700" fill="#f4f8ff">Canales</text><text x="115" y="305" text-anchor="middle" font-size="14" font-weight="700" fill="#b8cce2">app, internos y socios</text><path d="M200 310L224 310" stroke="#5ce8d4" stroke-width="4" marker-end="url(#a)"/><rect x="224" y="225" width="170" height="170" rx="20" fill="#0a2142" stroke="#a47bff" stroke-width="3"/><text x="309" y="273" text-anchor="middle" font-size="21" font-weight="700" fill="#f4f8ff">Borde</text><text x="309" y="305" text-anchor="middle" font-size="14" font-weight="700" fill="#b8cce2">DNS, WAF y gateway</text><path d="M394 310L418 310" stroke="#5ce8d4" stroke-width="4" marker-end="url(#a)"/><rect x="418" y="225" width="170" height="170" rx="20" fill="#0a2142" stroke="#9be47a" stroke-width="3"/><text x="503" y="273" text-anchor="middle" font-size="21" font-weight="700" fill="#f4f8ff">Identidad</text><text x="503" y="305" text-anchor="middle" font-size="14" font-weight="700" fill="#b8cce2">OAuth, OIDC y mTLS</text><path d="M588 310L612 310" stroke="#5ce8d4" stroke-width="4" marker-end="url(#a)"/><rect x="612" y="225" width="170" height="170" rx="20" fill="#0a2142" stroke="#5ce8d4" stroke-width="3"/><text x="697" y="273" text-anchor="middle" font-size="21" font-weight="700" fill="#f4f8ff">Dominios</text><text x="697" y="305" text-anchor="middle" font-size="14" font-weight="700" fill="#b8cce2">clientes, cuentas y pagos</text><path d="M782 310L806 310" stroke="#5ce8d4" stroke-width="4" marker-end="url(#a)"/><rect x="806" y="225" width="170" height="170" rx="20" fill="#0a2142" stroke="#a47bff" stroke-width="3"/><text x="891" y="273" text-anchor="middle" font-size="21" font-weight="700" fill="#f4f8ff">Datos y eventos</text><text x="891" y="305" text-anchor="middle" font-size="14" font-weight="700" fill="#b8cce2">base, caché y broker</text><path d="M976 310L1000 310" stroke="#5ce8d4" stroke-width="4" marker-end="url(#a)"/><rect x="1000" y="225" width="170" height="170" rx="20" fill="#0a2142" stroke="#9be47a" stroke-width="3"/><text x="1085" y="273" text-anchor="middle" font-size="21" font-weight="700" fill="#f4f8ff">Plataforma</text><text x="1085" y="305" text-anchor="middle" font-size="14" font-weight="700" fill="#b8cce2">Kubernetes + observabilidad</text></g></svg>