<svg xmlns="http://www.w3.org/2000/svg" viewBox="0 0 1200 620" role="img" aria-label="Validación de tokens: una cadena de verificaciones"><defs><linearGradient id="g" x1="0" x2="1"><stop stop-color="#bc78ff"/><stop offset=".5" stop-color="#27d8ff"/><stop offset="1" stop-color="#35f2c1"/></linearGradient><filter id="glow"><feGaussianBlur stdDeviation="5" result="b"/><feMerge><feMergeNode in="b"/><feMergeNode in="SourceGraphic"/></feMerge></filter><marker id="arrow" viewBox="0 0 10 10" refX="9" refY="5" markerWidth="7" markerHeight="7" orient="auto-start-reverse"><path d="M0 0L10 5L0 10Z" fill="context-stroke"/></marker></defs><rect width="1200" height="620" rx="28" fill="#070d22"/><path d="M0 95H1200M0 540H1200" stroke="#28416e" opacity=".35"/><text x="60" y="68" fill="#eff7ff" font-family="Inter,Arial,sans-serif" font-size="30" font-weight="700">Validación de tokens: una cadena de verificaciones</text><rect x="25" y="155" width="170" height="170" rx="19" fill="#0d1732" stroke="#bc78ff" stroke-width="2"/><circle cx="110" cy="190" r="11" fill="#bc78ff" filter="url(#glow)"/><text x="110" y="235" text-anchor="middle" fill="#bc78ff" font-family="Inter,Arial,sans-serif" font-size="19" font-weight="700">Formato</text><text x="110" y="274" text-anchor="middle" fill="#a9bbd1" font-family="Inter,Arial,sans-serif" font-size="16" font-weight="500"><tspan x="110" dy="0">parse y typ</tspan></text><path d="M195 240L220 240" fill="none" stroke="#bc78ff" stroke-width="4" marker-end="url(#arrow)" filter="url(#glow)"/><rect x="220" y="155" width="170" height="170" rx="19" fill="#0d1732" stroke="#27d8ff" stroke-width="2"/><circle cx="305" cy="190" r="11" fill="#27d8ff" filter="url(#glow)"/><text x="305" y="235" text-anchor="middle" fill="#27d8ff" font-family="Inter,Arial,sans-serif" font-size="19" font-weight="700">Criptografía</text><text x="305" y="274" text-anchor="middle" fill="#a9bbd1" font-family="Inter,Arial,sans-serif" font-size="16" font-weight="500"><tspan x="305" dy="0">algoritmo y</tspan><tspan x="305" dy="20.8">clave</tspan></text><path d="M390 240L415 240" fill="none" stroke="#27d8ff" stroke-width="4" marker-end="url(#arrow)" filter="url(#glow)"/><rect x="415" y="155" width="170" height="170" rx="19" fill="#0d1732" stroke="#35f2c1" stroke-width="2"/><circle cx="500" cy="190" r="11" fill="#35f2c1" filter="url(#glow)"/><text x="500" y="235" text-anchor="middle" fill="#35f2c1" font-family="Inter,Arial,sans-serif" font-size="19" font-weight="700">Emisor</text><text x="500" y="274" text-anchor="middle" fill="#a9bbd1" font-family="Inter,Arial,sans-serif" font-size="16" font-weight="500"><tspan x="500" dy="0">iss y metadata</tspan></text><path d="M585 240L610 240" fill="none" stroke="#35f2c1" stroke-width="4" marker-end="url(#arrow)" filter="url(#glow)"/><rect x="610" y="155" width="170" height="170" rx="19" fill="#0d1732" stroke="#ffbd59" stroke-width="2"/><circle cx="695" cy="190" r="11" fill="#ffbd59" filter="url(#glow)"/><text x="695" y="235" text-anchor="middle" fill="#ffbd59" font-family="Inter,Arial,sans-serif" font-size="19" font-weight="700">Destino</text><text x="695" y="274" text-anchor="middle" fill="#a9bbd1" font-family="Inter,Arial,sans-serif" font-size="16" font-weight="500"><tspan x="695" dy="0">aud y recurso</tspan></text><path d="M780 240L805 240" fill="none" stroke="#ffbd59" stroke-width="4" marker-end="url(#arrow)" filter="url(#glow)"/><rect x="805" y="155" width="170" height="170" rx="19" fill="#0d1732" stroke="#bc78ff" stroke-width="2"/><circle cx="890" cy="190" r="11" fill="#bc78ff" filter="url(#glow)"/><text x="890" y="235" text-anchor="middle" fill="#bc78ff" font-family="Inter,Arial,sans-serif" font-size="19" font-weight="700">Tiempo</text><text x="890" y="274" text-anchor="middle" fill="#a9bbd1" font-family="Inter,Arial,sans-serif" font-size="16" font-weight="500"><tspan x="890" dy="0">exp • nbf • iat</tspan></text><path d="M975 240L1000 240" fill="none" stroke="#bc78ff" stroke-width="4" marker-end="url(#arrow)" filter="url(#glow)"/><rect x="1000" y="155" width="170" height="170" rx="19" fill="#0d1732" stroke="#35f2c1" stroke-width="2"/><circle cx="1085" cy="190" r="11" fill="#35f2c1" filter="url(#glow)"/><text x="1085" y="235" text-anchor="middle" fill="#35f2c1" font-family="Inter,Arial,sans-serif" font-size="19" font-weight="700">Política</text><text x="1085" y="274" text-anchor="middle" fill="#a9bbd1" font-family="Inter,Arial,sans-serif" font-size="16" font-weight="500"><tspan x="1085" dy="0">scope • roles •</tspan><tspan x="1085" dy="20.8">claims</tspan></text><rect x="150" y="405" width="900" height="105" rx="19" fill="#0d1732" stroke="#ff6f91" stroke-width="2"/><text x="230" y="467" text-anchor="middle" fill="#ff6f91" font-family="Inter,Arial,sans-serif" font-size="19" font-weight="800">DENY</text><text x="650" y="445" text-anchor="middle" fill="#eff7ff" font-family="Inter,Arial,sans-serif" font-size="19" font-weight="600"><tspan x="650" dy="0">Rechazar tokens de otro emisor, audiencia, tipo o ventana</tspan><tspan x="650" dy="24.7">temporal</tspan></text></svg>