<svg xmlns="http://www.w3.org/2000/svg" viewBox="0 0 1200 520" role="img"><rect width="1200" height="520" rx="30" fill="url(#bg)"/><defs><linearGradient id="bg" x1="0" y1="0" x2="1" y2="1"><stop stop-color="#061326"/><stop offset="1" stop-color="#120b2d"/></linearGradient><filter id="glow"><feGaussianBlur stdDeviation="5" result="b"/><feMerge><feMergeNode in="b"/><feMergeNode in="SourceGraphic"/></feMerge></filter><marker id="arrow" markerWidth="10" markerHeight="10" refX="8" refY="3" orient="auto"><path d="M0,0 L0,6 L9,3 z" fill="#39d9ff"/></marker></defs><g font-family="Inter,Segoe UI,Arial,sans-serif"><text x="600" y="58" text-anchor="middle" fill="#f4f7ff" font-size="32" font-weight="700">Web Browser SSO initiated by the Service Provider</text><rect x="130" y="105" width="150" height="70" rx="18" fill="#0a1b34" stroke="#8bdcff" stroke-width="2"/><text x="205" y="143" text-anchor="middle" fill="#8bdcff" font-size="21" font-weight="700">Browser</text><text x="205" y="175" text-anchor="middle" fill="#dbe8fb" font-size="15"></text><rect x="525" y="105" width="150" height="70" rx="18" fill="#0a1b34" stroke="#ffcf6a" stroke-width="2"/><text x="600" y="143" text-anchor="middle" fill="#ffcf6a" font-size="21" font-weight="700">SP</text><text x="600" y="175" text-anchor="middle" fill="#dbe8fb" font-size="15"></text><rect x="920" y="105" width="150" height="70" rx="18" fill="#0a1b34" stroke="#8bdcff" stroke-width="2"/><text x="995" y="143" text-anchor="middle" fill="#8bdcff" font-size="21" font-weight="700">IdP</text><text x="995" y="175" text-anchor="middle" fill="#dbe8fb" font-size="15"></text><path d="M205 205 L600 205" stroke="#39d9ff" stroke-width="3" fill="none" marker-end="url(#arrow)" filter="url(#glow)"/><path d="M600 250 L995 250" stroke="#39d9ff" stroke-width="3" fill="none" marker-end="url(#arrow)" filter="url(#glow)"/><path d="M995 295 L995 296" stroke="#39d9ff" stroke-width="3" fill="none" marker-end="url(#arrow)" filter="url(#glow)"/><path d="M995 340 L205 340" stroke="#39d9ff" stroke-width="3" fill="none" marker-end="url(#arrow)" filter="url(#glow)"/><path d="M205 385 L600 385" stroke="#39d9ff" stroke-width="3" fill="none" marker-end="url(#arrow)" filter="url(#glow)"/><rect x="315" y="187" width="230" height="30" rx="10" fill="#08172c"/><text x="430" y="208" text-anchor="middle" fill="#eaf2ff" font-size="15">1. Protected resource</text><rect x="565" y="232" width="230" height="30" rx="10" fill="#08172c"/><text x="680" y="253" text-anchor="middle" fill="#eaf2ff" font-size="15">2. AuthnRequest</text><rect x="315" y="277" width="230" height="30" rx="10" fill="#08172c"/><text x="430" y="298" text-anchor="middle" fill="#eaf2ff" font-size="15">3. Login / MFA</text><rect x="565" y="322" width="230" height="30" rx="10" fill="#08172c"/><text x="680" y="343" text-anchor="middle" fill="#eaf2ff" font-size="15">4. SAMLResponse via POST</text><rect x="315" y="367" width="230" height="30" rx="10" fill="#08172c"/><text x="430" y="388" text-anchor="middle" fill="#eaf2ff" font-size="15">5. ACS validates and creates session</text></g></svg>