<svg xmlns="http://www.w3.org/2000/svg" viewBox="0 0 1200 620"><defs><linearGradient id="b" x2="1" y2="1"><stop stop-color="#04152d"/><stop offset="1" stop-color="#180b35"/></linearGradient><marker id="a" markerWidth="10" markerHeight="10" refX="8" refY="3" orient="auto"><path d="M0 0L9 3L0 6Z" fill="#5ce8d4"/></marker></defs><rect width="1200" height="620" rx="34" fill="url(#b)"/><g font-family="Inter,Segoe UI,sans-serif"><rect x="35" y="220" width="200" height="155" rx="18" fill="#0a2142" stroke="#5ce8d4" stroke-width="3"/><text x="135" y="263" text-anchor="middle" font-size="20" font-weight="700" fill="#f3f8ff">Design</text><text x="135" y="293" text-anchor="middle" font-size="14" font-weight="700" fill="#b8cce2">modelagem de ameaças</text><rect x="267" y="220" width="200" height="155" rx="18" fill="#0a2142" stroke="#5ce8d4" stroke-width="3"/><text x="367" y="263" text-anchor="middle" font-size="20" font-weight="700" fill="#f3f8ff">Build</text><text x="367" y="293" text-anchor="middle" font-size="14" font-weight="700" fill="#b8cce2">SAST / testes</text><rect x="499" y="220" width="200" height="155" rx="18" fill="#0a2142" stroke="#5ce8d4" stroke-width="3"/><text x="599" y="263" text-anchor="middle" font-size="20" font-weight="700" fill="#f3f8ff">Deploy</text><text x="599" y="293" text-anchor="middle" font-size="14" font-weight="700" fill="#b8cce2">policy / CI/CD</text><rect x="731" y="220" width="200" height="155" rx="18" fill="#0a2142" stroke="#ffca68" stroke-width="3"/><text x="831" y="263" text-anchor="middle" font-size="20" font-weight="700" fill="#f3f8ff">Run</text><text x="831" y="293" text-anchor="middle" font-size="14" font-weight="700" fill="#b8cce2">telemetria / resposta</text><rect x="963" y="220" width="200" height="155" rx="18" fill="#0a2142" stroke="#a47bff" stroke-width="3"/><text x="1063" y="263" text-anchor="middle" font-size="20" font-weight="700" fill="#f3f8ff">Retirada</text><text x="1063" y="293" text-anchor="middle" font-size="14" font-weight="700" fill="#b8cce2">inventário / remoção</text><path d="M235 297L262 297" stroke="#5ce8d4" stroke-width="4" marker-end="url(#a)"/><path d="M467 297L494 297" stroke="#5ce8d4" stroke-width="4" marker-end="url(#a)"/><path d="M699 297L726 297" stroke="#5ce8d4" stroke-width="4" marker-end="url(#a)"/><path d="M931 297L958 297" stroke="#5ce8d4" stroke-width="4" marker-end="url(#a)"/></g></svg>