<svg xmlns="http://www.w3.org/2000/svg" viewBox="0 0 1200 620" role="img" aria-label="Ciclo de vida corporativo de una API Key"><defs><linearGradient id="g" x1="0" x2="1"><stop stop-color="#bc78ff"/><stop offset=".5" stop-color="#27d8ff"/><stop offset="1" stop-color="#35f2c1"/></linearGradient><filter id="glow"><feGaussianBlur stdDeviation="5" result="b"/><feMerge><feMergeNode in="b"/><feMergeNode in="SourceGraphic"/></feMerge></filter><marker id="arrow" viewBox="0 0 10 10" refX="9" refY="5" markerWidth="7" markerHeight="7" orient="auto-start-reverse"><path d="M0 0L10 5L0 10Z" fill="context-stroke"/></marker></defs><rect width="1200" height="620" rx="28" fill="#070d22"/><path d="M0 95H1200M0 548H1200" stroke="#28416e" opacity=".35"/><text x="60" y="68" fill="#eff7ff" font-family="Inter,Arial,sans-serif" font-size="30" font-weight="700">Ciclo de vida corporativo de una API Key</text><rect x="25" y="155" width="170" height="180" rx="19" fill="#0d1732" stroke="#27d8ff" stroke-width="2"/><circle cx="110" cy="195" r="12" fill="#27d8ff" filter="url(#glow)"/><text x="110" y="240" text-anchor="middle" fill="#27d8ff" font-family="Inter,Arial,sans-serif" font-size="19" font-weight="750">Emitir</text><text x="110" y="280" text-anchor="middle" fill="#a9bbd1" font-family="Inter,Arial,sans-serif" font-size="16" font-weight="500"><tspan x="110" dy="0">entropía y</tspan><tspan x="110" dy="20.8">owner</tspan></text><path d="M195 245L220 245" fill="none" stroke="#27d8ff" stroke-width="4" marker-end="url(#arrow)" filter="url(#glow)"/><rect x="220" y="155" width="170" height="180" rx="19" fill="#0d1732" stroke="#bc78ff" stroke-width="2"/><circle cx="305" cy="195" r="12" fill="#bc78ff" filter="url(#glow)"/><text x="305" y="240" text-anchor="middle" fill="#bc78ff" font-family="Inter,Arial,sans-serif" font-size="19" font-weight="750">Distribuir</text><text x="305" y="280" text-anchor="middle" fill="#a9bbd1" font-family="Inter,Arial,sans-serif" font-size="16" font-weight="500"><tspan x="305" dy="0">canal seguro</tspan></text><path d="M390 245L415 245" fill="none" stroke="#bc78ff" stroke-width="4" marker-end="url(#arrow)" filter="url(#glow)"/><rect x="415" y="155" width="170" height="180" rx="19" fill="#0d1732" stroke="#ffbd59" stroke-width="2"/><circle cx="500" cy="195" r="12" fill="#ffbd59" filter="url(#glow)"/><text x="500" y="240" text-anchor="middle" fill="#ffbd59" font-family="Inter,Arial,sans-serif" font-size="19" font-weight="750">Usar</text><text x="500" y="280" text-anchor="middle" fill="#a9bbd1" font-family="Inter,Arial,sans-serif" font-size="16" font-weight="500"><tspan x="500" dy="0">header + TLS</tspan></text><path d="M585 245L610 245" fill="none" stroke="#ffbd59" stroke-width="4" marker-end="url(#arrow)" filter="url(#glow)"/><rect x="610" y="155" width="170" height="180" rx="19" fill="#0d1732" stroke="#35f2c1" stroke-width="2"/><circle cx="695" cy="195" r="12" fill="#35f2c1" filter="url(#glow)"/><text x="695" y="240" text-anchor="middle" fill="#35f2c1" font-family="Inter,Arial,sans-serif" font-size="19" font-weight="750">Observar</text><text x="695" y="280" text-anchor="middle" fill="#a9bbd1" font-family="Inter,Arial,sans-serif" font-size="16" font-weight="500"><tspan x="695" dy="0">quota y</tspan><tspan x="695" dy="20.8">anomalía</tspan></text><path d="M780 245L805 245" fill="none" stroke="#35f2c1" stroke-width="4" marker-end="url(#arrow)" filter="url(#glow)"/><rect x="805" y="155" width="170" height="180" rx="19" fill="#0d1732" stroke="#bc78ff" stroke-width="2"/><circle cx="890" cy="195" r="12" fill="#bc78ff" filter="url(#glow)"/><text x="890" y="240" text-anchor="middle" fill="#bc78ff" font-family="Inter,Arial,sans-serif" font-size="19" font-weight="750">Rotar</text><text x="890" y="280" text-anchor="middle" fill="#a9bbd1" font-family="Inter,Arial,sans-serif" font-size="16" font-weight="500"><tspan x="890" dy="0">dos claves</tspan><tspan x="890" dy="20.8">temporalmente</tspan></text><path d="M975 245L1000 245" fill="none" stroke="#bc78ff" stroke-width="4" marker-end="url(#arrow)" filter="url(#glow)"/><rect x="1000" y="155" width="170" height="180" rx="19" fill="#0d1732" stroke="#ff6f91" stroke-width="2"/><circle cx="1085" cy="195" r="12" fill="#ff6f91" filter="url(#glow)"/><text x="1085" y="240" text-anchor="middle" fill="#ff6f91" font-family="Inter,Arial,sans-serif" font-size="19" font-weight="750">Revocar</text><text x="1085" y="280" text-anchor="middle" fill="#a9bbd1" font-family="Inter,Arial,sans-serif" font-size="16" font-weight="500"><tspan x="1085" dy="0">bloqueo y</tspan><tspan x="1085" dy="20.8">evidencia</tspan></text><rect x="100" y="410" width="1000" height="100" rx="19" fill="#0d1732" stroke="url(#g)" stroke-width="2"/><text x="600" y="452" text-anchor="middle" fill="#eff7ff" font-family="Inter,Arial,sans-serif" font-size="20" font-weight="600"><tspan x="600" dy="0">La clave es un activo gestionado: owner, entorno, scope, expiración, estado,</tspan><tspan x="600" dy="26">historial y respuesta a incidentes.</tspan></text></svg>