<svg xmlns="http://www.w3.org/2000/svg" viewBox="0 0 1200 620" role="img" aria-label="Three models, three complementary semantics"><defs><linearGradient id="g" x1="0" x2="1"><stop stop-color="#bc78ff"/><stop offset=".5" stop-color="#35f2c1"/><stop offset="1" stop-color="#ffbd59"/></linearGradient><filter id="glow"><feGaussianBlur stdDeviation="5" result="b"/><feMerge><feMergeNode in="b"/><feMergeNode in="SourceGraphic"/></feMerge></filter><marker id="arrow" viewBox="0 0 10 10" refX="9" refY="5" markerWidth="7" markerHeight="7" orient="auto-start-reverse"><path d="M0 0L10 5L0 10Z" fill="context-stroke"/></marker></defs><rect width="1200" height="620" rx="28" fill="#070d22"/><path d="M0 95H1200M0 540H1200" stroke="#28416e" opacity=".35"/><text x="60" y="68" fill="#eff7ff" font-family="Inter,Arial,sans-serif" font-size="30" font-weight="700">Three models, three complementary semantics</text><rect x="55" y="130" width="310" height="170" rx="20" fill="#0d1732" stroke="#bc78ff" stroke-width="2"/><circle cx="210" cy="165" r="13" fill="#bc78ff" filter="url(#glow)"/><text x="210" y="210" text-anchor="middle" fill="#eff7ff" font-family="Inter,Arial,sans-serif" font-size="22" font-weight="700"><tspan x="210" dy="0">GraphQL</tspan><tspan x="210" dy="34">On-demand queries</tspan><tspan x="210" dy="34">schema + resolvers</tspan></text><rect x="445" y="130" width="310" height="170" rx="20" fill="#0d1732" stroke="#35f2c1" stroke-width="2"/><circle cx="600" cy="165" r="13" fill="#35f2c1" filter="url(#glow)"/><text x="600" y="210" text-anchor="middle" fill="#eff7ff" font-family="Inter,Arial,sans-serif" font-size="22" font-weight="700"><tspan x="600" dy="0">gRPC</tspan><tspan x="600" dy="34">Typed RPC</tspan><tspan x="600" dy="34">Protobuf + streaming</tspan></text><rect x="835" y="130" width="310" height="170" rx="20" fill="#0d1732" stroke="#ffbd59" stroke-width="2"/><circle cx="990" cy="165" r="13" fill="#ffbd59" filter="url(#glow)"/><text x="990" y="210" text-anchor="middle" fill="#eff7ff" font-family="Inter,Arial,sans-serif" font-size="22" font-weight="700"><tspan x="990" dy="0">WebSocket</tspan><tspan x="990" dy="34">Persistent channel</tspan><tspan x="990" dy="34">full-duplex events</tspan></text><path d="M210 315L500 390" fill="none" stroke="#bc78ff" stroke-width="4" marker-end="url(#arrow)" filter="url(#glow)"/><path d="M600 315L600 390" fill="none" stroke="#35f2c1" stroke-width="4" marker-end="url(#arrow)" filter="url(#glow)"/><path d="M990 315L700 390" fill="none" stroke="#ffbd59" stroke-width="4" marker-end="url(#arrow)" filter="url(#glow)"/><rect x="390" y="385" width="420" height="115" rx="20" fill="#0d1732" stroke="url(#g)" stroke-width="2"/><text x="600" y="432" text-anchor="middle" fill="#eff7ff" font-family="Inter,Arial,sans-serif" font-size="27" font-weight="700">Enterprise architecture</text><text x="600" y="475" text-anchor="middle" fill="#a9bbd1" font-family="Inter,Arial,sans-serif" font-size="17" font-weight="500">Data model • coupling • latency • streaming • governance</text></svg>