<svg xmlns="http://www.w3.org/2000/svg" viewBox="0 0 1200 620"><defs><linearGradient id="b" x2="1" y2="1"><stop stop-color="#031426"/><stop offset="1" stop-color="#190b35"/></linearGradient><marker id="a" markerWidth="10" markerHeight="10" refX="8" refY="3" orient="auto"><path d="M0 0L9 3L0 6Z" fill="#5ce8d4"/></marker></defs><rect width="1200" height="620" rx="34" fill="url(#b)"/><g font-family="Inter,Segoe UI,sans-serif"><rect x="25" y="225" width="205" height="165" rx="20" fill="#0a2142" stroke="#5ce8d4" stroke-width="3"/><text x="127.5" y="274" text-anchor="middle" font-size="22" font-weight="700" fill="#f4f8ff">Contrato</text><text x="127.5" y="307" text-anchor="middle" font-size="15" font-weight="700" fill="#b8cce2">baseline publicada</text><rect x="260" y="225" width="205" height="165" rx="20" fill="#0a2142" stroke="#5ce8d4" stroke-width="3"/><text x="362.5" y="274" text-anchor="middle" font-size="22" font-weight="700" fill="#f4f8ff">Cambio</text><text x="362.5" y="307" text-anchor="middle" font-size="15" font-weight="700" fill="#b8cce2">análisis de impacto</text><rect x="495" y="225" width="205" height="165" rx="20" fill="#0a2142" stroke="#9be47a" stroke-width="3"/><text x="597.5" y="274" text-anchor="middle" font-size="22" font-weight="700" fill="#f4f8ff">Coexistencia</text><text x="597.5" y="307" text-anchor="middle" font-size="15" font-weight="700" fill="#b8cce2">versiones en paralelo</text><rect x="730" y="225" width="205" height="165" rx="20" fill="#0a2142" stroke="#ffbd59" stroke-width="3"/><text x="832.5" y="274" text-anchor="middle" font-size="22" font-weight="700" fill="#f4f8ff">Deprecación</text><text x="832.5" y="307" text-anchor="middle" font-size="15" font-weight="700" fill="#b8cce2">plazo y migración</text><rect x="965" y="225" width="205" height="165" rx="20" fill="#0a2142" stroke="#ff718d" stroke-width="3"/><text x="1067.5" y="274" text-anchor="middle" font-size="22" font-weight="700" fill="#f4f8ff">Retirada</text><text x="1067.5" y="307" text-anchor="middle" font-size="15" font-weight="700" fill="#b8cce2">cierre seguro</text><path d="M230 307L260 307" stroke="#5ce8d4" stroke-width="4" marker-end="url(#a)"/><path d="M465 307L495 307" stroke="#5ce8d4" stroke-width="4" marker-end="url(#a)"/><path d="M700 307L730 307" stroke="#5ce8d4" stroke-width="4" marker-end="url(#a)"/><path d="M935 307L965 307" stroke="#5ce8d4" stroke-width="4" marker-end="url(#a)"/></g></svg>