<svg xmlns="http://www.w3.org/2000/svg" viewBox="0 0 1200 620"><defs><linearGradient id="bg" x2="1" y2="1"><stop stop-color="#031426"/><stop offset="1" stop-color="#190b35"/></linearGradient><marker id="arrow" markerWidth="10" markerHeight="10" refX="8" refY="3" orient="auto"><path d="M0 0L9 3L0 6Z" fill="#5ce8d4"/></marker></defs><rect width="1200" height="620" rx="34" fill="url(#bg)"/><g font-family="Inter,Segoe UI,sans-serif"><rect x="30" y="220" width="220" height="160" rx="20" fill="#0a2142" stroke="#5ce8d4" stroke-width="3"/><text x="140" y="268" text-anchor="middle" font-size="21" font-weight="700" fill="#f4f8ff">Aplicaciones / agentes</text><text x="140" y="300" text-anchor="middle" font-size="14" font-weight="700" fill="#b8cce2">OTLP · Prometheus · logs</text><path d="M250 300L335 300" stroke="#5ce8d4" stroke-width="4" marker-end="url(#arrow)"/><rect x="335" y="220" width="220" height="160" rx="20" fill="#0a2142" stroke="#5ce8d4" stroke-width="3"/><text x="445" y="268" text-anchor="middle" font-size="21" font-weight="700" fill="#f4f8ff">Receivers</text><text x="445" y="300" text-anchor="middle" font-size="14" font-weight="700" fill="#b8cce2">entrada y decodificación</text><path d="M555 300L640 300" stroke="#5ce8d4" stroke-width="4" marker-end="url(#arrow)"/><rect x="640" y="220" width="220" height="160" rx="20" fill="#0a2142" stroke="#a47bff" stroke-width="3"/><text x="750" y="268" text-anchor="middle" font-size="21" font-weight="700" fill="#f4f8ff">Processors</text><text x="750" y="300" text-anchor="middle" font-size="14" font-weight="700" fill="#b8cce2">batch, filtro, memoria</text><path d="M860 300L945 300" stroke="#5ce8d4" stroke-width="4" marker-end="url(#arrow)"/><rect x="945" y="220" width="220" height="160" rx="20" fill="#0a2142" stroke="#9be47a" stroke-width="3"/><text x="1055" y="268" text-anchor="middle" font-size="21" font-weight="700" fill="#f4f8ff">Exporters</text><text x="1055" y="300" text-anchor="middle" font-size="14" font-weight="700" fill="#b8cce2">backends y colas</text><text x="600" y="110" text-anchor="middle" font-size="30" font-weight="700" fill="#70ddff">OpenTelemetry Collector</text></g></svg>