<svg xmlns="http://www.w3.org/2000/svg" viewBox="0 0 1280 520" role="img" font-family="Inter, Segoe UI, Arial, sans-serif"><defs><linearGradient id="bg" x2="1" y2="1"><stop stop-color="#071225"/><stop offset="1" stop-color="#11103a"/></linearGradient><linearGradient id="card" x2="1" y2="1"><stop stop-color="#102849"/><stop offset="1" stop-color="#251d55"/></linearGradient><marker id="arrow" viewBox="0 0 10 10" refX="9" refY="5" markerWidth="7" markerHeight="7" orient="auto-start-reverse"><path d="M 0 0 L 10 5 L 0 10 z" fill="#35d9ff"/></marker><filter id="glow"><feGaussianBlur stdDeviation="8" result="b"/><feMerge><feMergeNode in="b"/><feMergeNode in="SourceGraphic"/></feMerge></filter></defs><rect width="1280" height="520" rx="26" fill="url(#bg)"/><path d="M0 430 C260 350 420 520 700 420 S1050 350 1280 430" fill="none" stroke="#173b66" stroke-width="2"/><path d="M 343 104.66666666666666 L 359 104.66666666666666" stroke="#35d9ff" stroke-width="3" marker-end="url(#arrow)"/><path d="M 631 104.66666666666666 L 647 104.66666666666666" stroke="#35d9ff" stroke-width="3" marker-end="url(#arrow)"/><path d="M 919 104.66666666666666 L 935 104.66666666666666" stroke="#35d9ff" stroke-width="3" marker-end="url(#arrow)"/><path d="M 1072 164.33333333333331 C 1072 139.66666666666666, 208 225, 208 198.33333333333334" stroke="#6c7cff" fill="none" stroke-width="3" marker-end="url(#arrow)"/><path d="M 343 260 L 359 260" stroke="#35d9ff" stroke-width="3" marker-end="url(#arrow)"/><path d="M 631 260 L 647 260" stroke="#35d9ff" stroke-width="3" marker-end="url(#arrow)"/><path d="M 919 260 L 935 260" stroke="#35d9ff" stroke-width="3" marker-end="url(#arrow)"/><path d="M 1072 319.6666666666667 C 1072 295, 208 380.3333333333333, 208 353.66666666666663" stroke="#6c7cff" fill="none" stroke-width="3" marker-end="url(#arrow)"/><g><rect x="78" y="50" width="260" height="109.33333333333333" rx="18" fill="url(#card)" stroke="#34e7ff" stroke-width="2"/><text x="208" y="104.66666666666666" text-anchor="middle" fill="#eef8ff" font-size="22" font-weight="650">Falha de certificado</text></g><g><rect x="366" y="50" width="260" height="109.33333333333333" rx="18" fill="url(#card)" stroke="#8b7cff" stroke-width="2"/><text x="496" y="104.66666666666666" text-anchor="middle" fill="#eef8ff" font-size="22" font-weight="650">Tempo</text></g><g><rect x="654" y="50" width="260" height="109.33333333333333" rx="18" fill="url(#card)" stroke="#8b7cff" stroke-width="2"/><text x="784" y="104.66666666666666" text-anchor="middle" fill="#eef8ff" font-size="22" font-weight="650">Identidade</text></g><g><rect x="942" y="50" width="260" height="109.33333333333333" rx="18" fill="url(#card)" stroke="#8b7cff" stroke-width="2"/><text x="1072" y="104.66666666666666" text-anchor="middle" fill="#eef8ff" font-size="22" font-weight="650">Cadeia</text></g><g><rect x="78" y="205.33333333333331" width="260" height="109.33333333333333" rx="18" fill="url(#card)" stroke="#8b7cff" stroke-width="2"/><text x="208" y="260" text-anchor="middle" fill="#eef8ff" font-size="22" font-weight="650">Uso / revogação</text></g><g><rect x="366" y="205.33333333333331" width="260" height="109.33333333333333" rx="18" fill="url(#card)" stroke="#8b7cff" stroke-width="2"/><text x="496" y="260" text-anchor="middle" fill="#eef8ff" font-size="22" font-weight="650">notBefore / notAfter</text></g><g><rect x="654" y="205.33333333333331" width="260" height="109.33333333333333" rx="18" fill="url(#card)" stroke="#8b7cff" stroke-width="2"/><text x="784" y="260" text-anchor="middle" fill="#eef8ff" font-size="22" font-weight="650">SAN / SNI</text></g><g><rect x="942" y="205.33333333333331" width="260" height="109.33333333333333" rx="18" fill="url(#card)" stroke="#8b7cff" stroke-width="2"/><text x="1072" y="260" text-anchor="middle" fill="#eef8ff" font-size="22" font-weight="650">CA / intermediária</text></g><g><rect x="78" y="360.66666666666663" width="260" height="109.33333333333333" rx="18" fill="url(#card)" stroke="#8b7cff" stroke-width="2"/><text x="208" y="415.3333333333333" text-anchor="middle" fill="#eef8ff" font-size="22" font-weight="650">KU / EKU / CRL / OCSP</text></g></svg>