<svg xmlns="http://www.w3.org/2000/svg" viewBox="0 0 1280 520" role="img" font-family="Inter, Segoe UI, Arial, sans-serif"><defs><linearGradient id="bg" x2="1" y2="1"><stop stop-color="#071225"/><stop offset="1" stop-color="#11103a"/></linearGradient><linearGradient id="card" x2="1" y2="1"><stop stop-color="#102849"/><stop offset="1" stop-color="#251d55"/></linearGradient><marker id="arrow" viewBox="0 0 10 10" refX="9" refY="5" markerWidth="7" markerHeight="7" orient="auto-start-reverse"><path d="M 0 0 L 10 5 L 0 10 z" fill="#35d9ff"/></marker><filter id="glow"><feGaussianBlur stdDeviation="8" result="b"/><feMerge><feMergeNode in="b"/><feMergeNode in="SourceGraphic"/></feMerge></filter></defs><rect width="1280" height="520" rx="26" fill="url(#bg)"/><path d="M0 430 C260 350 420 520 700 420 S1050 350 1280 430" fill="none" stroke="#173b66" stroke-width="2"/><path d="M 343 181 L 359 181" stroke="#35d9ff" stroke-width="3" marker-end="url(#arrow)"/><path d="M 631 181 L 647 181" stroke="#35d9ff" stroke-width="3" marker-end="url(#arrow)"/><path d="M 919 181 L 935 181" stroke="#35d9ff" stroke-width="3" marker-end="url(#arrow)"/><path d="M 1072 242 C 1072 216, 208 304, 208 276" stroke="#6c7cff" fill="none" stroke-width="3" marker-end="url(#arrow)"/><g><rect x="78" y="125" width="260" height="112" rx="18" fill="url(#card)" stroke="#34e7ff" stroke-width="2"/><text x="208" y="167" text-anchor="middle" fill="#eef8ff" font-size="22" font-weight="650">Identidade + chave</text><text x="208" y="195" text-anchor="middle" fill="#eef8ff" font-size="22" font-weight="650">pública</text></g><g><rect x="366" y="125" width="260" height="112" rx="18" fill="url(#card)" stroke="#8b7cff" stroke-width="2"/><text x="496" y="181" text-anchor="middle" fill="#eef8ff" font-size="22" font-weight="650">Emissão</text></g><g><rect x="654" y="125" width="260" height="112" rx="18" fill="url(#card)" stroke="#8b7cff" stroke-width="2"/><text x="784" y="181" text-anchor="middle" fill="#eef8ff" font-size="22" font-weight="650">Validação</text></g><g><rect x="942" y="125" width="260" height="112" rx="18" fill="url(#card)" stroke="#8b7cff" stroke-width="2"/><text x="1072" y="181" text-anchor="middle" fill="#eef8ff" font-size="22" font-weight="650">Revogação</text></g><g><rect x="78" y="283" width="260" height="112" rx="18" fill="url(#card)" stroke="#8b7cff" stroke-width="2"/><text x="208" y="339" text-anchor="middle" fill="#eef8ff" font-size="22" font-weight="650">Automação</text></g></svg>