<svg xmlns="http://www.w3.org/2000/svg" width="1400" height="780" viewBox="0 0 1400 780" role="img" aria-labelledby="title desc"><title id="title">Entradas e saídas de um esquema AEAD</title><desc id="desc">Confidencialidade e integridade são produzidas na mesma operação.</desc><defs><linearGradient id="bg" x1="0" y1="0" x2="1" y2="1"><stop stop-color="#020617"/><stop offset=".55" stop-color="#071827"/><stop offset="1" stop-color="#171044"/></linearGradient><linearGradient id="card0"><stop stop-color="#082f49"/><stop offset="1" stop-color="#111827"/></linearGradient><linearGradient id="card1"><stop stop-color="#172554"/><stop offset="1" stop-color="#111827"/></linearGradient><linearGradient id="card2"><stop stop-color="#2e1065"/><stop offset="1" stop-color="#111827"/></linearGradient><marker id="arrow" markerWidth="9" markerHeight="9" refX="8" refY="3" orient="auto"><path d="M0,0 L0,6 L9,3 z" fill="#67e8f9"/></marker><pattern id="grid" width="42" height="42" patternUnits="userSpaceOnUse"><path d="M42 0H0V42" fill="none" stroke="#2563eb" opacity=".13"/></pattern></defs><rect width="1400" height="780" rx="28" fill="url(#bg)"/><rect width="1400" height="780" rx="28" fill="url(#grid)"/><circle cx="152" cy="110" r="115" fill="#06b6d4" opacity=".08"/><circle cx="1245" cy="652" r="175" fill="#8b5cf6" opacity=".09"/><text x="700" y="80" fill="#f8fafc" font-family="Inter,Segoe UI,Arial,sans-serif" font-size="40" font-weight="800" text-anchor="middle"><tspan x="700" dy="0">Entradas e saídas de um esquema AEAD</tspan></text><text x="700" y="138" fill="#93c5fd" font-family="Inter,Segoe UI,Arial,sans-serif" font-size="22" font-weight="500" text-anchor="middle"><tspan x="700" dy="0">Confidencialidade e integridade são produzidas na mesma operação.</tspan></text><g><rect x="58" y="252" width="204" height="370" rx="24" fill="url(#card0)" stroke="#22d3ee" stroke-width="2.5"/><rect x="72" y="268" width="176" height="7" rx="4" fill="#22d3ee"/><text x="160" y="322" fill="#f8fafc" font-family="Inter,Segoe UI,Arial,sans-serif" font-size="19" font-weight="760" text-anchor="middle"><tspan x="160" dy="0">Texto claro</tspan></text><text x="160" y="376.42" fill="#cbd5e1" font-family="Inter,Segoe UI,Arial,sans-serif" font-size="16" font-weight="500" text-anchor="middle"><tspan x="160" dy="0">Dados a proteger</tspan></text><path d="M 264 437 H 271" stroke="#67e8f9" stroke-width="3" marker-end="url(#arrow)" opacity=".68"/></g><g><rect x="274" y="252" width="204" height="370" rx="24" fill="url(#card1)" stroke="#60a5fa" stroke-width="2.5"/><rect x="288" y="268" width="176" height="7" rx="4" fill="#60a5fa"/><text x="376" y="322" fill="#f8fafc" font-family="Inter,Segoe UI,Arial,sans-serif" font-size="19" font-weight="760" text-anchor="middle"><tspan x="376" dy="0">AAD</tspan></text><text x="376" y="376.42" fill="#cbd5e1" font-family="Inter,Segoe UI,Arial,sans-serif" font-size="16" font-weight="500" text-anchor="middle"><tspan x="376" dy="0">Metadados</tspan><tspan x="376" dy="19.68">autenticados</tspan></text><path d="M 480 437 H 487" stroke="#67e8f9" stroke-width="3" marker-end="url(#arrow)" opacity=".68"/></g><g><rect x="490" y="252" width="204" height="370" rx="24" fill="url(#card2)" stroke="#a78bfa" stroke-width="2.5"/><rect x="504" y="268" width="176" height="7" rx="4" fill="#a78bfa"/><text x="592" y="322" fill="#f8fafc" font-family="Inter,Segoe UI,Arial,sans-serif" font-size="19" font-weight="760" text-anchor="middle"><tspan x="592" dy="0">Nonce único</tspan></text><text x="592" y="376.42" fill="#cbd5e1" font-family="Inter,Segoe UI,Arial,sans-serif" font-size="16" font-weight="500" text-anchor="middle"><tspan x="592" dy="0">Nunca reutilizar</tspan></text><path d="M 696 437 H 703" stroke="#67e8f9" stroke-width="3" marker-end="url(#arrow)" opacity=".68"/></g><g><rect x="706" y="252" width="204" height="370" rx="24" fill="url(#card0)" stroke="#34d399" stroke-width="2.5"/><rect x="720" y="268" width="176" height="7" rx="4" fill="#34d399"/><text x="808" y="322" fill="#f8fafc" font-family="Inter,Segoe UI,Arial,sans-serif" font-size="19" font-weight="760" text-anchor="middle"><tspan x="808" dy="0">Chave secreta</tspan></text><text x="808" y="376.42" fill="#cbd5e1" font-family="Inter,Segoe UI,Arial,sans-serif" font-size="16" font-weight="500" text-anchor="middle"><tspan x="808" dy="0">Material protegido</tspan></text><path d="M 912 437 H 919" stroke="#67e8f9" stroke-width="3" marker-end="url(#arrow)" opacity=".68"/></g><g><rect x="922" y="252" width="204" height="370" rx="24" fill="url(#card1)" stroke="#818cf8" stroke-width="2.5"/><rect x="936" y="268" width="176" height="7" rx="4" fill="#818cf8"/><text x="1024" y="322" fill="#f8fafc" font-family="Inter,Segoe UI,Arial,sans-serif" font-size="19" font-weight="760" text-anchor="middle"><tspan x="1024" dy="0">AEAD</tspan></text><text x="1024" y="376.42" fill="#cbd5e1" font-family="Inter,Segoe UI,Arial,sans-serif" font-size="16" font-weight="500" text-anchor="middle"><tspan x="1024" dy="0">AES-GCM ou</tspan><tspan x="1024" dy="19.68">ChaCha20-Poly1305</tspan></text><path d="M 1128 437 H 1135" stroke="#67e8f9" stroke-width="3" marker-end="url(#arrow)" opacity=".68"/></g><g><rect x="1138" y="252" width="204" height="370" rx="24" fill="url(#card2)" stroke="#38bdf8" stroke-width="2.5"/><rect x="1152" y="268" width="176" height="7" rx="4" fill="#38bdf8"/><text x="1240" y="322" fill="#f8fafc" font-family="Inter,Segoe UI,Arial,sans-serif" font-size="19" font-weight="760" text-anchor="middle"><tspan x="1240" dy="0">Saída</tspan></text><text x="1240" y="376.42" fill="#cbd5e1" font-family="Inter,Segoe UI,Arial,sans-serif" font-size="16" font-weight="500" text-anchor="middle"><tspan x="1240" dy="0">Texto cifrado + tag</tspan></text></g><path d="M65 687 H1335" stroke="#334155"/><text x="65" y="730" fill="#64748b" font-family="Inter,Segoe UI,Arial,sans-serif" font-size="18">FAAC · 07.05</text></svg>