<svg xmlns="http://www.w3.org/2000/svg" viewBox="0 0 1200 600" role="img"><defs><linearGradient id="bg" x2="1" y2="1"><stop stop-color="#07142b"/><stop offset="1" stop-color="#110b2c"/></linearGradient><filter id="glow"><feGaussianBlur stdDeviation="5" result="b"/><feMerge><feMergeNode in="b"/><feMergeNode in="SourceGraphic"/></feMerge></filter><marker id="arrow" markerWidth="10" markerHeight="10" refX="8" refY="3" orient="auto"><path d="M0 0L9 3L0 6Z" fill="#45e6d2"/></marker></defs><rect width="1200" height="600" rx="34" fill="url(#bg)"/><g font-family="Inter,Segoe UI,sans-serif"><rect x="70" y="95" width="490" height="150" rx="22" fill="#0a1b38" stroke="#45e6d2" stroke-width="2"/><rect x="86" y="111" width="8" height="118" rx="4" fill="#45e6d2"/><text x="315" y="138" text-anchor="middle" font-size="22" font-weight="700" fill="#edf7ff">Data plane</text><text x="315" y="173" text-anchor="middle" font-size="16" font-weight="700" fill="#a8bfd8">Traffic runtime</text><rect x="640" y="95" width="490" height="150" rx="22" fill="#0a1b38" stroke="#a779ff" stroke-width="2"/><rect x="656" y="111" width="8" height="118" rx="4" fill="#a779ff"/><text x="885" y="138" text-anchor="middle" font-size="22" font-weight="700" fill="#edf7ff">Control plane</text><text x="885" y="173" text-anchor="middle" font-size="16" font-weight="700" fill="#a8bfd8">Configuration and publishing</text><rect x="70" y="355" width="490" height="150" rx="22" fill="#0a1b38" stroke="#ffb15c" stroke-width="2"/><rect x="86" y="371" width="8" height="118" rx="4" fill="#ffb15c"/><text x="315" y="398" text-anchor="middle" font-size="22" font-weight="700" fill="#edf7ff">Management plane</text><text x="315" y="433" text-anchor="middle" font-size="16" font-weight="700" fill="#a8bfd8">Governance and operations</text><rect x="640" y="355" width="490" height="150" rx="22" fill="#0a1b38" stroke="#4aa7ff" stroke-width="2"/><rect x="656" y="371" width="8" height="118" rx="4" fill="#4aa7ff"/><text x="885" y="398" text-anchor="middle" font-size="22" font-weight="700" fill="#edf7ff">Developer plane</text><text x="885" y="433" text-anchor="middle" font-size="16" font-weight="700" fill="#a8bfd8">Portal and catalog</text><path d="M560 170 C597.5 170,597.5 170,635 170" fill="none" stroke="#45e6d2" stroke-width="4" marker-end="url(#arrow)" filter="url(#glow)"/><path d="M315 245 C315 245,315 350,315 350" fill="none" stroke="#45e6d2" stroke-width="4" marker-end="url(#arrow)" filter="url(#glow)"/><path d="M885 245 C885 245,885 350,885 350" fill="none" stroke="#45e6d2" stroke-width="4" marker-end="url(#arrow)" filter="url(#glow)"/></g></svg>