<svg xmlns="http://www.w3.org/2000/svg" viewBox="0 0 1200 600" role="img"><defs><linearGradient id="bg" x2="1" y2="1"><stop stop-color="#07142b"/><stop offset="1" stop-color="#110b2c"/></linearGradient><filter id="glow"><feGaussianBlur stdDeviation="5" result="b"/><feMerge><feMergeNode in="b"/><feMergeNode in="SourceGraphic"/></feMerge></filter><marker id="arrow" markerWidth="10" markerHeight="10" refX="8" refY="3" orient="auto"><path d="M0 0L9 3L0 6Z" fill="#45e6d2"/></marker></defs><rect width="1200" height="600" rx="34" fill="url(#bg)"/><g font-family="Inter,Segoe UI,sans-serif"><rect x="55" y="95" width="250" height="410" rx="22" fill="#0a1b38" stroke="#45e6d2" stroke-width="2"/><rect x="71" y="111" width="8" height="378" rx="4" fill="#45e6d2"/><text x="180" y="138" text-anchor="middle" font-size="22" font-weight="700" fill="#edf7ff">Centralized</text><circle cx="180" cy="270" r="42" fill="#132b53" stroke="#45e6d2" stroke-width="3"/><circle cx="130" cy="390" r="24" fill="#1d4070"/><circle cx="180" cy="390" r="24" fill="#1d4070"/><circle cx="230" cy="390" r="24" fill="#1d4070"/><path d="M180 315 C155 315,155 360,130 360" fill="none" stroke="#45e6d2" stroke-width="4" marker-end="url(#arrow)" filter="url(#glow)"/><path d="M180 315 C180 315,180 360,180 360" fill="none" stroke="#45e6d2" stroke-width="4" marker-end="url(#arrow)" filter="url(#glow)"/><path d="M180 315 C205 315,205 360,230 360" fill="none" stroke="#45e6d2" stroke-width="4" marker-end="url(#arrow)" filter="url(#glow)"/><rect x="345" y="95" width="250" height="410" rx="22" fill="#0a1b38" stroke="#a779ff" stroke-width="2"/><rect x="361" y="111" width="8" height="378" rx="4" fill="#a779ff"/><text x="470" y="138" text-anchor="middle" font-size="22" font-weight="700" fill="#edf7ff">By domain</text><circle cx="470" cy="270" r="42" fill="#132b53" stroke="#45e6d2" stroke-width="3"/><circle cx="420" cy="390" r="24" fill="#1d4070"/><circle cx="470" cy="390" r="24" fill="#1d4070"/><circle cx="520" cy="390" r="24" fill="#1d4070"/><path d="M470 315 C445 315,445 360,420 360" fill="none" stroke="#45e6d2" stroke-width="4" marker-end="url(#arrow)" filter="url(#glow)"/><path d="M470 315 C470 315,470 360,470 360" fill="none" stroke="#45e6d2" stroke-width="4" marker-end="url(#arrow)" filter="url(#glow)"/><path d="M470 315 C495 315,495 360,520 360" fill="none" stroke="#45e6d2" stroke-width="4" marker-end="url(#arrow)" filter="url(#glow)"/><rect x="635" y="95" width="250" height="410" rx="22" fill="#0a1b38" stroke="#4aa7ff" stroke-width="2"/><rect x="651" y="111" width="8" height="378" rx="4" fill="#4aa7ff"/><text x="760" y="138" text-anchor="middle" font-size="22" font-weight="700" fill="#edf7ff">Edge + internal</text><circle cx="760" cy="270" r="42" fill="#132b53" stroke="#45e6d2" stroke-width="3"/><circle cx="710" cy="390" r="24" fill="#1d4070"/><circle cx="760" cy="390" r="24" fill="#1d4070"/><circle cx="810" cy="390" r="24" fill="#1d4070"/><path d="M760 315 C735 315,735 360,710 360" fill="none" stroke="#45e6d2" stroke-width="4" marker-end="url(#arrow)" filter="url(#glow)"/><path d="M760 315 C760 315,760 360,760 360" fill="none" stroke="#45e6d2" stroke-width="4" marker-end="url(#arrow)" filter="url(#glow)"/><path d="M760 315 C785 315,785 360,810 360" fill="none" stroke="#45e6d2" stroke-width="4" marker-end="url(#arrow)" filter="url(#glow)"/><rect x="925" y="95" width="250" height="410" rx="22" fill="#0a1b38" stroke="#ffb15c" stroke-width="2"/><rect x="941" y="111" width="8" height="378" rx="4" fill="#ffb15c"/><text x="1050" y="138" text-anchor="middle" font-size="22" font-weight="700" fill="#edf7ff">Hybrid</text><circle cx="1050" cy="270" r="42" fill="#132b53" stroke="#45e6d2" stroke-width="3"/><circle cx="1000" cy="390" r="24" fill="#1d4070"/><circle cx="1050" cy="390" r="24" fill="#1d4070"/><circle cx="1100" cy="390" r="24" fill="#1d4070"/><path d="M1050 315 C1025 315,1025 360,1000 360" fill="none" stroke="#45e6d2" stroke-width="4" marker-end="url(#arrow)" filter="url(#glow)"/><path d="M1050 315 C1050 315,1050 360,1050 360" fill="none" stroke="#45e6d2" stroke-width="4" marker-end="url(#arrow)" filter="url(#glow)"/><path d="M1050 315 C1075 315,1075 360,1100 360" fill="none" stroke="#45e6d2" stroke-width="4" marker-end="url(#arrow)" filter="url(#glow)"/></g></svg>