<svg xmlns="http://www.w3.org/2000/svg" viewBox="0 0 1200 620"><defs><linearGradient id="bg" x2="1" y2="1"><stop stop-color="#031326"/><stop offset="1" stop-color="#1a0a35"/></linearGradient><marker id="a" markerWidth="11" markerHeight="11" refX="9" refY="3" orient="auto"><path d="M0 0L10 3L0 6Z" fill="#5ce8d4"/></marker></defs><rect width="1200" height="620" rx="34" fill="url(#bg)"/><g font-family="Inter,Segoe UI,sans-serif"><rect x="45" y="225" width="230" height="150" rx="22" fill="#0b2142" stroke="#5ce8d4" stroke-width="3"/><text x="160" y="277" text-anchor="middle" font-size="23" font-weight="700" fill="#f4f8ff">Consumidores</text><text x="160" y="313" text-anchor="middle" font-size="15" font-weight="700" fill="#b8cce2">A · B · C</text><path d="M275 300L390 300" stroke="#5ce8d4" stroke-width="5" marker-end="url(#a)"/><rect x="390" y="105" width="260" height="120" rx="22" fill="#0b2142" stroke="#5ce8d4" stroke-width="3"/><text x="520" y="157" text-anchor="middle" font-size="23" font-weight="700" fill="#f4f8ff">Límite local 1</text><text x="520" y="193" text-anchor="middle" font-size="15" font-weight="700" fill="#b8cce2">instancias del gateway</text><rect x="390" y="270" width="260" height="120" rx="22" fill="#0b2142" stroke="#5ce8d4" stroke-width="3"/><text x="520" y="322" text-anchor="middle" font-size="23" font-weight="700" fill="#f4f8ff">Límite local 2</text><text x="520" y="358" text-anchor="middle" font-size="15" font-weight="700" fill="#b8cce2">instancias del gateway</text><rect x="390" y="435" width="260" height="120" rx="22" fill="#0b2142" stroke="#5ce8d4" stroke-width="3"/><text x="520" y="487" text-anchor="middle" font-size="23" font-weight="700" fill="#f4f8ff">Límite local 3</text><text x="520" y="523" text-anchor="middle" font-size="15" font-weight="700" fill="#b8cce2">instancias del gateway</text><path d="M650 165L820 300" stroke="#5ce8d4" stroke-width="5" marker-end="url(#a)"/><path d="M650 330L820 300" stroke="#5ce8d4" stroke-width="5" marker-end="url(#a)"/><path d="M650 495L820 300" stroke="#5ce8d4" stroke-width="5" marker-end="url(#a)"/><rect x="820" y="215" width="330" height="170" rx="22" fill="#0b2142" stroke="#a47bff" stroke-width="3"/><text x="985" y="267" text-anchor="middle" font-size="23" font-weight="700" fill="#f4f8ff">Estado global</text><text x="985" y="303" text-anchor="middle" font-size="15" font-weight="700" fill="#b8cce2">Cuota</text></g></svg>