<svg xmlns="http://www.w3.org/2000/svg" viewBox="0 0 1200 620"><defs><linearGradient id="b"><stop stop-color="#031426"/><stop offset="1" stop-color="#190b35"/></linearGradient><marker id="a" markerWidth="10" markerHeight="10" refX="8" refY="3" orient="auto"><path d="M0 0L9 3L0 6Z" fill="#5ce8d4"/></marker></defs><rect width="1200" height="620" rx="34" fill="url(#b)"/><g font-family="Inter,Segoe UI,sans-serif"><rect x="30" y="225" width="190" height="170" rx="20" fill="#0a2142" stroke="#5ce8d4" stroke-width="3"/><text x="125" y="273" text-anchor="middle" font-size="21" font-weight="700" fill="#f4f8ff">Detect</text><text x="125" y="305" text-anchor="middle" font-size="14" font-weight="700" fill="#b8cce2">signals and impact</text><path d="M220 310L267.5 310" stroke="#5ce8d4" stroke-width="4" marker-end="url(#a)"/><rect x="267.5" y="225" width="190" height="170" rx="20" fill="#0a2142" stroke="#a47bff" stroke-width="3"/><text x="362.5" y="273" text-anchor="middle" font-size="21" font-weight="700" fill="#f4f8ff">Contain</text><text x="362.5" y="305" text-anchor="middle" font-size="14" font-weight="700" fill="#b8cce2">isolate the failure</text><path d="M457.5 310L505 310" stroke="#5ce8d4" stroke-width="4" marker-end="url(#a)"/><rect x="505" y="225" width="190" height="170" rx="20" fill="#0a2142" stroke="#9be47a" stroke-width="3"/><text x="600" y="273" text-anchor="middle" font-size="21" font-weight="700" fill="#f4f8ff">Recover</text><text x="600" y="305" text-anchor="middle" font-size="14" font-weight="700" fill="#b8cce2">restore service</text><path d="M695 310L742.5 310" stroke="#5ce8d4" stroke-width="4" marker-end="url(#a)"/><rect x="742.5" y="225" width="190" height="170" rx="20" fill="#0a2142" stroke="#5ce8d4" stroke-width="3"/><text x="837.5" y="273" text-anchor="middle" font-size="21" font-weight="700" fill="#f4f8ff">Reconcile</text><text x="837.5" y="305" text-anchor="middle" font-size="14" font-weight="700" fill="#b8cce2">correct divergences</text><path d="M932.5 310L980 310" stroke="#5ce8d4" stroke-width="4" marker-end="url(#a)"/><rect x="980" y="225" width="190" height="170" rx="20" fill="#0a2142" stroke="#a47bff" stroke-width="3"/><text x="1075" y="273" text-anchor="middle" font-size="21" font-weight="700" fill="#f4f8ff">Learn</text><text x="1075" y="305" text-anchor="middle" font-size="14" font-weight="700" fill="#b8cce2">improve controls</text></g></svg>