<svg xmlns="http://www.w3.org/2000/svg" viewBox="0 0 1200 620"><defs><linearGradient id="b"><stop stop-color="#031426"/><stop offset="1" stop-color="#190b35"/></linearGradient><marker id="a" markerWidth="10" markerHeight="10" refX="8" refY="3" orient="auto"><path d="M0 0L9 3L0 6Z" fill="#5ce8d4"/></marker></defs><rect width="1200" height="620" rx="34" fill="url(#b)"/><g font-family="Inter,Segoe UI,sans-serif"><rect x="120" y="120" width="420" height="160" rx="20" fill="#0a2142" stroke="#5ce8d4" stroke-width="3"/><text x="330" y="168" text-anchor="middle" font-size="21" font-weight="700" fill="#f4f8ff">Active-active</text><text x="330" y="200" text-anchor="middle" font-size="14" font-weight="700" fill="#b8cce2">two regions serving</text><rect x="660" y="120" width="420" height="160" rx="20" fill="#0a2142" stroke="#a47bff" stroke-width="3"/><text x="870" y="168" text-anchor="middle" font-size="21" font-weight="700" fill="#f4f8ff">Active-passive</text><text x="870" y="200" text-anchor="middle" font-size="14" font-weight="700" fill="#b8cce2">standby ready</text><rect x="170" y="365" width="140" height="110" rx="20" fill="#0a2142" stroke="#5ce8d4" stroke-width="3"/><text x="240" y="413" text-anchor="middle" font-size="21" font-weight="700" fill="#f4f8ff">Region A</text><text x="240" y="445" text-anchor="middle" font-size="14" font-weight="700" fill="#b8cce2">live</text><rect x="350" y="365" width="140" height="110" rx="20" fill="#0a2142" stroke="#5ce8d4" stroke-width="3"/><text x="420" y="413" text-anchor="middle" font-size="21" font-weight="700" fill="#f4f8ff">Region B</text><text x="420" y="445" text-anchor="middle" font-size="14" font-weight="700" fill="#b8cce2">live</text><rect x="710" y="365" width="140" height="110" rx="20" fill="#0a2142" stroke="#a47bff" stroke-width="3"/><text x="780" y="413" text-anchor="middle" font-size="21" font-weight="700" fill="#f4f8ff">Primary</text><text x="780" y="445" text-anchor="middle" font-size="14" font-weight="700" fill="#b8cce2">live</text><rect x="890" y="365" width="140" height="110" rx="20" fill="#0a2142" stroke="#f7b955" stroke-width="3"/><text x="960" y="413" text-anchor="middle" font-size="21" font-weight="700" fill="#f4f8ff">Standby</text><text x="960" y="445" text-anchor="middle" font-size="14" font-weight="700" fill="#b8cce2">ready</text><path d="M540 200L660 200" stroke="#5ce8d4" stroke-width="4" marker-end="url(#a)"/></g></svg>