<svg xmlns="http://www.w3.org/2000/svg" viewBox="0 0 1200 620"><defs><linearGradient id="b" x2="1" y2="1"><stop stop-color="#031426"/><stop offset="1" stop-color="#190b35"/></linearGradient><marker id="a" markerWidth="10" markerHeight="10" refX="8" refY="3" orient="auto"><path d="M0 0L9 3L0 6Z" fill="#5ce8d4"/></marker></defs><rect width="1200" height="620" rx="34" fill="url(#b)"/><g font-family="Inter,Segoe UI,sans-serif"><text x="300" y="100" text-anchor="middle" font-size="27" font-weight="700" fill="#f4f8ff">Síncrono</text><rect x="45" y="215" width="210" height="150" rx="20" fill="#0a2142" stroke="#5ce8d4" stroke-width="3"/><text x="150" y="263" text-anchor="middle" font-size="21" font-weight="700" fill="#f4f8ff">Serviço A</text><path d="M255 290L345 290" stroke="#5ce8d4" stroke-width="4" marker-end="url(#a)"/><rect x="345" y="215" width="210" height="150" rx="20" fill="#0a2142" stroke="#5ce8d4" stroke-width="3"/><text x="450" y="263" text-anchor="middle" font-size="21" font-weight="700" fill="#f4f8ff">Serviço B</text><text x="450" y="295" text-anchor="middle" font-size="14" font-weight="700" fill="#b8cce2">request / response</text><text x="900" y="100" text-anchor="middle" font-size="27" font-weight="700" fill="#f4f8ff">Assíncrono</text><rect x="650" y="215" width="180" height="150" rx="20" fill="#0a2142" stroke="#5ce8d4" stroke-width="3"/><text x="740" y="263" text-anchor="middle" font-size="21" font-weight="700" fill="#f4f8ff">Produtor</text><path d="M830 290L860 290" stroke="#5ce8d4" stroke-width="4" marker-end="url(#a)"/><rect x="860" y="215" width="150" height="150" rx="20" fill="#0a2142" stroke="#a47bff" stroke-width="3"/><text x="935" y="263" text-anchor="middle" font-size="21" font-weight="700" fill="#f4f8ff">Broker</text><path d="M1010 290L1040 290" stroke="#5ce8d4" stroke-width="4" marker-end="url(#a)"/><rect x="1040" y="215" width="130" height="150" rx="20" fill="#0a2142" stroke="#5ce8d4" stroke-width="3"/><text x="1105" y="263" text-anchor="middle" font-size="21" font-weight="700" fill="#f4f8ff">Consumidor</text></g></svg>