<svg xmlns="http://www.w3.org/2000/svg" viewBox="0 0 1200 620" role="img" aria-label="Caminho REST de uma operação corporativa"><defs><linearGradient id="bg" x1="0%" y1="0%" x2="100%" y2="100%"><stop stop-color="#061126"/><stop offset="1" stop-color="#15163d"/></linearGradient><filter id="glow"><feGaussianBlur stdDeviation="3" result="b"/><feMerge><feMergeNode in="b"/><feMergeNode in="SourceGraphic"/></feMerge></filter><marker id="arrow" viewBox="0 0 10 10" refX="9" refY="5" markerWidth="8" markerHeight="8" orient="auto"><path d="M0 0L10 5L0 10Z" fill="#45ddff"/></marker></defs><rect width="1200" height="620" rx="34" fill="url(#bg)"/><path d="M42 102H1158" stroke="#274370" stroke-width="2"/><text x="60" y="69" fill="#f4f8ff" font-family="Inter,Arial,sans-serif" font-size="30" font-weight="700">Caminho REST de uma operação corporativa</text><g><rect x="25" y="250" width="200" height="120" rx="19" fill="#0a1c3b" stroke="#21d4fd" stroke-width="3"/><rect x="34" y="259" width="182" height="102" rx="13" fill="#112653" opacity=".75"/><text x="125" y="302" text-anchor="middle" fill="#f1f7ff" font-family="Inter,Arial,sans-serif" font-size="22" font-weight="700">Consumidor</text><text x="125" y="335" text-anchor="middle" fill="#b9d8f4" font-family="Inter,Arial,sans-serif" font-size="12">representação + intenção</text></g><g><rect x="265" y="250" width="210" height="120" rx="19" fill="#0a1c3b" stroke="#a855f7" stroke-width="3"/><rect x="274" y="259" width="192" height="102" rx="13" fill="#112653" opacity=".75"/><text x="370" y="302" text-anchor="middle" fill="#f1f7ff" font-family="Inter,Arial,sans-serif" font-size="22" font-weight="700">API Gateway</text><text x="370" y="335" text-anchor="middle" fill="#b9d8f4" font-family="Inter,Arial,sans-serif" font-size="15">segurança + políticas</text></g><g><rect x="515" y="230" width="210" height="160" rx="19" fill="#0a1c3b" stroke="#21d4fd" stroke-width="3"/><rect x="524" y="239" width="192" height="142" rx="13" fill="#112653" opacity=".75"/><text x="620" y="302" text-anchor="middle" fill="#f1f7ff" font-family="Inter,Arial,sans-serif" font-size="22" font-weight="700">Recurso REST</text><text x="620" y="335" text-anchor="middle" fill="#b9d8f4" font-family="Inter,Arial,sans-serif" font-size="17">URI + método HTTP</text></g><g><rect x="765" y="250" width="180" height="120" rx="19" fill="#0a1c3b" stroke="#34d399" stroke-width="3"/><rect x="774" y="259" width="162" height="102" rx="13" fill="#112653" opacity=".75"/><text x="855" y="302" text-anchor="middle" fill="#f1f7ff" font-family="Inter,Arial,sans-serif" font-size="22" font-weight="700">Domínio</text><text x="855" y="335" text-anchor="middle" fill="#b9d8f4" font-family="Inter,Arial,sans-serif" font-size="17">regras + estado</text></g><g><rect x="985" y="250" width="190" height="120" rx="19" fill="#0a1c3b" stroke="#fbbf24" stroke-width="3"/><rect x="994" y="259" width="172" height="102" rx="13" fill="#112653" opacity=".75"/><text x="1080" y="302" text-anchor="middle" fill="#f1f7ff" font-family="Inter,Arial,sans-serif" font-size="22" font-weight="700">Persistência</text><text x="1080" y="335" text-anchor="middle" fill="#b9d8f4" font-family="Inter,Arial,sans-serif" font-size="17">dados + eventos</text></g><path d="M225 310L265 310" stroke="#45ddff" stroke-width="5" fill="none" marker-end="url(#arrow)" filter="url(#glow)"/><path d="M475 310L515 310" stroke="#45ddff" stroke-width="5" fill="none" marker-end="url(#arrow)" filter="url(#glow)"/><path d="M725 310L765 310" stroke="#45ddff" stroke-width="5" fill="none" marker-end="url(#arrow)" filter="url(#glow)"/><path d="M945 310L985 310" stroke="#45ddff" stroke-width="5" fill="none" marker-end="url(#arrow)" filter="url(#glow)"/><path d="M605 164l15-25 15 25 29 6-20 22 4 29-28-12-27 12 3-29-20-22z" fill="#21d4fd" opacity=".9"/></svg>