<svg xmlns="http://www.w3.org/2000/svg" viewBox="0 0 1200 620" role="img" aria-label="Reuso com components e $ref"><defs><linearGradient id="g" x1="0" x2="1"><stop stop-color="#26d9ff"/><stop offset="1" stop-color="#a579ff"/></linearGradient><filter id="glow"><feGaussianBlur stdDeviation="5" result="b"/><feMerge><feMergeNode in="b"/><feMergeNode in="SourceGraphic"/></feMerge></filter></defs><rect width="1200" height="620" rx="28" fill="#070d22"/><path d="M0 90H1200M0 530H1200" stroke="#243b69" opacity=".35"/><text x="60" y="72" fill="#edf6ff" font-family="Inter,Arial,sans-serif" font-size="30" font-weight="700">Reuso com components e $ref</text><rect x="40" y="180" width="315" height="165" rx="18" fill="#0d1732" stroke="#26d9ff" stroke-width="2"/><text x="197" y="235" text-anchor="middle" fill="#edf6ff" font-family="Inter,Arial,sans-serif" font-size="18" font-weight="700"><tspan x="197" dy="0">paths./clientes.get.responses.200</tspan></text><text x="197" y="290" text-anchor="middle" fill="#26d9ff" font-family="Inter,Arial,sans-serif" font-size="15" font-weight="500"><tspan x="197" dy="0">$ref:</tspan><tspan x="197" dy="18.75">'#/components/responses/ListaClientes'</tspan></text><path d="M355 262H430" stroke="#26d9ff" stroke-width="4" filter="url(#glow)"/><path d="M423 253L439 262L423 271Z" fill="#26d9ff"/><rect x="445" y="155" width="310" height="215" rx="18" fill="#0d1732" stroke="#a579ff" stroke-width="2"/><text x="600" y="210" text-anchor="middle" fill="#edf6ff" font-family="Inter,Arial,sans-serif" font-size="19" font-weight="700"><tspan x="600" dy="0">components.responses</tspan></text><text x="600" y="258" text-anchor="middle" fill="#a579ff" font-family="Inter,Arial,sans-serif" font-size="23" font-weight="700"><tspan x="600" dy="0">ListaClientes</tspan></text><text x="600" y="310" text-anchor="middle" fill="#9fb3cd" font-family="Inter,Arial,sans-serif" font-size="16" font-weight="500"><tspan x="600" dy="0">schema + headers + exemplos</tspan></text><path d="M755 262H830" stroke="#35f2c1" stroke-width="4" filter="url(#glow)"/><path d="M823 253L839 262L823 271Z" fill="#35f2c1"/><rect x="845" y="180" width="315" height="165" rx="18" fill="#0d1732" stroke="#35f2c1" stroke-width="2"/><text x="1002" y="235" text-anchor="middle" fill="#edf6ff" font-family="Inter,Arial,sans-serif" font-size="20" font-weight="700"><tspan x="1002" dy="0">Schema</tspan></text><text x="1002" y="285" text-anchor="middle" fill="#35f2c1" font-family="Inter,Arial,sans-serif" font-size="25" font-weight="700"><tspan x="1002" dy="0">Cliente</tspan></text><path d="M197 365V470H1002V365" fill="none" stroke="url(#g)" stroke-width="4"/><text x="600" y="510" text-anchor="middle" fill="#9fb3cd" font-family="Inter,Arial,sans-serif" font-size="18">$ref • JSON Pointer • identidade • evolução</text></svg>