<svg xmlns="http://www.w3.org/2000/svg" viewBox="0 0 1200 620" role="img" aria-label="O contrato OpenAPI como eixo da plataforma"><defs><linearGradient id="g" x1="0" x2="1"><stop stop-color="#26d9ff"/><stop offset="1" stop-color="#a579ff"/></linearGradient><filter id="glow"><feGaussianBlur stdDeviation="5" result="b"/><feMerge><feMergeNode in="b"/><feMergeNode in="SourceGraphic"/></feMerge></filter></defs><rect width="1200" height="620" rx="28" fill="#070d22"/><path d="M0 90H1200M0 530H1200" stroke="#243b69" opacity=".35"/><text x="60" y="72" fill="#edf6ff" font-family="Inter,Arial,sans-serif" font-size="30" font-weight="700">O contrato OpenAPI como eixo da plataforma</text><rect x="45" y="135" width="190" height="126" rx="18" fill="#0d1732" stroke="#a579ff" stroke-width="2"/><text x="140" y="175" text-anchor="middle" fill="#edf6ff" font-family="Inter,Arial,sans-serif" font-size="22" font-weight="700"><tspan x="140" dy="0">Design</tspan></text><text x="140" y="215" text-anchor="middle" fill="#9fb3cd" font-family="Inter,Arial,sans-serif" font-size="16" font-weight="500"><tspan x="140" dy="0">recursos e</tspan><tspan x="140" dy="20">jornadas</tspan></text><path d="M235 198H258" stroke="#a579ff" stroke-width="4" filter="url(#glow)"/><path d="M251 189L267 198L251 207Z" fill="#a579ff"/><rect x="273" y="135" width="190" height="126" rx="18" fill="#0d1732" stroke="#26d9ff" stroke-width="2"/><text x="368" y="175" text-anchor="middle" fill="#edf6ff" font-family="Inter,Arial,sans-serif" font-size="22" font-weight="700"><tspan x="368" dy="0">OpenAPI</tspan></text><text x="368" y="215" text-anchor="middle" fill="#9fb3cd" font-family="Inter,Arial,sans-serif" font-size="16" font-weight="500"><tspan x="368" dy="0">contrato OAS</tspan></text><path d="M463 198H486" stroke="#26d9ff" stroke-width="4" filter="url(#glow)"/><path d="M479 189L495 198L479 207Z" fill="#26d9ff"/><rect x="501" y="135" width="190" height="126" rx="18" fill="#0d1732" stroke="#35f2c1" stroke-width="2"/><text x="596" y="175" text-anchor="middle" fill="#edf6ff" font-family="Inter,Arial,sans-serif" font-size="22" font-weight="700"><tspan x="596" dy="0">Qualidade</tspan></text><text x="596" y="215" text-anchor="middle" fill="#9fb3cd" font-family="Inter,Arial,sans-serif" font-size="16" font-weight="500"><tspan x="596" dy="0">lint e testes</tspan></text><path d="M691 198H714" stroke="#35f2c1" stroke-width="4" filter="url(#glow)"/><path d="M707 189L723 198L707 207Z" fill="#35f2c1"/><rect x="729" y="135" width="190" height="126" rx="18" fill="#0d1732" stroke="#ffc861" stroke-width="2"/><text x="824" y="175" text-anchor="middle" fill="#edf6ff" font-family="Inter,Arial,sans-serif" font-size="22" font-weight="700"><tspan x="824" dy="0">Automação</tspan></text><text x="824" y="215" text-anchor="middle" fill="#9fb3cd" font-family="Inter,Arial,sans-serif" font-size="16" font-weight="500"><tspan x="824" dy="0">mock, SDK e</tspan><tspan x="824" dy="20">portal</tspan></text><path d="M919 198H942" stroke="#ffc861" stroke-width="4" filter="url(#glow)"/><path d="M935 189L951 198L935 207Z" fill="#ffc861"/><rect x="957" y="135" width="190" height="126" rx="18" fill="#0d1732" stroke="#67e88c" stroke-width="2"/><text x="1052" y="175" text-anchor="middle" fill="#edf6ff" font-family="Inter,Arial,sans-serif" font-size="22" font-weight="700"><tspan x="1052" dy="0">Execução</tspan></text><text x="1052" y="215" text-anchor="middle" fill="#9fb3cd" font-family="Inter,Arial,sans-serif" font-size="16" font-weight="500"><tspan x="1052" dy="0">gateway e backend</tspan></text><path d="M140 285V350H1060V285" fill="none" stroke="url(#g)" stroke-width="4" filter="url(#glow)"/><rect x="220" y="350" width="760" height="155" rx="18" fill="#0d1732" stroke="#35f2c1" stroke-width="2"/><text x="600" y="405" text-anchor="middle" fill="#35f2c1" font-family="Inter,Arial,sans-serif" font-size="28" font-weight="700"><tspan x="600" dy="0">Contrato executável</tspan></text><text x="600" y="455" text-anchor="middle" fill="#edf6ff" font-family="Inter,Arial,sans-serif" font-size="19" font-weight="500"><tspan x="600" dy="0">documentação • validação • segurança • compatibilidade •</tspan><tspan x="600" dy="23.75">publicação</tspan></text></svg>