<svg xmlns="http://www.w3.org/2000/svg" viewBox="0 0 1400 780" role="img" aria-label="PAT/NAPT: stateful translation"><defs><linearGradient id="bg" x2="1" y2="1"><stop stop-color="#071a34"/><stop offset="1" stop-color="#030817"/></linearGradient><marker id="arrow" markerWidth="12" markerHeight="12" refX="10" refY="6" orient="auto"><path d="M0 0L12 6L0 12z" fill="#65e8ff"/></marker><style>text{font-family:Inter,Segoe UI,Arial,sans-serif;fill:#e5f4ff}.title{font-size:34px;font-weight:800}.cardTitle{font-size:23px;font-weight:800}.label{font-size:22px;font-weight:750}.small{font-size:17px;font-weight:600;fill:#b7d0e3}.card{fill:#081b35;stroke-width:2}.c0{stroke:#00d8ff}.c1{stroke:#9b6cff}.c2{stroke:#00ffd1}.c3{stroke:#ffb84d}.c4{stroke:#ff5cab}.arrow{fill:none;stroke:#65e8ff;stroke-width:4}.track{fill:none;stroke:#376e9d;stroke-width:4}</style></defs><rect width="1400" height="780" rx="30" fill="url(#bg)"/><text x="55" y="62" class="title" text-anchor="start">PAT/NAPT: stateful translation</text><g><rect x="70" y="150" width="270" height="125" rx="20" class="card c0"/><text x="205" y="192" class="cardTitle" text-anchor="middle"><tspan x="205" dy="0">Gateway A</tspan></text><text x="205" y="228" class="small" text-anchor="middle"><tspan x="205" dy="0">10.1.1.10:52001</tspan></text></g><g><rect x="70" y="500" width="270" height="125" rx="20" class="card c0"/><text x="205" y="542" class="cardTitle" text-anchor="middle"><tspan x="205" dy="0">Gateway B</tspan></text><text x="205" y="578" class="small" text-anchor="middle"><tspan x="205" dy="0">10.1.1.11:52001</tspan></text></g><g><rect x="500" y="235" width="520" height="300" rx="20" class="card c3"/><text x="760" y="277" class="cardTitle" text-anchor="middle"><tspan x="760" dy="0">NAT device</tspan></text><text x="760" y="313" class="small" text-anchor="middle"><tspan x="760" dy="0">10.1.1.10:52001 -&gt; 203.0.113.8:40001</tspan><tspan x="760" dy="25">10.1.1.11:52001 -&gt; 203.0.113.8:40002</tspan></text></g><g><rect x="1110" y="325" width="240" height="125" rx="20" class="card c2"/><text x="1230" y="367" class="cardTitle" text-anchor="middle"><tspan x="1230" dy="0">Backend</tspan></text><text x="1230" y="403" class="small" text-anchor="middle"><tspan x="1230" dy="0">198.51.100.25:443</tspan></text></g><path d="M340 212 L490 315" class="arrow" marker-end="url(#arrow)"/><path d="M340 562 L490 455" class="arrow" marker-end="url(#arrow)"/><path d="M1020 385 L1100 385" class="arrow" marker-end="url(#arrow)"/></svg>