<svg xmlns="http://www.w3.org/2000/svg" viewBox="0 0 1200 600" role="img"><defs><linearGradient id="bg" x2="1" y2="1"><stop stop-color="#07142b"/><stop offset="1" stop-color="#110b2c"/></linearGradient><filter id="glow"><feGaussianBlur stdDeviation="5" result="b"/><feMerge><feMergeNode in="b"/><feMergeNode in="SourceGraphic"/></feMerge></filter><marker id="arrow" markerWidth="10" markerHeight="10" refX="8" refY="3" orient="auto"><path d="M0 0L9 3L0 6Z" fill="#45e6d2"/></marker></defs><rect width="1200" height="600" rx="34" fill="url(#bg)"/><g font-family="Inter,Segoe UI,sans-serif"><rect x="80" y="70" width="1040" height="100" rx="22" fill="#0a1b38" stroke="#4aa7ff" stroke-width="2"/><rect x="96" y="86" width="8" height="68" rx="4" fill="#4aa7ff"/><text x="600" y="113" text-anchor="middle" font-size="22" font-weight="700" fill="#edf7ff">Load balancer</text><text x="600" y="148" text-anchor="middle" font-size="16" font-weight="700" fill="#a8bfd8">global / regional</text><path d="M600 170 C600 170,600 220,600 220" fill="none" stroke="#45e6d2" stroke-width="4" marker-end="url(#arrow)" filter="url(#glow)"/><rect x="90" y="230" width="300" height="150" rx="22" fill="#0a1b38" stroke="#45e6d2" stroke-width="2"/><rect x="106" y="246" width="8" height="118" rx="4" fill="#45e6d2"/><text x="240" y="273" text-anchor="middle" font-size="22" font-weight="700" fill="#edf7ff">Gateways substituíveis</text><text x="240" y="308" text-anchor="middle" font-size="16" font-weight="700" fill="#a8bfd8">node A • node B</text><rect x="450" y="230" width="300" height="150" rx="22" fill="#0a1b38" stroke="#45e6d2" stroke-width="2"/><rect x="466" y="246" width="8" height="118" rx="4" fill="#45e6d2"/><text x="600" y="273" text-anchor="middle" font-size="22" font-weight="700" fill="#edf7ff">Gateways substituíveis</text><text x="600" y="308" text-anchor="middle" font-size="16" font-weight="700" fill="#a8bfd8">node C • node D</text><rect x="810" y="230" width="300" height="150" rx="22" fill="#0a1b38" stroke="#a779ff" stroke-width="2"/><rect x="826" y="246" width="8" height="118" rx="4" fill="#a779ff"/><text x="960" y="273" text-anchor="middle" font-size="22" font-weight="700" fill="#edf7ff">Control plane resiliente</text><text x="960" y="308" text-anchor="middle" font-size="16" font-weight="700" fill="#a8bfd8">Configuração versionada</text><path d="M810 305 C782.5 305,782.5 305,755 305" fill="none" stroke="#45e6d2" stroke-width="4" marker-end="url(#arrow)" filter="url(#glow)"/><path d="M240 390L240 505H960V390" fill="none" stroke="#ffb15c" stroke-width="3" stroke-dasharray="10 8"/><text x="600" y="540" text-anchor="middle" font-size="21" font-weight="700" fill="#ffcf8a">Configuração versionada</text></g></svg>