<svg xmlns="http://www.w3.org/2000/svg" viewBox="0 0 1200 600" role="img"><defs><linearGradient id="bg" x2="1" y2="1"><stop stop-color="#07142b"/><stop offset="1" stop-color="#110b2c"/></linearGradient><filter id="glow"><feGaussianBlur stdDeviation="5" result="b"/><feMerge><feMergeNode in="b"/><feMergeNode in="SourceGraphic"/></feMerge></filter><marker id="arrow" markerWidth="10" markerHeight="10" refX="8" refY="3" orient="auto"><path d="M0 0L9 3L0 6Z" fill="#45e6d2"/></marker></defs><rect width="1200" height="600" rx="34" fill="url(#bg)"/><g font-family="Inter,Segoe UI,sans-serif"><rect x="45" y="210" width="250" height="160" rx="22" fill="#0a1b38" stroke="#45e6d2" stroke-width="2"/><rect x="61" y="226" width="8" height="128" rx="4" fill="#45e6d2"/><text x="170" y="253" text-anchor="middle" font-size="22" font-weight="700" fill="#edf7ff">Conexão inbound</text><text x="170" y="288" text-anchor="middle" font-size="16" font-weight="700" fill="#a8bfd8">consumer → gateway</text><rect x="470" y="165" width="260" height="250" rx="22" fill="#0a1b38" stroke="#a779ff" stroke-width="2"/><rect x="486" y="181" width="8" height="218" rx="4" fill="#a779ff"/><text x="600" y="208" text-anchor="middle" font-size="22" font-weight="700" fill="#edf7ff">Políticas e correlação</text><text x="600" y="243" text-anchor="middle" font-size="16" font-weight="700" fill="#a8bfd8">Logs, métricas e traces</text><rect x="905" y="210" width="250" height="160" rx="22" fill="#0a1b38" stroke="#45e6d2" stroke-width="2"/><rect x="921" y="226" width="8" height="128" rx="4" fill="#45e6d2"/><text x="1030" y="253" text-anchor="middle" font-size="22" font-weight="700" fill="#edf7ff">Conexão outbound</text><text x="1030" y="288" text-anchor="middle" font-size="16" font-weight="700" fill="#a8bfd8">gateway → backend</text><path d="M295 290 C380 290,380 290,465 290" fill="none" stroke="#45e6d2" stroke-width="4" marker-end="url(#arrow)" filter="url(#glow)"/><path d="M730 290 C815 290,815 290,900 290" fill="none" stroke="#45e6d2" stroke-width="4" marker-end="url(#arrow)" filter="url(#glow)"/><path d="M600 415V515" stroke="#ffb15c" stroke-width="4" marker-end="url(#arrow)"/><text x="600" y="560" text-anchor="middle" font-size="22" font-weight="700" fill="#ffcf8a">Logs, métricas e traces</text></g></svg>