<svg xmlns="http://www.w3.org/2000/svg" viewBox="0 0 1200 600" role="img"><defs><linearGradient id="bg" x2="1" y2="1"><stop stop-color="#07142b"/><stop offset="1" stop-color="#110b2c"/></linearGradient><filter id="glow"><feGaussianBlur stdDeviation="5" result="b"/><feMerge><feMergeNode in="b"/><feMergeNode in="SourceGraphic"/></feMerge></filter><marker id="arrow" markerWidth="10" markerHeight="10" refX="8" refY="3" orient="auto"><path d="M0 0L9 3L0 6Z" fill="#45e6d2"/></marker></defs><rect width="1200" height="600" rx="34" fill="url(#bg)"/><g font-family="Inter,Segoe UI,sans-serif"><rect x="50" y="220" width="220" height="140" rx="22" fill="#0a1b38" stroke="#45e6d2" stroke-width="2"/><rect x="66" y="236" width="8" height="108" rx="4" fill="#45e6d2"/><text x="160" y="263" text-anchor="middle" font-size="22" font-weight="700" fill="#edf7ff">Consumidores</text><text x="160" y="298" text-anchor="middle" font-size="16" font-weight="700" fill="#a8bfd8">web • mobile • parceiros</text><rect x="350" y="220" width="190" height="140" rx="22" fill="#0a1b38" stroke="#45e6d2" stroke-width="2"/><rect x="366" y="236" width="8" height="108" rx="4" fill="#45e6d2"/><text x="445" y="263" text-anchor="middle" font-size="22" font-weight="700" fill="#edf7ff">Edge / Load Balancer</text><text x="445" y="298" text-anchor="middle" font-size="16" font-weight="700" fill="#a8bfd8">DNS • WAF</text><rect x="620" y="180" width="220" height="220" rx="22" fill="#0a1b38" stroke="#a779ff" stroke-width="2"/><rect x="636" y="196" width="8" height="188" rx="4" fill="#a779ff"/><text x="730" y="223" text-anchor="middle" font-size="22" font-weight="700" fill="#edf7ff">API Gateway</text><text x="730" y="258" text-anchor="middle" font-size="16" font-weight="700" fill="#a8bfd8">segurança • políticas • roteamento</text><rect x="930" y="220" width="220" height="140" rx="22" fill="#0a1b38" stroke="#45e6d2" stroke-width="2"/><rect x="946" y="236" width="8" height="108" rx="4" fill="#45e6d2"/><text x="1040" y="263" text-anchor="middle" font-size="22" font-weight="700" fill="#edf7ff">Backends</text><text x="1040" y="298" text-anchor="middle" font-size="16" font-weight="700" fill="#a8bfd8">serviços • legados • SaaS</text><path d="M270 290 C307.5 290,307.5 290,345 290" fill="none" stroke="#45e6d2" stroke-width="4" marker-end="url(#arrow)" filter="url(#glow)"/><path d="M540 290 C577.5 290,577.5 290,615 290" fill="none" stroke="#45e6d2" stroke-width="4" marker-end="url(#arrow)" filter="url(#glow)"/><path d="M840 290 C882.5 290,882.5 290,925 290" fill="none" stroke="#45e6d2" stroke-width="4" marker-end="url(#arrow)" filter="url(#glow)"/></g></svg>