<svg xmlns="http://www.w3.org/2000/svg" viewBox="0 0 1400 780" role="img" aria-label="Caminho corporativo de uma chamada de API"><defs><linearGradient id="bg" x2="1" y2="1"><stop stop-color="#071a34"/><stop offset="1" stop-color="#030817"/></linearGradient><marker id="arrow" markerWidth="12" markerHeight="12" refX="10" refY="6" orient="auto"><path d="M0 0L12 6L0 12z" fill="#65e8ff"/></marker><style>text{font-family:Inter,Segoe UI,Arial,sans-serif;fill:#e5f4ff}.title{font-size:34px;font-weight:800}.cardTitle{font-size:23px;font-weight:800}.label{font-size:22px;font-weight:750}.small{font-size:17px;font-weight:600;fill:#b7d0e3}.card{fill:#081b35;stroke-width:2}.c0{stroke:#00d8ff}.c1{stroke:#9b6cff}.c2{stroke:#00ffd1}.c3{stroke:#ffb84d}.c4{stroke:#ff5cab}.arrow{fill:none;stroke:#65e8ff;stroke-width:4}.track{fill:none;stroke:#376e9d;stroke-width:4}</style></defs><rect width="1400" height="780" rx="30" fill="url(#bg)"/><text x="55" y="62" class="title" text-anchor="start">Caminho corporativo de uma chamada de API</text><g><rect x="55" y="250" width="196.66666666666666" height="190" rx="20" class="card c0"/><text x="153.33333333333331" y="292" class="cardTitle" text-anchor="middle"><tspan x="153.33333333333331" dy="0">Cliente</tspan></text><text x="153.33333333333331" y="328" class="small" text-anchor="middle"><tspan x="153.33333333333331" dy="0">stub resolver</tspan></text></g><g><rect x="273.66666666666663" y="250" width="196.66666666666666" height="190" rx="20" class="card c1"/><text x="371.99999999999994" y="292" class="cardTitle" text-anchor="middle"><tspan x="371.99999999999994" dy="0">DNS / GSLB</tspan></text><text x="371.99999999999994" y="328" class="small" text-anchor="middle"><tspan x="371.99999999999994" dy="0">nome -&gt; endpoint</tspan></text></g><g><rect x="492.3333333333333" y="250" width="196.66666666666666" height="190" rx="20" class="card c2"/><text x="590.6666666666666" y="292" class="cardTitle" text-anchor="middle"><tspan x="590.6666666666666" dy="0">Borda L7</tspan></text><text x="590.6666666666666" y="328" class="small" text-anchor="middle"><tspan x="590.6666666666666" dy="0">WAF, TLS e rota</tspan></text></g><g><rect x="711" y="250" width="196.66666666666666" height="190" rx="20" class="card c3"/><text x="809.3333333333334" y="292" class="cardTitle" text-anchor="middle"><tspan x="809.3333333333334" dy="0">API Gateway</tspan></text><text x="809.3333333333334" y="328" class="small" text-anchor="middle"><tspan x="809.3333333333334" dy="0">auth e políticas</tspan></text></g><g><rect x="929.6666666666666" y="250" width="196.66666666666666" height="190" rx="20" class="card c4"/><text x="1028" y="292" class="cardTitle" text-anchor="middle"><tspan x="1028" dy="0">LB interno</tspan></text><text x="1028" y="328" class="small" text-anchor="middle"><tspan x="1028" dy="0">pool saudável</tspan></text></g><g><rect x="1148.3333333333333" y="250" width="196.66666666666666" height="190" rx="20" class="card c0"/><text x="1246.6666666666665" y="292" class="cardTitle" text-anchor="middle"><tspan x="1246.6666666666665" dy="0">API</tspan></text><text x="1246.6666666666665" y="328" class="small" text-anchor="middle"><tspan x="1246.6666666666665" dy="0">serviço</tspan></text></g><path d="M251.66666666666666 345 L263.66666666666663 345" class="arrow" marker-end="url(#arrow)"/><path d="M470.3333333333333 345 L482.3333333333333 345" class="arrow" marker-end="url(#arrow)"/><path d="M689 345 L701 345" class="arrow" marker-end="url(#arrow)"/><path d="M907.6666666666666 345 L919.6666666666666 345" class="arrow" marker-end="url(#arrow)"/><path d="M1126.3333333333333 345 L1138.3333333333333 345" class="arrow" marker-end="url(#arrow)"/></svg>