<svg xmlns="http://www.w3.org/2000/svg" viewBox="0 0 1400 780" role="img" aria-label="DNS: hierarquia e delegação"><defs><linearGradient id="bg" x2="1" y2="1"><stop stop-color="#071a34"/><stop offset="1" stop-color="#030817"/></linearGradient><marker id="arrow" markerWidth="12" markerHeight="12" refX="10" refY="6" orient="auto"><path d="M0 0L12 6L0 12z" fill="#65e8ff"/></marker><style>text{font-family:Inter,Segoe UI,Arial,sans-serif;fill:#e5f4ff}.title{font-size:34px;font-weight:800}.cardTitle{font-size:23px;font-weight:800}.label{font-size:22px;font-weight:750}.small{font-size:17px;font-weight:600;fill:#b7d0e3}.card{fill:#081b35;stroke-width:2}.c0{stroke:#00d8ff}.c1{stroke:#9b6cff}.c2{stroke:#00ffd1}.c3{stroke:#ffb84d}.c4{stroke:#ff5cab}.arrow{fill:none;stroke:#65e8ff;stroke-width:4}.track{fill:none;stroke:#376e9d;stroke-width:4}</style></defs><rect width="1400" height="780" rx="30" fill="url(#bg)"/><text x="55" y="62" class="title" text-anchor="start">DNS: hierarquia e delegação</text><g><rect x="545" y="105" width="310" height="105" rx="20" class="card c0"/><text x="700" y="147" class="cardTitle" text-anchor="middle"><tspan x="700" dy="0">Raiz</tspan></text><text x="700" y="183" class="small" text-anchor="middle"><tspan x="700" dy="0">.</tspan></text></g><g><rect x="170" y="285" width="300" height="110" rx="20" class="card c1"/><text x="320" y="327" class="cardTitle" text-anchor="middle"><tspan x="320" dy="0">TLD</tspan></text><text x="320" y="363" class="small" text-anchor="middle"><tspan x="320" dy="0">.com  .org  .br</tspan></text></g><g><rect x="550" y="285" width="300" height="110" rx="20" class="card c2"/><text x="700" y="327" class="cardTitle" text-anchor="middle"><tspan x="700" dy="0">Zona</tspan></text><text x="700" y="363" class="small" text-anchor="middle"><tspan x="700" dy="0">empresa.com</tspan></text></g><g><rect x="930" y="285" width="300" height="110" rx="20" class="card c3"/><text x="1080" y="327" class="cardTitle" text-anchor="middle"><tspan x="1080" dy="0">Delegação</tspan></text><text x="1080" y="363" class="small" text-anchor="middle"><tspan x="1080" dy="0">pagamentos.empresa.com</tspan></text></g><path d="M700 210 L320 275" class="arrow" marker-end="url(#arrow)"/><path d="M700 210 L700 275" class="arrow" marker-end="url(#arrow)"/><path d="M700 210 L1080 275" class="arrow" marker-end="url(#arrow)"/><text x="700" y="520" class="label" text-anchor="middle">NS  •  SOA  •  glue  •  authority</text></svg>