<svg xmlns="http://www.w3.org/2000/svg" viewBox="0 0 1400 780" role="img" aria-label="Split-horizon DNS e nomes privados"><defs><linearGradient id="bg" x2="1" y2="1"><stop stop-color="#071a34"/><stop offset="1" stop-color="#030817"/></linearGradient><marker id="arrow" markerWidth="12" markerHeight="12" refX="10" refY="6" orient="auto"><path d="M0 0L12 6L0 12z" fill="#65e8ff"/></marker><style>text{font-family:Inter,Segoe UI,Arial,sans-serif;fill:#e5f4ff}.title{font-size:34px;font-weight:800}.cardTitle{font-size:23px;font-weight:800}.label{font-size:22px;font-weight:750}.small{font-size:17px;font-weight:600;fill:#b7d0e3}.card{fill:#081b35;stroke-width:2}.c0{stroke:#00d8ff}.c1{stroke:#9b6cff}.c2{stroke:#00ffd1}.c3{stroke:#ffb84d}.c4{stroke:#ff5cab}.arrow{fill:none;stroke:#65e8ff;stroke-width:4}.track{fill:none;stroke:#376e9d;stroke-width:4}</style></defs><rect width="1400" height="780" rx="30" fill="url(#bg)"/><text x="55" y="62" class="title" text-anchor="start">Split-horizon DNS e nomes privados</text><g><rect x="85" y="155" width="280" height="135" rx="20" class="card c0"/><text x="225" y="197" class="cardTitle" text-anchor="middle"><tspan x="225" dy="0">Cliente externo</tspan></text><text x="225" y="233" class="small" text-anchor="middle"><tspan x="225" dy="0">DNS público</tspan></text></g><g><rect x="560" y="245" width="280" height="165" rx="20" class="card c3"/><text x="700" y="287" class="cardTitle" text-anchor="middle"><tspan x="700" dy="0">api.empresa.com</tspan></text><text x="700" y="323" class="small" text-anchor="middle"><tspan x="700" dy="0">Público: 203.0.113.20</tspan><tspan x="700" dy="25">Privado: 10.20.5.20</tspan></text></g><g><rect x="1035" y="155" width="280" height="135" rx="20" class="card c4"/><text x="1175" y="197" class="cardTitle" text-anchor="middle"><tspan x="1175" dy="0">Borda pública</tspan></text><text x="1175" y="233" class="small" text-anchor="middle"><tspan x="1175" dy="0">WAF / Front Door</tspan></text></g><g><rect x="85" y="505" width="280" height="135" rx="20" class="card c2"/><text x="225" y="547" class="cardTitle" text-anchor="middle"><tspan x="225" dy="0">Gateway interno</tspan></text><text x="225" y="583" class="small" text-anchor="middle"><tspan x="225" dy="0">DNS privado</tspan></text></g><g><rect x="1035" y="505" width="280" height="135" rx="20" class="card c1"/><text x="1175" y="547" class="cardTitle" text-anchor="middle"><tspan x="1175" dy="0">Backend privado</tspan></text><text x="1175" y="583" class="small" text-anchor="middle"><tspan x="1175" dy="0">VNet / datacenter</tspan></text></g><path d="M365 220 L550 300" class="arrow" marker-end="url(#arrow)"/><path d="M850 300 L1025 220" class="arrow" marker-end="url(#arrow)"/><path d="M365 570 L550 365" class="arrow" marker-end="url(#arrow)"/><path d="M850 365 L1025 570" class="arrow" marker-end="url(#arrow)"/></svg>