<svg xmlns="http://www.w3.org/2000/svg" viewBox="0 0 1200 600"><defs><linearGradient id="b" x2="1" y2="1"><stop stop-color="#06152c"/><stop offset="1" stop-color="#140b2d"/></linearGradient><marker id="a" markerWidth="10" markerHeight="10" refX="8" refY="3" orient="auto"><path d="M0 0L9 3L0 6Z" fill="#54ead5"/></marker></defs><rect width="1200" height="600" rx="34" fill="url(#b)"/><g font-family="Inter,Segoe UI,sans-serif"><rect x="420" y="55" width="360" height="100" rx="20" fill="#0a1d3b" stroke="#ffb15d" stroke-width="3"/><text x="600" y="103" text-anchor="middle" font-size="22" font-weight="700" fill="#eef8ff">API Gateway Domain</text><text x="600" y="137" text-anchor="middle" font-size="16" font-weight="700" fill="#aac3dc">Admin Node Manager</text><path d="M500 155L310 245" stroke="#54ead5" stroke-width="4" marker-end="url(#a)"/><path d="M700 155L890 245" stroke="#54ead5" stroke-width="4" marker-end="url(#a)"/><rect x="120" y="245" width="380" height="110" rx="20" fill="#0a1d3b" stroke="#54ead5" stroke-width="3"/><text x="310" y="293" text-anchor="middle" font-size="22" font-weight="700" fill="#eef8ff">Group 1</text><text x="310" y="327" text-anchor="middle" font-size="16" font-weight="700" fill="#aac3dc">Node Manager</text><rect x="700" y="245" width="380" height="110" rx="20" fill="#0a1d3b" stroke="#54ead5" stroke-width="3"/><text x="890" y="293" text-anchor="middle" font-size="22" font-weight="700" fill="#eef8ff">Group 2</text><text x="890" y="327" text-anchor="middle" font-size="16" font-weight="700" fill="#aac3dc">Node Manager</text><rect x="130" y="425" width="160" height="100" rx="20" fill="#0a1d3b" stroke="#54ead5" stroke-width="3"/><text x="210" y="473" text-anchor="middle" font-size="22" font-weight="700" fill="#eef8ff">Gateway instance A</text><rect x="330" y="425" width="160" height="100" rx="20" fill="#0a1d3b" stroke="#54ead5" stroke-width="3"/><text x="410" y="473" text-anchor="middle" font-size="22" font-weight="700" fill="#eef8ff">Gateway instance B</text><rect x="710" y="425" width="160" height="100" rx="20" fill="#0a1d3b" stroke="#54ead5" stroke-width="3"/><text x="790" y="473" text-anchor="middle" font-size="22" font-weight="700" fill="#eef8ff">Gateway instance A</text><rect x="910" y="425" width="160" height="100" rx="20" fill="#0a1d3b" stroke="#54ead5" stroke-width="3"/><text x="990" y="473" text-anchor="middle" font-size="22" font-weight="700" fill="#eef8ff">Gateway instance B</text><path d="M310 355L210 420" stroke="#54ead5" stroke-width="4" marker-end="url(#a)"/><path d="M310 355L410 420" stroke="#54ead5" stroke-width="4" marker-end="url(#a)"/><path d="M890 355L790 420" stroke="#54ead5" stroke-width="4" marker-end="url(#a)"/><path d="M890 355L990 420" stroke="#54ead5" stroke-width="4" marker-end="url(#a)"/></g></svg>