<svg xmlns="http://www.w3.org/2000/svg" viewBox="0 0 1200 600"><defs><linearGradient id="b" x2="1" y2="1"><stop stop-color="#06152c"/><stop offset="1" stop-color="#140b2d"/></linearGradient><marker id="a" markerWidth="10" markerHeight="10" refX="8" refY="3" orient="auto"><path d="M0 0L9 3L0 6Z" fill="#54ead5"/></marker></defs><rect width="1200" height="600" rx="34" fill="url(#b)"/><g font-family="Inter,Segoe UI,sans-serif"><rect x="35" y="220" width="200" height="150" rx="20" fill="#0a1d3b" stroke="#54ead5" stroke-width="3"/><text x="135" y="268" text-anchor="middle" font-size="22" font-weight="700" fill="#eef8ff">Listener</text><rect x="267" y="220" width="200" height="150" rx="20" fill="#0a1d3b" stroke="#54ead5" stroke-width="3"/><text x="367" y="268" text-anchor="middle" font-size="22" font-weight="700" fill="#eef8ff">Service</text><rect x="499" y="220" width="200" height="150" rx="20" fill="#0a1d3b" stroke="#54ead5" stroke-width="3"/><text x="599" y="268" text-anchor="middle" font-size="22" font-weight="700" fill="#eef8ff">Policy circuit</text><rect x="731" y="220" width="200" height="150" rx="20" fill="#0a1d3b" stroke="#9d78ff" stroke-width="3"/><text x="831" y="268" text-anchor="middle" font-size="22" font-weight="700" fill="#eef8ff">Routing</text><rect x="963" y="220" width="200" height="150" rx="20" fill="#0a1d3b" stroke="#9d78ff" stroke-width="3"/><text x="1063" y="268" text-anchor="middle" font-size="22" font-weight="700" fill="#eef8ff">Response</text><path d="M235 295L262 295" stroke="#54ead5" stroke-width="4" marker-end="url(#a)"/><path d="M467 295L494 295" stroke="#54ead5" stroke-width="4" marker-end="url(#a)"/><path d="M699 295L726 295" stroke="#54ead5" stroke-width="4" marker-end="url(#a)"/><path d="M931 295L958 295" stroke="#54ead5" stroke-width="4" marker-end="url(#a)"/></g></svg>