<svg xmlns="http://www.w3.org/2000/svg" viewBox="0 0 1200 600"><defs><linearGradient id="b" x2="1" y2="1"><stop stop-color="#06152c"/><stop offset="1" stop-color="#140b2d"/></linearGradient><marker id="a" markerWidth="10" markerHeight="10" refX="8" refY="3" orient="auto"><path d="M0 0L9 3L0 6Z" fill="#54ead5"/></marker></defs><rect width="1200" height="600" rx="34" fill="url(#b)"/><g font-family="Inter,Segoe UI,sans-serif"><rect x="25" y="220" width="210" height="155" rx="20" fill="#0a1d3b" stroke="#54ead5" stroke-width="3"/><text x="130" y="268" text-anchor="middle" font-size="22" font-weight="700" fill="#eef8ff">Design</text><text x="130" y="302" text-anchor="middle" font-size="16" font-weight="700" fill="#aac3dc">Policy Studio</text><rect x="260" y="220" width="210" height="155" rx="20" fill="#0a1d3b" stroke="#54ead5" stroke-width="3"/><text x="365" y="268" text-anchor="middle" font-size="22" font-weight="700" fill="#eef8ff">Administration</text><text x="365" y="302" text-anchor="middle" font-size="16" font-weight="700" fill="#aac3dc">ANM / Node Managers</text><rect x="495" y="220" width="210" height="155" rx="20" fill="#0a1d3b" stroke="#54ead5" stroke-width="3"/><text x="600" y="268" text-anchor="middle" font-size="22" font-weight="700" fill="#eef8ff">Execution</text><text x="600" y="302" text-anchor="middle" font-size="16" font-weight="700" fill="#aac3dc">Gateway instances</text><rect x="730" y="220" width="210" height="155" rx="20" fill="#0a1d3b" stroke="#9d78ff" stroke-width="3"/><text x="835" y="268" text-anchor="middle" font-size="22" font-weight="700" fill="#eef8ff">Persistence</text><text x="835" y="302" text-anchor="middle" font-size="16" font-weight="700" fill="#aac3dc">KPS / Cassandra</text><rect x="965" y="220" width="210" height="155" rx="20" fill="#0a1d3b" stroke="#9d78ff" stroke-width="3"/><text x="1070" y="268" text-anchor="middle" font-size="22" font-weight="700" fill="#eef8ff">Operations</text><text x="1070" y="302" text-anchor="middle" font-size="16" font-weight="700" fill="#aac3dc">Manager / Traffic Monitor</text><path d="M235 297L260 297" stroke="#54ead5" stroke-width="4" marker-end="url(#a)"/><path d="M470 297L495 297" stroke="#54ead5" stroke-width="4" marker-end="url(#a)"/><path d="M705 297L730 297" stroke="#54ead5" stroke-width="4" marker-end="url(#a)"/><path d="M940 297L965 297" stroke="#54ead5" stroke-width="4" marker-end="url(#a)"/></g></svg>