<svg xmlns="http://www.w3.org/2000/svg" viewBox="0 0 1200 620"><defs><linearGradient id="b" x2="1" y2="1"><stop stop-color="#04152d"/><stop offset="1" stop-color="#180b35"/></linearGradient><marker id="a" markerWidth="10" markerHeight="10" refX="8" refY="3" orient="auto"><path d="M0 0L9 3L0 6Z" fill="#5ce8d4"/></marker></defs><rect width="1200" height="620" rx="34" fill="url(#b)"/><g font-family="Inter,Segoe UI,sans-serif"><rect x="25" y="220" width="210" height="160" rx="18" fill="#0a2142" stroke="#5ce8d4" stroke-width="3"/><text x="130" y="263" text-anchor="middle" font-size="20" font-weight="700" fill="#f3f8ff">Consumer</text><text x="130" y="293" text-anchor="middle" font-size="14" font-weight="700" fill="#b8cce2">identity and context</text><rect x="260" y="220" width="210" height="160" rx="18" fill="#0a2142" stroke="#5ce8d4" stroke-width="3"/><text x="365" y="263" text-anchor="middle" font-size="20" font-weight="700" fill="#f3f8ff">Edge / WAF</text><text x="365" y="293" text-anchor="middle" font-size="14" font-weight="700" fill="#b8cce2">filtering and protection</text><rect x="495" y="220" width="210" height="160" rx="18" fill="#0a2142" stroke="#4aa8ff" stroke-width="3"/><text x="600" y="263" text-anchor="middle" font-size="20" font-weight="700" fill="#f3f8ff">API Gateway</text><text x="600" y="293" text-anchor="middle" font-size="14" font-weight="700" fill="#b8cce2">policies and limits</text><rect x="730" y="220" width="210" height="160" rx="18" fill="#0a2142" stroke="#a47bff" stroke-width="3"/><text x="835" y="263" text-anchor="middle" font-size="20" font-weight="700" fill="#f3f8ff">Backend</text><text x="835" y="293" text-anchor="middle" font-size="14" font-weight="700" fill="#b8cce2">authorization and business</text><rect x="965" y="220" width="210" height="160" rx="18" fill="#0a2142" stroke="#a47bff" stroke-width="3"/><text x="1070" y="263" text-anchor="middle" font-size="20" font-weight="700" fill="#f3f8ff">Data / third parties</text><text x="1070" y="293" text-anchor="middle" font-size="14" font-weight="700" fill="#b8cce2">least privilege</text><path d="M235 300L260 300" stroke="#5ce8d4" stroke-width="4" marker-end="url(#a)"/><path d="M470 300L495 300" stroke="#5ce8d4" stroke-width="4" marker-end="url(#a)"/><path d="M705 300L730 300" stroke="#5ce8d4" stroke-width="4" marker-end="url(#a)"/><path d="M940 300L965 300" stroke="#5ce8d4" stroke-width="4" marker-end="url(#a)"/></g></svg>