<svg xmlns="http://www.w3.org/2000/svg" viewBox="0 0 1200 620"><defs><linearGradient id="b" x2="1" y2="1"><stop stop-color="#04152d"/><stop offset="1" stop-color="#180b35"/></linearGradient><marker id="a" markerWidth="10" markerHeight="10" refX="8" refY="3" orient="auto"><path d="M0 0L9 3L0 6Z" fill="#5ce8d4"/></marker></defs><rect width="1200" height="620" rx="34" fill="url(#b)"/><g font-family="Inter,Segoe UI,sans-serif"><rect x="35" y="145" width="205" height="125" rx="18" fill="#0a2142" stroke="#5ce8d4" stroke-width="3"/><text x="137.5" y="188" text-anchor="middle" font-size="20" font-weight="700" fill="#f3f8ff">API1</text><text x="137.5" y="218" text-anchor="middle" font-size="14" font-weight="700" fill="#b8cce2">Object authorization</text><rect x="265" y="145" width="205" height="125" rx="18" fill="#0a2142" stroke="#5ce8d4" stroke-width="3"/><text x="367.5" y="188" text-anchor="middle" font-size="20" font-weight="700" fill="#f3f8ff">API2</text><text x="367.5" y="218" text-anchor="middle" font-size="14" font-weight="700" fill="#b8cce2">Authentication</text><rect x="495" y="145" width="205" height="125" rx="18" fill="#0a2142" stroke="#5ce8d4" stroke-width="3"/><text x="597.5" y="188" text-anchor="middle" font-size="20" font-weight="700" fill="#f3f8ff">API3</text><text x="597.5" y="218" text-anchor="middle" font-size="14" font-weight="700" fill="#b8cce2">Properties</text><rect x="725" y="145" width="205" height="125" rx="18" fill="#0a2142" stroke="#5ce8d4" stroke-width="3"/><text x="827.5" y="188" text-anchor="middle" font-size="20" font-weight="700" fill="#f3f8ff">API4</text><text x="827.5" y="218" text-anchor="middle" font-size="14" font-weight="700" fill="#b8cce2">Resources</text><rect x="955" y="145" width="205" height="125" rx="18" fill="#0a2142" stroke="#5ce8d4" stroke-width="3"/><text x="1057.5" y="188" text-anchor="middle" font-size="20" font-weight="700" fill="#f3f8ff">API5</text><text x="1057.5" y="218" text-anchor="middle" font-size="14" font-weight="700" fill="#b8cce2">Functions</text><rect x="35" y="350" width="205" height="125" rx="18" fill="#0a2142" stroke="#5ce8d4" stroke-width="3"/><text x="137.5" y="393" text-anchor="middle" font-size="20" font-weight="700" fill="#f3f8ff">API6</text><text x="137.5" y="423" text-anchor="middle" font-size="14" font-weight="700" fill="#b8cce2">Business flows</text><rect x="265" y="350" width="205" height="125" rx="18" fill="#0a2142" stroke="#a47bff" stroke-width="3"/><text x="367.5" y="393" text-anchor="middle" font-size="20" font-weight="700" fill="#f3f8ff">API7</text><text x="367.5" y="423" text-anchor="middle" font-size="14" font-weight="700" fill="#b8cce2">SSRF</text><rect x="495" y="350" width="205" height="125" rx="18" fill="#0a2142" stroke="#a47bff" stroke-width="3"/><text x="597.5" y="393" text-anchor="middle" font-size="20" font-weight="700" fill="#f3f8ff">API8</text><text x="597.5" y="423" text-anchor="middle" font-size="14" font-weight="700" fill="#b8cce2">Configuration</text><rect x="725" y="350" width="205" height="125" rx="18" fill="#0a2142" stroke="#a47bff" stroke-width="3"/><text x="827.5" y="393" text-anchor="middle" font-size="20" font-weight="700" fill="#f3f8ff">API9</text><text x="827.5" y="423" text-anchor="middle" font-size="14" font-weight="700" fill="#b8cce2">Inventory</text><rect x="955" y="350" width="205" height="125" rx="18" fill="#0a2142" stroke="#a47bff" stroke-width="3"/><text x="1057.5" y="393" text-anchor="middle" font-size="20" font-weight="700" fill="#f3f8ff">API10</text><text x="1057.5" y="423" text-anchor="middle" font-size="14" font-weight="700" fill="#b8cce2">API consumption</text><text x="600" y="545" text-anchor="middle" font-size="28" font-weight="700" fill="#ffca68">OWASP API Security Top 10</text></g></svg>