<svg xmlns="http://www.w3.org/2000/svg" viewBox="0 0 1200 620" role="img" aria-label="Validação do certificado do cliente">
    <defs>
    <linearGradient id="bg" x1="0" y1="0" x2="1" y2="1"><stop stop-color="#071126"/><stop offset="1" stop-color="#111c3f"/></linearGradient>
    <linearGradient id="line" x1="0" y1="0" x2="1" y2="0"><stop stop-color="#21d4fd"/><stop offset="1" stop-color="#a855f7"/></linearGradient>
    <filter id="glow"><feGaussianBlur stdDeviation="4" result="b"/><feMerge><feMergeNode in="b"/><feMergeNode in="SourceGraphic"/></feMerge></filter>
    <marker id="arrow" viewBox="0 0 10 10" refX="9" refY="5" markerWidth="8" markerHeight="8" orient="auto-start-reverse"><path d="M0 0L10 5L0 10Z" fill="#55dcff"/></marker>
  </defs><rect width="1200" height="620" rx="34" fill="url(#bg)"/>
    <path d="M40 102H1160" stroke="#243e72" stroke-width="2"/><text x="60" y="70" fill="#f2f7ff" font-family="Inter,Arial,sans-serif" font-size="30" font-weight="700">Validação do certificado do cliente</text>
    <g><rect x="35" y="245" width="140" height="110" rx="20" fill="#0d2b55" stroke="#21d4fd" stroke-width="3"/><rect x="45" y="255" width="120" height="90" rx="14" fill="#0b1732" opacity=".45"/><text x="105" y="307" text-anchor="middle" fill="#e9f8ff" font-family="Inter,Arial,sans-serif" font-size="18" font-weight="650">Certificado</text></g><g><path d="M175 300L197 300" stroke="url(#line)" stroke-width="5" fill="none" marker-end="url(#arrow)"  filter="url(#glow)"/></g><g><rect x="197" y="245" width="110" height="110" rx="20" fill="#25175a" stroke="#a855f7" stroke-width="3"/><rect x="207" y="255" width="90" height="90" rx="14" fill="#0b1732" opacity=".45"/><text x="252" y="307" text-anchor="middle" fill="#f5ecff" font-family="Inter,Arial,sans-serif" font-size="18" font-weight="650">Cadeia</text></g><g><path d="M307 300L329 300" stroke="url(#line)" stroke-width="5" fill="none" marker-end="url(#arrow)"  filter="url(#glow)"/></g><g><rect x="329" y="245" width="100" height="110" rx="20" fill="#0d2b55" stroke="#21d4fd" stroke-width="3"/><rect x="339" y="255" width="80" height="90" rx="14" fill="#0b1732" opacity=".45"/><text x="379" y="307" text-anchor="middle" fill="#e9f8ff" font-family="Inter,Arial,sans-serif" font-size="18" font-weight="650">Tempo</text></g><g><path d="M429 300L451 300" stroke="url(#line)" stroke-width="5" fill="none" marker-end="url(#arrow)"  filter="url(#glow)"/></g><g><rect x="451" y="245" width="100" height="110" rx="20" fill="#25175a" stroke="#a855f7" stroke-width="3"/><rect x="461" y="255" width="80" height="90" rx="14" fill="#0b1732" opacity=".45"/><text x="501" y="307" text-anchor="middle" fill="#f5ecff" font-family="Inter,Arial,sans-serif" font-size="18" font-weight="650">Uso</text></g><g><path d="M551 300L573 300" stroke="url(#line)" stroke-width="5" fill="none" marker-end="url(#arrow)"  filter="url(#glow)"/></g><g><rect x="573" y="245" width="135" height="110" rx="20" fill="#0d2b55" stroke="#21d4fd" stroke-width="3"/><rect x="583" y="255" width="115" height="90" rx="14" fill="#0b1732" opacity=".45"/><text x="640.5" y="307" text-anchor="middle" fill="#e9f8ff" font-family="Inter,Arial,sans-serif" font-size="18" font-weight="650">Identidade</text></g><g><path d="M708 300L730 300" stroke="url(#line)" stroke-width="5" fill="none" marker-end="url(#arrow)"  filter="url(#glow)"/></g><g><rect x="730" y="245" width="130" height="110" rx="20" fill="#25175a" stroke="#a855f7" stroke-width="3"/><rect x="740" y="255" width="110" height="90" rx="14" fill="#0b1732" opacity=".45"/><text x="795" y="307" text-anchor="middle" fill="#f5ecff" font-family="Inter,Arial,sans-serif" font-size="17" font-weight="650">Revogação</text></g><g><path d="M860 300L882 300" stroke="url(#line)" stroke-width="5" fill="none" marker-end="url(#arrow)"  filter="url(#glow)"/></g><g><rect x="882" y="245" width="120" height="110" rx="20" fill="#0d2b55" stroke="#21d4fd" stroke-width="3"/><rect x="892" y="255" width="100" height="90" rx="14" fill="#0b1732" opacity=".45"/><text x="942" y="307" text-anchor="middle" fill="#e9f8ff" font-family="Inter,Arial,sans-serif" font-size="18" font-weight="650">Cadastro</text></g><g><path d="M1002 300L1024 300" stroke="url(#line)" stroke-width="5" fill="none" marker-end="url(#arrow)"  filter="url(#glow)"/></g><g><rect x="1024" y="245" width="110" height="110" rx="20" fill="#123c42" stroke="#34d399" stroke-width="3"/><rect x="1034" y="255" width="90" height="90" rx="14" fill="#0b1732" opacity=".45"/><text x="1079" y="307" text-anchor="middle" fill="#ecfdf5" font-family="Inter,Arial,sans-serif" font-size="18" font-weight="650">Aceito</text></g></svg>