<svg xmlns="http://www.w3.org/2000/svg" viewBox="0 0 1200 620" role="img" aria-label="Ciclo de vida operacional">
    <defs>
    <linearGradient id="bg" x1="0" y1="0" x2="1" y2="1"><stop stop-color="#071126"/><stop offset="1" stop-color="#111c3f"/></linearGradient>
    <linearGradient id="line" x1="0" y1="0" x2="1" y2="0"><stop stop-color="#21d4fd"/><stop offset="1" stop-color="#a855f7"/></linearGradient>
    <filter id="glow"><feGaussianBlur stdDeviation="4" result="b"/><feMerge><feMergeNode in="b"/><feMergeNode in="SourceGraphic"/></feMerge></filter>
    <marker id="arrow" viewBox="0 0 10 10" refX="9" refY="5" markerWidth="8" markerHeight="8" orient="auto-start-reverse"><path d="M0 0L10 5L0 10Z" fill="#55dcff"/></marker>
  </defs><rect width="1200" height="620" rx="34" fill="url(#bg)"/>
    <path d="M40 102H1160" stroke="#243e72" stroke-width="2"/><text x="60" y="70" fill="#f2f7ff" font-family="Inter,Arial,sans-serif" font-size="30" font-weight="700">Ciclo de vida operacional</text>
    <g><path d="M600 150L830 220" stroke="url(#line)" stroke-width="5" fill="none" marker-end="url(#arrow)"  filter="url(#glow)"/></g><g><path d="M830 220L900 420" stroke="url(#line)" stroke-width="5" fill="none" marker-end="url(#arrow)"  filter="url(#glow)"/></g><g><path d="M900 420L710 510" stroke="url(#line)" stroke-width="5" fill="none" marker-end="url(#arrow)"  filter="url(#glow)"/></g><g><path d="M710 510L490 510" stroke="url(#line)" stroke-width="5" fill="none" marker-end="url(#arrow)"  filter="url(#glow)"/></g><g><path d="M490 510L300 420" stroke="url(#line)" stroke-width="5" fill="none" marker-end="url(#arrow)"  filter="url(#glow)"/></g><g><path d="M300 420L370 220" stroke="url(#line)" stroke-width="5" fill="none" marker-end="url(#arrow)"  filter="url(#glow)"/></g><g><path d="M370 220L600 150" stroke="url(#line)" stroke-width="5" fill="none" marker-end="url(#arrow)"  filter="url(#glow)"/></g><g><rect x="505" y="108" width="190" height="84" rx="20" fill="#0d2b55" stroke="#21d4fd" stroke-width="3"/><rect x="515" y="118" width="170" height="64" rx="14" fill="#0b1732" opacity=".45"/><text x="600" y="157" text-anchor="middle" fill="#e9f8ff" font-family="Inter,Arial,sans-serif" font-size="20" font-weight="650">Bootstrap</text></g><g><rect x="735" y="178" width="190" height="84" rx="20" fill="#25175a" stroke="#a855f7" stroke-width="3"/><rect x="745" y="188" width="170" height="64" rx="14" fill="#0b1732" opacity=".45"/><text x="830" y="227" text-anchor="middle" fill="#f5ecff" font-family="Inter,Arial,sans-serif" font-size="20" font-weight="650">Emitir</text></g><g><rect x="805" y="378" width="190" height="84" rx="20" fill="#0d2b55" stroke="#21d4fd" stroke-width="3"/><rect x="815" y="388" width="170" height="64" rx="14" fill="#0b1732" opacity=".45"/><text x="900" y="427" text-anchor="middle" fill="#e9f8ff" font-family="Inter,Arial,sans-serif" font-size="20" font-weight="650">Distribuir</text></g><g><rect x="615" y="468" width="190" height="84" rx="20" fill="#25175a" stroke="#a855f7" stroke-width="3"/><rect x="625" y="478" width="170" height="64" rx="14" fill="#0b1732" opacity=".45"/><text x="710" y="517" text-anchor="middle" fill="#f5ecff" font-family="Inter,Arial,sans-serif" font-size="20" font-weight="650">Usar</text></g><g><rect x="395" y="468" width="190" height="84" rx="20" fill="#0d2b55" stroke="#21d4fd" stroke-width="3"/><rect x="405" y="478" width="170" height="64" rx="14" fill="#0b1732" opacity=".45"/><text x="490" y="517" text-anchor="middle" fill="#e9f8ff" font-family="Inter,Arial,sans-serif" font-size="20" font-weight="650">Renovar</text></g><g><rect x="205" y="378" width="190" height="84" rx="20" fill="#25175a" stroke="#a855f7" stroke-width="3"/><rect x="215" y="388" width="170" height="64" rx="14" fill="#0b1732" opacity=".45"/><text x="300" y="427" text-anchor="middle" fill="#f5ecff" font-family="Inter,Arial,sans-serif" font-size="20" font-weight="650">Revogar</text></g><g><rect x="275" y="178" width="190" height="84" rx="20" fill="#0d2b55" stroke="#21d4fd" stroke-width="3"/><rect x="285" y="188" width="170" height="64" rx="14" fill="#0b1732" opacity=".45"/><text x="370" y="227" text-anchor="middle" fill="#e9f8ff" font-family="Inter,Arial,sans-serif" font-size="20" font-weight="650">Observar</text></g><circle cx="600" cy="335" r="80" fill="#0d2b55" stroke="#34d399" stroke-width="4"/><path d="M565 335h70M600 300v70" stroke="#e9f8ff" stroke-width="7" stroke-linecap="round"/></svg>