<svg xmlns="http://www.w3.org/2000/svg" viewBox="0 0 1200 620" role="img" aria-label="Troubleshooting de mTLS">
    <defs>
    <linearGradient id="bg" x1="0" y1="0" x2="1" y2="1"><stop stop-color="#071126"/><stop offset="1" stop-color="#111c3f"/></linearGradient>
    <linearGradient id="line" x1="0" y1="0" x2="1" y2="0"><stop stop-color="#21d4fd"/><stop offset="1" stop-color="#a855f7"/></linearGradient>
    <filter id="glow"><feGaussianBlur stdDeviation="4" result="b"/><feMerge><feMergeNode in="b"/><feMergeNode in="SourceGraphic"/></feMerge></filter>
    <marker id="arrow" viewBox="0 0 10 10" refX="9" refY="5" markerWidth="8" markerHeight="8" orient="auto-start-reverse"><path d="M0 0L10 5L0 10Z" fill="#55dcff"/></marker>
  </defs><rect width="1200" height="620" rx="34" fill="url(#bg)"/>
    <path d="M40 102H1160" stroke="#243e72" stroke-width="2"/><text x="60" y="70" fill="#f2f7ff" font-family="Inter,Arial,sans-serif" font-size="30" font-weight="700">Troubleshooting de mTLS</text>
    <g><rect x="35" y="150" width="205" height="92" rx="20" fill="#0d2b55" stroke="#21d4fd" stroke-width="3"/><rect x="45" y="160" width="185" height="72" rx="14" fill="#0b1732" opacity=".45"/><text x="137.5" y="203" text-anchor="middle" fill="#e9f8ff" font-family="Inter,Arial,sans-serif" font-size="18" font-weight="650">¿TCP establecido?</text></g><g><rect x="35" y="420" width="205" height="82" rx="20" fill="#4b3212" stroke="#fbbf24" stroke-width="3"/><rect x="45" y="430" width="185" height="62" rx="14" fill="#0b1732" opacity=".45"/><text x="137.5" y="468" text-anchor="middle" fill="#fff8df" font-family="Inter,Arial,sans-serif" font-size="18" font-weight="650">Corregir red</text></g><g><path d="M137 242L137 420" stroke="url(#line)" stroke-width="5" fill="none" marker-end="url(#arrow)"  filter="url(#glow)"/></g><text x="137" y="385" text-anchor="middle" fill="#fbbf24" font-family="Inter,Arial,sans-serif" font-size="24" font-weight="600">×</text><g><path d="M240 196L267 196" stroke="url(#line)" stroke-width="5" fill="none" marker-end="url(#arrow)"  filter="url(#glow)"/></g><text x="253" y="135" text-anchor="middle" fill="#34d399" font-family="Inter,Arial,sans-serif" font-size="22" font-weight="600">✓</text><g><rect x="267" y="150" width="205" height="92" rx="20" fill="#0d2b55" stroke="#21d4fd" stroke-width="3"/><rect x="277" y="160" width="185" height="72" rx="14" fill="#0b1732" opacity=".45"/><text x="369.5" y="203" text-anchor="middle" fill="#e9f8ff" font-family="Inter,Arial,sans-serif" font-size="18" font-weight="650">¿Handshake completo?</text></g><g><rect x="267" y="420" width="205" height="82" rx="20" fill="#4b3212" stroke="#fbbf24" stroke-width="3"/><rect x="277" y="430" width="185" height="62" rx="14" fill="#0b1732" opacity=".45"/><text x="369.5" y="468" text-anchor="middle" fill="#fff8df" font-family="Inter,Arial,sans-serif" font-size="18" font-weight="650">Revisar TLS</text></g><g><path d="M369 242L369 420" stroke="url(#line)" stroke-width="5" fill="none" marker-end="url(#arrow)"  filter="url(#glow)"/></g><text x="369" y="385" text-anchor="middle" fill="#fbbf24" font-family="Inter,Arial,sans-serif" font-size="24" font-weight="600">×</text><g><path d="M472 196L499 196" stroke="url(#line)" stroke-width="5" fill="none" marker-end="url(#arrow)"  filter="url(#glow)"/></g><text x="485" y="135" text-anchor="middle" fill="#34d399" font-family="Inter,Arial,sans-serif" font-size="22" font-weight="600">✓</text><g><rect x="499" y="150" width="205" height="92" rx="20" fill="#0d2b55" stroke="#21d4fd" stroke-width="3"/><rect x="509" y="160" width="185" height="72" rx="14" fill="#0b1732" opacity=".45"/><text x="601.5" y="203" text-anchor="middle" fill="#e9f8ff" font-family="Inter,Arial,sans-serif" font-size="18" font-weight="650">¿Certificado enviado?</text></g><g><rect x="499" y="420" width="205" height="82" rx="20" fill="#4b3212" stroke="#fbbf24" stroke-width="3"/><rect x="509" y="430" width="185" height="62" rx="14" fill="#0b1732" opacity=".45"/><text x="601.5" y="468" text-anchor="middle" fill="#fff8df" font-family="Inter,Arial,sans-serif" font-size="18" font-weight="650">Revisar credencial</text></g><g><path d="M601 242L601 420" stroke="url(#line)" stroke-width="5" fill="none" marker-end="url(#arrow)"  filter="url(#glow)"/></g><text x="601" y="385" text-anchor="middle" fill="#fbbf24" font-family="Inter,Arial,sans-serif" font-size="24" font-weight="600">×</text><g><path d="M704 196L731 196" stroke="url(#line)" stroke-width="5" fill="none" marker-end="url(#arrow)"  filter="url(#glow)"/></g><text x="717" y="135" text-anchor="middle" fill="#34d399" font-family="Inter,Arial,sans-serif" font-size="22" font-weight="600">✓</text><g><rect x="731" y="150" width="205" height="92" rx="20" fill="#0d2b55" stroke="#21d4fd" stroke-width="3"/><rect x="741" y="160" width="185" height="72" rx="14" fill="#0b1732" opacity=".45"/><text x="833.5" y="203" text-anchor="middle" fill="#e9f8ff" font-family="Inter,Arial,sans-serif" font-size="18" font-weight="650">¿Cadena válida?</text></g><g><rect x="731" y="420" width="205" height="82" rx="20" fill="#4b3212" stroke="#fbbf24" stroke-width="3"/><rect x="741" y="430" width="185" height="62" rx="14" fill="#0b1732" opacity=".45"/><text x="833.5" y="468" text-anchor="middle" fill="#fff8df" font-family="Inter,Arial,sans-serif" font-size="18" font-weight="650">Revisar truststore</text></g><g><path d="M833 242L833 420" stroke="url(#line)" stroke-width="5" fill="none" marker-end="url(#arrow)"  filter="url(#glow)"/></g><text x="833" y="385" text-anchor="middle" fill="#fbbf24" font-family="Inter,Arial,sans-serif" font-size="24" font-weight="600">×</text><g><path d="M936 196L963 196" stroke="url(#line)" stroke-width="5" fill="none" marker-end="url(#arrow)"  filter="url(#glow)"/></g><text x="949" y="135" text-anchor="middle" fill="#34d399" font-family="Inter,Arial,sans-serif" font-size="22" font-weight="600">✓</text><g><rect x="963" y="150" width="205" height="92" rx="20" fill="#0d2b55" stroke="#21d4fd" stroke-width="3"/><rect x="973" y="160" width="185" height="72" rx="14" fill="#0b1732" opacity=".45"/><text x="1065.5" y="203" text-anchor="middle" fill="#e9f8ff" font-family="Inter,Arial,sans-serif" font-size="18" font-weight="650">¿Autorización aprobada?</text></g><g><rect x="963" y="420" width="205" height="82" rx="20" fill="#4b3212" stroke="#fbbf24" stroke-width="3"/><rect x="973" y="430" width="185" height="62" rx="14" fill="#0b1732" opacity=".45"/><text x="1065.5" y="468" text-anchor="middle" fill="#fff8df" font-family="Inter,Arial,sans-serif" font-size="18" font-weight="650">Revisar política</text></g><g><path d="M1065 242L1065 420" stroke="url(#line)" stroke-width="5" fill="none" marker-end="url(#arrow)"  filter="url(#glow)"/></g><text x="1065" y="385" text-anchor="middle" fill="#fbbf24" font-family="Inter,Arial,sans-serif" font-size="24" font-weight="600">×</text></svg>