<svg xmlns="http://www.w3.org/2000/svg" viewBox="0 0 1200 620" role="img" aria-label="Integración de pagos B2B">
    <defs>
    <linearGradient id="bg" x1="0" y1="0" x2="1" y2="1"><stop stop-color="#071126"/><stop offset="1" stop-color="#111c3f"/></linearGradient>
    <linearGradient id="line" x1="0" y1="0" x2="1" y2="0"><stop stop-color="#21d4fd"/><stop offset="1" stop-color="#a855f7"/></linearGradient>
    <filter id="glow"><feGaussianBlur stdDeviation="4" result="b"/><feMerge><feMergeNode in="b"/><feMergeNode in="SourceGraphic"/></feMerge></filter>
    <marker id="arrow" viewBox="0 0 10 10" refX="9" refY="5" markerWidth="8" markerHeight="8" orient="auto-start-reverse"><path d="M0 0L10 5L0 10Z" fill="#55dcff"/></marker>
  </defs><rect width="1200" height="620" rx="34" fill="url(#bg)"/>
    <path d="M40 102H1160" stroke="#243e72" stroke-width="2"/><text x="60" y="70" fill="#f2f7ff" font-family="Inter,Arial,sans-serif" font-size="30" font-weight="700">Integración de pagos B2B</text>
    <g><rect x="30" y="250" width="190" height="110" rx="20" fill="#0d2b55" stroke="#21d4fd" stroke-width="3"/><rect x="40" y="260" width="170" height="90" rx="14" fill="#0b1732" opacity=".45"/><text x="125" y="312" text-anchor="middle" fill="#e9f8ff" font-family="Inter,Arial,sans-serif" font-size="22" font-weight="650">Socio</text></g><g><rect x="270" y="250" width="190" height="110" rx="20" fill="#25175a" stroke="#a855f7" stroke-width="3"/><rect x="280" y="260" width="170" height="90" rx="14" fill="#0b1732" opacity=".45"/><text x="365" y="312" text-anchor="middle" fill="#f5ecff" font-family="Inter,Arial,sans-serif" font-size="22" font-weight="650">WAF / Borde</text></g><g><rect x="520" y="230" width="210" height="150" rx="20" fill="#0d2b55" stroke="#21d4fd" stroke-width="3"/><rect x="530" y="240" width="190" height="130" rx="14" fill="#0b1732" opacity=".45"/><text x="625" y="312" text-anchor="middle" fill="#e9f8ff" font-family="Inter,Arial,sans-serif" font-size="22" font-weight="650">API Gateway</text></g><g><rect x="790" y="250" width="210" height="110" rx="20" fill="#123c42" stroke="#34d399" stroke-width="3"/><rect x="800" y="260" width="190" height="90" rx="14" fill="#0b1732" opacity=".45"/><text x="895" y="312" text-anchor="middle" fill="#ecfdf5" font-family="Inter,Arial,sans-serif" font-size="22" font-weight="650">Servicio de pagos</text></g><g><rect x="1040" y="250" width="130" height="110" rx="20" fill="#4b3212" stroke="#fbbf24" stroke-width="3"/><rect x="1050" y="260" width="110" height="90" rx="14" fill="#0b1732" opacity=".45"/><text x="1105" y="312" text-anchor="middle" fill="#fff8df" font-family="Inter,Arial,sans-serif" font-size="19" font-weight="650">Auditoría</text></g><g><path d="M220 305L270 305" stroke="url(#line)" stroke-width="5" fill="none" marker-end="url(#arrow)"  filter="url(#glow)"/></g><g><path d="M460 305L520 305" stroke="url(#line)" stroke-width="5" fill="none" marker-end="url(#arrow)"  filter="url(#glow)"/></g><g><path d="M730 305L790 305" stroke="url(#line)" stroke-width="5" fill="none" marker-end="url(#arrow)"  filter="url(#glow)"/></g><g><path d="M1000 305L1040 305" stroke="url(#line)" stroke-width="5" fill="none" marker-end="url(#arrow)"  filter="url(#glow)"/></g><text x="245" y="220" text-anchor="middle" fill="#d9f7ff" font-family="Inter,Arial,sans-serif" font-size="17" font-weight="600">mTLS externo</text><text x="490" y="220" text-anchor="middle" fill="#d9f7ff" font-family="Inter,Arial,sans-serif" font-size="17" font-weight="600">Identidad + token</text><text x="760" y="220" text-anchor="middle" fill="#d9f7ff" font-family="Inter,Arial,sans-serif" font-size="17" font-weight="600">mTLS interno</text></svg>