<svg xmlns="http://www.w3.org/2000/svg" viewBox="0 0 1200 620"><defs><linearGradient id="b" x2="1" y2="1"><stop stop-color="#031426"/><stop offset="1" stop-color="#190b35"/></linearGradient><marker id="a" markerWidth="10" markerHeight="10" refX="8" refY="3" orient="auto"><path d="M0 0L9 3L0 6Z" fill="#5ce8d4"/></marker></defs><rect width="1200" height="620" rx="34" fill="url(#b)"/><g font-family="Inter,Segoe UI,sans-serif"><rect x="35" y="225" width="210" height="160" rx="20" fill="#0a2142" stroke="#5ce8d4" stroke-width="3"/><text x="140" y="273" text-anchor="middle" font-size="21" font-weight="700" fill="#f4f8ff">Publisher</text><path d="M245 305L385 305" stroke="#5ce8d4" stroke-width="4" marker-end="url(#a)"/><rect x="385" y="225" width="250" height="160" rx="20" fill="#0a2142" stroke="#a47bff" stroke-width="3"/><text x="510" y="273" text-anchor="middle" font-size="21" font-weight="700" fill="#f4f8ff">Exchange</text><text x="510" y="305" text-anchor="middle" font-size="14" font-weight="700" fill="#b8cce2">type + bindings</text><path d="M635 260L850 190" stroke="#5ce8d4" stroke-width="4" marker-end="url(#a)"/><path d="M635 305L850 340" stroke="#5ce8d4" stroke-width="4" marker-end="url(#a)"/><path d="M635 350L850 490" stroke="#5ce8d4" stroke-width="4" marker-end="url(#a)"/><rect x="850" y="120" width="280" height="120" rx="20" fill="#0a2142" stroke="#5ce8d4" stroke-width="3"/><text x="990" y="168" text-anchor="middle" font-size="21" font-weight="700" fill="#f4f8ff">queue A</text><text x="990" y="200" text-anchor="middle" font-size="14" font-weight="700" fill="#b8cce2">Consumers</text><rect x="850" y="270" width="280" height="120" rx="20" fill="#0a2142" stroke="#5ce8d4" stroke-width="3"/><text x="990" y="318" text-anchor="middle" font-size="21" font-weight="700" fill="#f4f8ff">queue B</text><text x="990" y="350" text-anchor="middle" font-size="14" font-weight="700" fill="#b8cce2">Consumers</text><rect x="850" y="420" width="280" height="120" rx="20" fill="#0a2142" stroke="#5ce8d4" stroke-width="3"/><text x="990" y="468" text-anchor="middle" font-size="21" font-weight="700" fill="#f4f8ff">queue C</text><text x="990" y="500" text-anchor="middle" font-size="14" font-weight="700" fill="#b8cce2">Consumers</text></g></svg>