<svg xmlns="http://www.w3.org/2000/svg" viewBox="0 0 1200 600"><defs><linearGradient id="bg" x2="1" y2="1"><stop stop-color="#06152c"/><stop offset="1" stop-color="#140b2d"/></linearGradient><marker id="a" markerWidth="10" markerHeight="10" refX="8" refY="3" orient="auto"><path d="M0 0L9 3L0 6Z" fill="#55e8d5"/></marker></defs><rect width="1200" height="600" rx="34" fill="url(#bg)"/><g font-family="Inter,Segoe UI,sans-serif"><rect x="55" y="190" width="250" height="200" rx="22" fill="#0b1d3b" stroke="#55e8d5" stroke-width="3"/><rect x="73" y="208" width="8" height="164" rx="4" fill="#55e8d5"/><text x="180" y="238" text-anchor="middle" font-size="23" font-weight="700" fill="#eef8ff">Timeout</text><text x="180" y="273" text-anchor="middle" font-size="17" font-weight="700" fill="#acc3dc">limits waiting</text><rect x="345" y="190" width="250" height="200" rx="22" fill="#0b1d3b" stroke="#4ba8ff" stroke-width="3"/><rect x="363" y="208" width="8" height="164" rx="4" fill="#4ba8ff"/><text x="470" y="238" text-anchor="middle" font-size="23" font-weight="700" fill="#eef8ff">Retry</text><text x="470" y="273" text-anchor="middle" font-size="17" font-weight="700" fill="#acc3dc">controlled new attempt</text><rect x="635" y="190" width="250" height="200" rx="22" fill="#0b1d3b" stroke="#9f78ff" stroke-width="3"/><rect x="653" y="208" width="8" height="164" rx="4" fill="#9f78ff"/><text x="760" y="238" text-anchor="middle" font-size="23" font-weight="700" fill="#eef8ff">Circuit breaker</text><text x="760" y="273" text-anchor="middle" font-size="17" font-weight="700" fill="#acc3dc">stops cascading failure</text><rect x="925" y="190" width="250" height="200" rx="22" fill="#0b1d3b" stroke="#ffb25e" stroke-width="3"/><rect x="943" y="208" width="8" height="164" rx="4" fill="#ffb25e"/><text x="1050" y="238" text-anchor="middle" font-size="23" font-weight="700" fill="#eef8ff">Fallback</text><text x="1050" y="273" text-anchor="middle" font-size="17" font-weight="700" fill="#acc3dc">degraded response</text><path d="M305 290L340 290" stroke="#55e8d5" stroke-width="4" marker-end="url(#a)"/><path d="M595 290L630 290" stroke="#55e8d5" stroke-width="4" marker-end="url(#a)"/><path d="M885 290L920 290" stroke="#55e8d5" stroke-width="4" marker-end="url(#a)"/></g></svg>