<svg xmlns="http://www.w3.org/2000/svg" viewBox="0 0 1200 600"><defs><linearGradient id="bg" x2="1" y2="1"><stop stop-color="#06152c"/><stop offset="1" stop-color="#140b2d"/></linearGradient><marker id="a" markerWidth="10" markerHeight="10" refX="8" refY="3" orient="auto"><path d="M0 0L9 3L0 6Z" fill="#55e8d5"/></marker></defs><rect width="1200" height="600" rx="34" fill="url(#bg)"/><g font-family="Inter,Segoe UI,sans-serif"><rect x="35" y="210" width="165" height="155" rx="22" fill="#0b1d3b" stroke="#55e8d5" stroke-width="3"/><rect x="53" y="228" width="8" height="119" rx="4" fill="#55e8d5"/><text x="117.5" y="258" text-anchor="middle" font-size="23" font-weight="700" fill="#eef8ff">1</text><text x="117.5" y="293" text-anchor="middle" font-size="17" font-weight="700" fill="#acc3dc">Correlate</text><rect x="228" y="210" width="165" height="155" rx="22" fill="#0b1d3b" stroke="#55e8d5" stroke-width="3"/><rect x="246" y="228" width="8" height="119" rx="4" fill="#55e8d5"/><text x="310.5" y="258" text-anchor="middle" font-size="23" font-weight="700" fill="#eef8ff">2</text><text x="310.5" y="293" text-anchor="middle" font-size="17" font-weight="700" fill="#acc3dc">Authenticate</text><rect x="421" y="210" width="165" height="155" rx="22" fill="#0b1d3b" stroke="#55e8d5" stroke-width="3"/><rect x="439" y="228" width="8" height="119" rx="4" fill="#55e8d5"/><text x="503.5" y="258" text-anchor="middle" font-size="23" font-weight="700" fill="#eef8ff">3</text><text x="503.5" y="293" text-anchor="middle" font-size="17" font-weight="700" fill="#acc3dc">Authorize</text><rect x="614" y="210" width="165" height="155" rx="22" fill="#0b1d3b" stroke="#55e8d5" stroke-width="3"/><rect x="632" y="228" width="8" height="119" rx="4" fill="#55e8d5"/><text x="696.5" y="258" text-anchor="middle" font-size="23" font-weight="700" fill="#eef8ff">4</text><text x="696.5" y="293" text-anchor="middle" font-size="17" font-weight="700" fill="#acc3dc">Limit</text><rect x="807" y="210" width="165" height="155" rx="22" fill="#0b1d3b" stroke="#9f78ff" stroke-width="3"/><rect x="825" y="228" width="8" height="119" rx="4" fill="#9f78ff"/><text x="889.5" y="258" text-anchor="middle" font-size="23" font-weight="700" fill="#eef8ff">5</text><text x="889.5" y="293" text-anchor="middle" font-size="17" font-weight="700" fill="#acc3dc">Transform</text><rect x="1000" y="210" width="165" height="155" rx="22" fill="#0b1d3b" stroke="#9f78ff" stroke-width="3"/><rect x="1018" y="228" width="8" height="119" rx="4" fill="#9f78ff"/><text x="1082.5" y="258" text-anchor="middle" font-size="23" font-weight="700" fill="#eef8ff">6</text><text x="1082.5" y="293" text-anchor="middle" font-size="17" font-weight="700" fill="#acc3dc">Route</text><path d="M200 287L223 287" stroke="#55e8d5" stroke-width="4" marker-end="url(#a)"/><path d="M393 287L416 287" stroke="#55e8d5" stroke-width="4" marker-end="url(#a)"/><path d="M586 287L609 287" stroke="#55e8d5" stroke-width="4" marker-end="url(#a)"/><path d="M779 287L802 287" stroke="#55e8d5" stroke-width="4" marker-end="url(#a)"/><path d="M972 287L995 287" stroke="#55e8d5" stroke-width="4" marker-end="url(#a)"/></g></svg>