<svg xmlns="http://www.w3.org/2000/svg" viewBox="0 0 1200 600"><defs><linearGradient id="bg" x2="1" y2="1"><stop stop-color="#06152c"/><stop offset="1" stop-color="#140b2d"/></linearGradient><marker id="a" markerWidth="10" markerHeight="10" refX="8" refY="3" orient="auto"><path d="M0 0L9 3L0 6Z" fill="#55e8d5"/></marker></defs><rect width="1200" height="600" rx="34" fill="url(#bg)"/><g font-family="Inter,Segoe UI,sans-serif"><rect x="35" y="220" width="200" height="150" rx="22" fill="#0b1d3b" stroke="#55e8d5" stroke-width="3"/><rect x="53" y="238" width="8" height="114" rx="4" fill="#55e8d5"/><text x="135" y="268" text-anchor="middle" font-size="23" font-weight="700" fill="#eef8ff">Receive</text><text x="135" y="303" text-anchor="middle" font-size="17" font-weight="700" fill="#acc3dc">policy 1</text><rect x="267" y="220" width="200" height="150" rx="22" fill="#0b1d3b" stroke="#55e8d5" stroke-width="3"/><rect x="285" y="238" width="8" height="114" rx="4" fill="#55e8d5"/><text x="367" y="268" text-anchor="middle" font-size="23" font-weight="700" fill="#eef8ff">Protect</text><text x="367" y="303" text-anchor="middle" font-size="17" font-weight="700" fill="#acc3dc">policy 2</text><rect x="499" y="220" width="200" height="150" rx="22" fill="#0b1d3b" stroke="#9f78ff" stroke-width="3"/><rect x="517" y="238" width="8" height="114" rx="4" fill="#9f78ff"/><text x="599" y="268" text-anchor="middle" font-size="23" font-weight="700" fill="#eef8ff">Mediate</text><text x="599" y="303" text-anchor="middle" font-size="17" font-weight="700" fill="#acc3dc">policy 3</text><rect x="731" y="220" width="200" height="150" rx="22" fill="#0b1d3b" stroke="#9f78ff" stroke-width="3"/><rect x="749" y="238" width="8" height="114" rx="4" fill="#9f78ff"/><text x="831" y="268" text-anchor="middle" font-size="23" font-weight="700" fill="#eef8ff">Observe</text><text x="831" y="303" text-anchor="middle" font-size="17" font-weight="700" fill="#acc3dc">policy 4</text><rect x="963" y="220" width="200" height="150" rx="22" fill="#0b1d3b" stroke="#ffb25e" stroke-width="3"/><rect x="981" y="238" width="8" height="114" rx="4" fill="#ffb25e"/><text x="1063" y="268" text-anchor="middle" font-size="23" font-weight="700" fill="#eef8ff">Respond</text><text x="1063" y="303" text-anchor="middle" font-size="17" font-weight="700" fill="#acc3dc">policy 5</text><path d="M235 295L262 295" stroke="#55e8d5" stroke-width="4" marker-end="url(#a)"/><path d="M467 295L494 295" stroke="#55e8d5" stroke-width="4" marker-end="url(#a)"/><path d="M699 295L726 295" stroke="#55e8d5" stroke-width="4" marker-end="url(#a)"/><path d="M931 295L958 295" stroke="#55e8d5" stroke-width="4" marker-end="url(#a)"/></g></svg>