<svg xmlns="http://www.w3.org/2000/svg" viewBox="0 0 1200 620"><defs><linearGradient id="bg" x2="1" y2="1"><stop stop-color="#031326"/><stop offset="1" stop-color="#1a0a35"/></linearGradient><marker id="a" markerWidth="11" markerHeight="11" refX="9" refY="3" orient="auto"><path d="M0 0L10 3L0 6Z" fill="#5ce8d4"/></marker></defs><rect width="1200" height="620" rx="34" fill="url(#bg)"/><g font-family="Inter,Segoe UI,sans-serif"><rect x="25" y="225" width="205" height="165" rx="22" fill="#0b2142" stroke="#5ce8d4" stroke-width="3"/><text x="127.5" y="277" text-anchor="middle" font-size="23" font-weight="700" fill="#f4f8ff">Borda</text><text x="127.5" y="313" text-anchor="middle" font-size="15" font-weight="700" fill="#b8cce2">IP / conexão</text><rect x="260" y="225" width="205" height="165" rx="22" fill="#0b2142" stroke="#5ce8d4" stroke-width="3"/><text x="362.5" y="277" text-anchor="middle" font-size="23" font-weight="700" fill="#f4f8ff">Autenticação</text><text x="362.5" y="313" text-anchor="middle" font-size="15" font-weight="700" fill="#b8cce2">client_id / sub</text><rect x="495" y="225" width="205" height="165" rx="22" fill="#0b2142" stroke="#5ce8d4" stroke-width="3"/><text x="597.5" y="277" text-anchor="middle" font-size="23" font-weight="700" fill="#f4f8ff">Gateway</text><text x="597.5" y="313" text-anchor="middle" font-size="15" font-weight="700" fill="#b8cce2">operação / produto</text><rect x="730" y="225" width="205" height="165" rx="22" fill="#0b2142" stroke="#a47bff" stroke-width="3"/><text x="832.5" y="277" text-anchor="middle" font-size="23" font-weight="700" fill="#f4f8ff">Backend</text><text x="832.5" y="313" text-anchor="middle" font-size="15" font-weight="700" fill="#b8cce2">custo / concorrência</text><rect x="965" y="225" width="205" height="165" rx="22" fill="#0b2142" stroke="#ff718d" stroke-width="3"/><text x="1067.5" y="277" text-anchor="middle" font-size="23" font-weight="700" fill="#f4f8ff">Resposta</text><text x="1067.5" y="313" text-anchor="middle" font-size="15" font-weight="700" fill="#b8cce2">429 + Retry-After</text><path d="M230 307L260 307" stroke="#5ce8d4" stroke-width="5" marker-end="url(#a)"/><path d="M465 307L495 307" stroke="#5ce8d4" stroke-width="5" marker-end="url(#a)"/><path d="M700 307L730 307" stroke="#5ce8d4" stroke-width="5" marker-end="url(#a)"/><path d="M935 307L965 307" stroke="#5ce8d4" stroke-width="5" marker-end="url(#a)"/></g></svg>