<svg xmlns="http://www.w3.org/2000/svg" viewBox="0 0 1200 620" role="img" aria-label="Pipeline de contrato: fallar pronto y publicar con evidencias"><defs><linearGradient id="g" x1="0" x2="1"><stop stop-color="#26d9ff"/><stop offset="1" stop-color="#a579ff"/></linearGradient><filter id="glow"><feGaussianBlur stdDeviation="5" result="b"/><feMerge><feMergeNode in="b"/><feMergeNode in="SourceGraphic"/></feMerge></filter></defs><rect width="1200" height="620" rx="28" fill="#070d22"/><path d="M0 90H1200M0 530H1200" stroke="#243b69" opacity=".35"/><text x="60" y="72" fill="#edf6ff" font-family="Inter,Arial,sans-serif" font-size="30" font-weight="700">Pipeline de contrato: fallar pronto y publicar con evidencias</text><rect x="30" y="165" width="160" height="145" rx="18" fill="#0d1732" stroke="#a579ff" stroke-width="2"/><circle cx="110" cy="195" r="13" fill="#a579ff" filter="url(#glow)"/><text x="110" y="240" text-anchor="middle" fill="#edf6ff" font-family="Inter,Arial,sans-serif" font-size="19" font-weight="700"><tspan x="110" dy="0">Pull request</tspan></text><text x="110" y="278" text-anchor="middle" fill="#9fb3cd" font-family="Inter,Arial,sans-serif" font-size="15" font-weight="500"><tspan x="110" dy="0">cambio OAS</tspan></text><path d="M190 238H209" stroke="#a579ff" stroke-width="4" filter="url(#glow)"/><path d="M202 229L218 238L202 247Z" fill="#a579ff"/><rect x="224" y="165" width="160" height="145" rx="18" fill="#0d1732" stroke="#26d9ff" stroke-width="2"/><circle cx="304" cy="195" r="13" fill="#26d9ff" filter="url(#glow)"/><text x="304" y="240" text-anchor="middle" fill="#edf6ff" font-family="Inter,Arial,sans-serif" font-size="19" font-weight="700"><tspan x="304" dy="0">Parser</tspan></text><text x="304" y="278" text-anchor="middle" fill="#9fb3cd" font-family="Inter,Arial,sans-serif" font-size="15" font-weight="500"><tspan x="304" dy="0">estructura</tspan><tspan x="304" dy="18.75">válida</tspan></text><path d="M384 238H403" stroke="#26d9ff" stroke-width="4" filter="url(#glow)"/><path d="M396 229L412 238L396 247Z" fill="#26d9ff"/><rect x="418" y="165" width="160" height="145" rx="18" fill="#0d1732" stroke="#35f2c1" stroke-width="2"/><circle cx="498" cy="195" r="13" fill="#35f2c1" filter="url(#glow)"/><text x="498" y="240" text-anchor="middle" fill="#edf6ff" font-family="Inter,Arial,sans-serif" font-size="19" font-weight="700"><tspan x="498" dy="0">Linter</tspan></text><text x="498" y="278" text-anchor="middle" fill="#9fb3cd" font-family="Inter,Arial,sans-serif" font-size="15" font-weight="500"><tspan x="498" dy="0">reglas internas</tspan></text><path d="M578 238H597" stroke="#35f2c1" stroke-width="4" filter="url(#glow)"/><path d="M590 229L606 238L590 247Z" fill="#35f2c1"/><rect x="612" y="165" width="160" height="145" rx="18" fill="#0d1732" stroke="#ffc861" stroke-width="2"/><circle cx="692" cy="195" r="13" fill="#ffc861" filter="url(#glow)"/><text x="692" y="240" text-anchor="middle" fill="#edf6ff" font-family="Inter,Arial,sans-serif" font-size="19" font-weight="700"><tspan x="692" dy="0">Diff</tspan></text><text x="692" y="278" text-anchor="middle" fill="#9fb3cd" font-family="Inter,Arial,sans-serif" font-size="15" font-weight="500"><tspan x="692" dy="0">compatibilidad</tspan></text><path d="M772 238H791" stroke="#ffc861" stroke-width="4" filter="url(#glow)"/><path d="M784 229L800 238L784 247Z" fill="#ffc861"/><rect x="806" y="165" width="160" height="145" rx="18" fill="#0d1732" stroke="#67e88c" stroke-width="2"/><circle cx="886" cy="195" r="13" fill="#67e88c" filter="url(#glow)"/><text x="886" y="240" text-anchor="middle" fill="#edf6ff" font-family="Inter,Arial,sans-serif" font-size="19" font-weight="700"><tspan x="886" dy="0">Pruebas</tspan></text><text x="886" y="278" text-anchor="middle" fill="#9fb3cd" font-family="Inter,Arial,sans-serif" font-size="15" font-weight="500"><tspan x="886" dy="0">mock y contrato</tspan></text><path d="M966 238H985" stroke="#67e88c" stroke-width="4" filter="url(#glow)"/><path d="M978 229L994 238L978 247Z" fill="#67e88c"/><rect x="1000" y="165" width="160" height="145" rx="18" fill="#0d1732" stroke="#a579ff" stroke-width="2"/><circle cx="1080" cy="195" r="13" fill="#a579ff" filter="url(#glow)"/><text x="1080" y="240" text-anchor="middle" fill="#edf6ff" font-family="Inter,Arial,sans-serif" font-size="19" font-weight="700"><tspan x="1080" dy="0">Publicación</tspan></text><text x="1080" y="278" text-anchor="middle" fill="#9fb3cd" font-family="Inter,Arial,sans-serif" font-size="15" font-weight="500"><tspan x="1080" dy="0">portal /</tspan><tspan x="1080" dy="18.75">gateway</tspan></text><rect x="110" y="370" width="980" height="130" rx="18" fill="#0d1732" stroke="#26d9ff" stroke-width="2"/><text x="600" y="415" text-anchor="middle" fill="#26d9ff" font-family="Inter,Arial,sans-serif" font-size="22" font-weight="700"><tspan x="600" dy="0">Políticas típicas</tspan></text><text x="600" y="458" text-anchor="middle" fill="#edf6ff" font-family="Inter,Arial,sans-serif" font-size="17" font-weight="500"><tspan x="600" dy="0">operationId único • respuestas mínimas • schemas cerrados • ejemplos válidos • seguridad</tspan><tspan x="600" dy="21.25">declarada • cambios sin ruptura</tspan></text></svg>