<svg xmlns="http://www.w3.org/2000/svg" viewBox="0 0 1200 620"><defs><linearGradient id="b" x2="1" y2="1"><stop stop-color="#031426"/><stop offset="1" stop-color="#190b35"/></linearGradient><marker id="a" markerWidth="10" markerHeight="10" refX="8" refY="3" orient="auto"><path d="M0 0L9 3L0 6Z" fill="#5ce8d4"/></marker></defs><rect width="1200" height="620" rx="34" fill="url(#b)"/><g font-family="Inter,Segoe UI,sans-serif"><rect x="70" y="145" width="460" height="150" rx="20" fill="#0a2142" stroke="#5ce8d4" stroke-width="3"/><text x="300" y="193" text-anchor="middle" font-size="21" font-weight="700" fill="#f4f8ff">Cola</text><text x="300" y="225" text-anchor="middle" font-size="14" font-weight="700" fill="#b8cce2">el consumo elimina o confirma</text><rect x="105" y="340" width="70" height="70" rx="20" fill="#0a2142" stroke="#5ce8d4" stroke-width="3"/><text x="140" y="388" text-anchor="middle" font-size="21" font-weight="700" fill="#f4f8ff">1</text><rect x="205" y="340" width="70" height="70" rx="20" fill="#0a2142" stroke="#5ce8d4" stroke-width="3"/><text x="240" y="388" text-anchor="middle" font-size="21" font-weight="700" fill="#f4f8ff">2</text><rect x="305" y="340" width="70" height="70" rx="20" fill="#0a2142" stroke="#5ce8d4" stroke-width="3"/><text x="340" y="388" text-anchor="middle" font-size="21" font-weight="700" fill="#f4f8ff">3</text><rect x="405" y="340" width="70" height="70" rx="20" fill="#0a2142" stroke="#5ce8d4" stroke-width="3"/><text x="440" y="388" text-anchor="middle" font-size="21" font-weight="700" fill="#f4f8ff">4</text><rect x="670" y="145" width="460" height="150" rx="20" fill="#0a2142" stroke="#a47bff" stroke-width="3"/><text x="900" y="193" text-anchor="middle" font-size="21" font-weight="700" fill="#f4f8ff">Log particionado</text><text x="900" y="225" text-anchor="middle" font-size="14" font-weight="700" fill="#b8cce2">retención + replay</text><rect x="695" y="340" width="62" height="70" rx="20" fill="#0a2142" stroke="#a47bff" stroke-width="3"/><text x="726" y="388" text-anchor="middle" font-size="21" font-weight="700" fill="#f4f8ff">0</text><rect x="777" y="340" width="62" height="70" rx="20" fill="#0a2142" stroke="#a47bff" stroke-width="3"/><text x="808" y="388" text-anchor="middle" font-size="21" font-weight="700" fill="#f4f8ff">1</text><rect x="859" y="340" width="62" height="70" rx="20" fill="#0a2142" stroke="#a47bff" stroke-width="3"/><text x="890" y="388" text-anchor="middle" font-size="21" font-weight="700" fill="#f4f8ff">2</text><rect x="941" y="340" width="62" height="70" rx="20" fill="#0a2142" stroke="#a47bff" stroke-width="3"/><text x="972" y="388" text-anchor="middle" font-size="21" font-weight="700" fill="#f4f8ff">3</text><rect x="1023" y="340" width="62" height="70" rx="20" fill="#0a2142" stroke="#a47bff" stroke-width="3"/><text x="1054" y="388" text-anchor="middle" font-size="21" font-weight="700" fill="#f4f8ff">4</text><text x="900" y="470" text-anchor="middle" font-size="18" font-weight="700" fill="#ffca68">offset del consumidor</text></g></svg>