<svg xmlns="http://www.w3.org/2000/svg" viewBox="0 0 1200 620" role="img" aria-label="Constraints that form the REST style"><defs><linearGradient id="bg" x1="0%" y1="0%" x2="100%" y2="100%"><stop stop-color="#061126"/><stop offset="1" stop-color="#15163d"/></linearGradient><filter id="glow"><feGaussianBlur stdDeviation="3" result="b"/><feMerge><feMergeNode in="b"/><feMergeNode in="SourceGraphic"/></feMerge></filter><marker id="arrow" viewBox="0 0 10 10" refX="9" refY="5" markerWidth="8" markerHeight="8" orient="auto"><path d="M0 0L10 5L0 10Z" fill="#45ddff"/></marker></defs><rect width="1200" height="620" rx="34" fill="url(#bg)"/><path d="M42 102H1158" stroke="#274370" stroke-width="2"/><text x="60" y="69" fill="#f4f8ff" font-family="Inter,Arial,sans-serif" font-size="30" font-weight="700">Constraints that form the REST style</text><circle cx="600" cy="332" r="90" fill="#132c5b" stroke="#21d4fd" stroke-width="4"/><text x="600" y="344" text-anchor="middle" fill="#fff" font-family="Inter,Arial,sans-serif" font-size="38" font-weight="800">REST</text><g><rect x="60" y="145" width="335" height="100" rx="19" fill="#0a1c3b" stroke="#34d399" stroke-width="3"/><rect x="69" y="154" width="317" height="82" rx="13" fill="#112653" opacity=".75"/><text x="227.5" y="187" text-anchor="middle" fill="#f1f7ff" font-family="Inter,Arial,sans-serif" font-size="19" font-weight="700">Client-server</text><text x="227.5" y="220" text-anchor="middle" fill="#b9d8f4" font-family="Inter,Arial,sans-serif" font-size="17">separation of concerns</text></g><path d="M395 195L510 332" stroke="#45ddff" stroke-width="5" fill="none" marker-end="url(#arrow)" filter="url(#glow)"/><g><rect x="410" y="125" width="335" height="100" rx="19" fill="#0a1c3b" stroke="#a855f7" stroke-width="3"/><rect x="419" y="134" width="317" height="82" rx="13" fill="#112653" opacity=".75"/><text x="577.5" y="167" text-anchor="middle" fill="#f1f7ff" font-family="Inter,Arial,sans-serif" font-size="19" font-weight="700">Stateless</text><text x="577.5" y="200" text-anchor="middle" fill="#b9d8f4" font-family="Inter,Arial,sans-serif" font-size="17">context in every request</text></g><path d="M745 175L510 332" stroke="#45ddff" stroke-width="5" fill="none" marker-end="url(#arrow)" filter="url(#glow)"/><g><rect x="805" y="145" width="335" height="100" rx="19" fill="#0a1c3b" stroke="#34d399" stroke-width="3"/><rect x="814" y="154" width="317" height="82" rx="13" fill="#112653" opacity=".75"/><text x="972.5" y="187" text-anchor="middle" fill="#f1f7ff" font-family="Inter,Arial,sans-serif" font-size="19" font-weight="700">Cache</text><text x="972.5" y="220" text-anchor="middle" fill="#b9d8f4" font-family="Inter,Arial,sans-serif" font-size="17">controlled response reuse</text></g><path d="M805 195L690 332" stroke="#45ddff" stroke-width="5" fill="none" marker-end="url(#arrow)" filter="url(#glow)"/><g><rect x="60" y="420" width="335" height="100" rx="19" fill="#0a1c3b" stroke="#a855f7" stroke-width="3"/><rect x="69" y="429" width="317" height="82" rx="13" fill="#112653" opacity=".75"/><text x="227.5" y="462" text-anchor="middle" fill="#f1f7ff" font-family="Inter,Arial,sans-serif" font-size="19" font-weight="700">Uniform interface</text><text x="227.5" y="495" text-anchor="middle" fill="#b9d8f4" font-family="Inter,Arial,sans-serif" font-size="17">shared semantics</text></g><path d="M395 470L510 332" stroke="#45ddff" stroke-width="5" fill="none" marker-end="url(#arrow)" filter="url(#glow)"/><g><rect x="410" y="445" width="335" height="100" rx="19" fill="#0a1c3b" stroke="#34d399" stroke-width="3"/><rect x="419" y="454" width="317" height="82" rx="13" fill="#112653" opacity=".75"/><text x="577.5" y="487" text-anchor="middle" fill="#f1f7ff" font-family="Inter,Arial,sans-serif" font-size="19" font-weight="700">Layered system</text><text x="577.5" y="520" text-anchor="middle" fill="#b9d8f4" font-family="Inter,Arial,sans-serif" font-size="17">transparent intermediaries</text></g><path d="M745 495L510 332" stroke="#45ddff" stroke-width="5" fill="none" marker-end="url(#arrow)" filter="url(#glow)"/><g><rect x="805" y="420" width="335" height="100" rx="19" fill="#0a1c3b" stroke="#a855f7" stroke-width="3"/><rect x="814" y="429" width="317" height="82" rx="13" fill="#112653" opacity=".75"/><text x="972.5" y="462" text-anchor="middle" fill="#f1f7ff" font-family="Inter,Arial,sans-serif" font-size="19" font-weight="700">Code on demand</text><text x="972.5" y="495" text-anchor="middle" fill="#b9d8f4" font-family="Inter,Arial,sans-serif" font-size="17">optional constraint</text></g><path d="M805 470L690 332" stroke="#45ddff" stroke-width="5" fill="none" marker-end="url(#arrow)" filter="url(#glow)"/></svg>