<svg xmlns="http://www.w3.org/2000/svg" viewBox="0 0 1200 620" role="img" aria-label="Resource, state, and representations"><defs><linearGradient id="bg" x1="0%" y1="0%" x2="100%" y2="100%"><stop stop-color="#061126"/><stop offset="1" stop-color="#15163d"/></linearGradient><filter id="glow"><feGaussianBlur stdDeviation="3" result="b"/><feMerge><feMergeNode in="b"/><feMergeNode in="SourceGraphic"/></feMerge></filter><marker id="arrow" viewBox="0 0 10 10" refX="9" refY="5" markerWidth="8" markerHeight="8" orient="auto"><path d="M0 0L10 5L0 10Z" fill="#45ddff"/></marker></defs><rect width="1200" height="620" rx="34" fill="url(#bg)"/><path d="M42 102H1158" stroke="#274370" stroke-width="2"/><text x="60" y="69" fill="#f4f8ff" font-family="Inter,Arial,sans-serif" font-size="30" font-weight="700">Resource, state, and representations</text><g><rect x="70" y="230" width="240" height="145" rx="19" fill="#0a1c3b" stroke="#21d4fd" stroke-width="3"/><rect x="79" y="239" width="222" height="127" rx="13" fill="#112653" opacity=".75"/><text x="190" y="294.5" text-anchor="middle" fill="#f1f7ff" font-family="Inter,Arial,sans-serif" font-size="22" font-weight="700">Resource</text><text x="190" y="327.5" text-anchor="middle" fill="#b9d8f4" font-family="Inter,Arial,sans-serif" font-size="11">account 123 · conceptual identity</text></g><g><rect x="480" y="230" width="240" height="145" rx="19" fill="#0a1c3b" stroke="#34d399" stroke-width="3"/><rect x="489" y="239" width="222" height="127" rx="13" fill="#112653" opacity=".75"/><text x="600" y="294.5" text-anchor="middle" fill="#f1f7ff" font-family="Inter,Arial,sans-serif" font-size="22" font-weight="700">Current state</text><text x="600" y="327.5" text-anchor="middle" fill="#b9d8f4" font-family="Inter,Arial,sans-serif" font-size="14">balance · holder · status</text></g><g><rect x="900" y="145" width="230" height="115" rx="19" fill="#0a1c3b" stroke="#a855f7" stroke-width="3"/><rect x="909" y="154" width="212" height="97" rx="13" fill="#112653" opacity=".75"/><text x="1015" y="194.5" text-anchor="middle" fill="#f1f7ff" font-family="Inter,Arial,sans-serif" font-size="22" font-weight="700">JSON</text><text x="1015" y="227.5" text-anchor="middle" fill="#b9d8f4" font-family="Inter,Arial,sans-serif" font-size="17">application/json</text></g><g><rect x="900" y="360" width="230" height="115" rx="19" fill="#0a1c3b" stroke="#fbbf24" stroke-width="3"/><rect x="909" y="369" width="212" height="97" rx="13" fill="#112653" opacity=".75"/><text x="1015" y="409.5" text-anchor="middle" fill="#f1f7ff" font-family="Inter,Arial,sans-serif" font-size="22" font-weight="700">HTML</text><text x="1015" y="442.5" text-anchor="middle" fill="#b9d8f4" font-family="Inter,Arial,sans-serif" font-size="17">text/html</text></g><path d="M310 302L480 302" stroke="#45ddff" stroke-width="5" fill="none" marker-end="url(#arrow)" filter="url(#glow)"/><path d="M720 275L900 205" stroke="#45ddff" stroke-width="5" fill="none" marker-end="url(#arrow)" filter="url(#glow)"/><path d="M720 330L900 417" stroke="#45ddff" stroke-width="5" fill="none" marker-end="url(#arrow)" filter="url(#glow)"/><text x="600" y="545" text-anchor="middle" fill="#cfe8ff" font-family="Inter,Arial,sans-serif" font-size="19">The URI identifies the resource; each representation carries a view of its state.</text></svg>