<svg xmlns="http://www.w3.org/2000/svg" viewBox="0 0 1200 620" role="img" aria-label="Nível 3: transições válidas no estado atual"><defs><linearGradient id="bg" x1="0%" y1="0%" x2="100%" y2="100%"><stop stop-color="#061126"/><stop offset="1" stop-color="#17143d"/></linearGradient><filter id="glow"><feGaussianBlur stdDeviation="3" result="b"/><feMerge><feMergeNode in="b"/><feMergeNode in="SourceGraphic"/></feMerge></filter><marker id="arrow" viewBox="0 0 10 10" refX="9" refY="5" markerWidth="8" markerHeight="8" orient="auto"><path d="M0 0L10 5L0 10Z" fill="#45ddff"/></marker></defs><rect width="1200" height="620" rx="34" fill="url(#bg)"/><path d="M42 102H1158" stroke="#294572" stroke-width="2"/><text x="60" y="69" fill="#f4f8ff" font-family="Inter,Arial,sans-serif" font-size="30" font-weight="700">Nível 3: transições válidas no estado atual</text><g><rect x="55" y="245" width="285" height="150" rx="19" fill="#0b1d3e" stroke="#45b8f2" stroke-width="3"/><rect x="64" y="254" width="267" height="132" rx="13" fill="#142b58" opacity=".82"/><text x="197.5" y="311" text-anchor="middle" fill="#f4f8ff" font-family="Inter,Arial,sans-serif" font-size="22" font-weight="700">Transferência criada</text><text x="197.5" y="345" text-anchor="middle" fill="#bed8ef" font-family="Inter,Arial,sans-serif" font-size="17">status: PENDENTE</text></g><g><rect x="510" y="135" width="250" height="110" rx="19" fill="#0b1d3e" stroke="#75d58c" stroke-width="3"/><rect x="519" y="144" width="232" height="92" rx="13" fill="#142b58" opacity=".82"/><text x="635" y="181" text-anchor="middle" fill="#f4f8ff" font-family="Inter,Arial,sans-serif" font-size="22" font-weight="700">Confirmar</text><text x="635" y="215" text-anchor="middle" fill="#bed8ef" font-family="Inter,Arial,sans-serif" font-size="17">rel: confirm</text></g><g><rect x="510" y="380" width="250" height="110" rx="19" fill="#0b1d3e" stroke="#f4c84b" stroke-width="3"/><rect x="519" y="389" width="232" height="92" rx="13" fill="#142b58" opacity=".82"/><text x="635" y="426" text-anchor="middle" fill="#f4f8ff" font-family="Inter,Arial,sans-serif" font-size="22" font-weight="700">Cancelar</text><text x="635" y="460" text-anchor="middle" fill="#bed8ef" font-family="Inter,Arial,sans-serif" font-size="17">rel: cancel</text></g><g><rect x="900" y="245" width="245" height="150" rx="19" fill="#0b1d3e" stroke="#f97373" stroke-width="3"/><rect x="909" y="254" width="227" height="132" rx="13" fill="#142b58" opacity=".82"/><text x="1022.5" y="311" text-anchor="middle" fill="#f4f8ff" font-family="Inter,Arial,sans-serif" font-size="22" font-weight="700">Consultar</text><text x="1022.5" y="345" text-anchor="middle" fill="#bed8ef" font-family="Inter,Arial,sans-serif" font-size="17">rel: self</text></g><path d="M340 300L510 190" stroke="#45ddff" stroke-width="5" fill="none" marker-end="url(#arrow)" filter="url(#glow)"/><path d="M340 340L510 435" stroke="#45ddff" stroke-width="5" fill="none" marker-end="url(#arrow)" filter="url(#glow)"/><path d="M340 320L900 320" stroke="#45ddff" stroke-width="5" fill="none" marker-end="url(#arrow)" filter="url(#glow)"/><text x="600" y="555" text-anchor="middle" fill="#cfe7ff" font-family="Inter,Arial,sans-serif" font-size="18">A representação expõe somente ações permitidas.</text></svg>