<svg xmlns="http://www.w3.org/2000/svg" viewBox="0 0 1200 620" role="img" aria-label="Nivel 2: semántica HTTP compartida"><defs><linearGradient id="bg" x1="0%" y1="0%" x2="100%" y2="100%"><stop stop-color="#061126"/><stop offset="1" stop-color="#17143d"/></linearGradient><filter id="glow"><feGaussianBlur stdDeviation="3" result="b"/><feMerge><feMergeNode in="b"/><feMergeNode in="SourceGraphic"/></feMerge></filter><marker id="arrow" viewBox="0 0 10 10" refX="9" refY="5" markerWidth="8" markerHeight="8" orient="auto"><path d="M0 0L10 5L0 10Z" fill="#45ddff"/></marker></defs><rect width="1200" height="620" rx="34" fill="url(#bg)"/><path d="M42 102H1158" stroke="#294572" stroke-width="2"/><text x="60" y="69" fill="#f4f8ff" font-family="Inter,Arial,sans-serif" font-size="30" font-weight="700">Nivel 2: semántica HTTP compartida</text><rect x="45" y="145" width="160" height="55" fill="#17436b"/><text x="125" y="180" text-anchor="middle" fill="#fff" font-family="Inter,Arial,sans-serif" font-size="19" font-weight="700">Método</text><rect x="205" y="145" width="230" height="55" fill="#17436b"/><text x="320" y="180" text-anchor="middle" fill="#fff" font-family="Inter,Arial,sans-serif" font-size="19" font-weight="700">Intención</text><rect x="435" y="145" width="340" height="55" fill="#17436b"/><text x="605" y="180" text-anchor="middle" fill="#fff" font-family="Inter,Arial,sans-serif" font-size="19" font-weight="700">Ejemplo</text><rect x="775" y="145" width="220" height="55" fill="#17436b"/><text x="885" y="180" text-anchor="middle" fill="#fff" font-family="Inter,Arial,sans-serif" font-size="19" font-weight="700">Respuesta</text><rect x="45" y="200" width="160" height="78" fill="#112b52" stroke="#294d78"/><text x="125" y="246" text-anchor="middle" fill="#eaf5ff" font-family="Inter,Arial,sans-serif" font-size="18" font-weight="700">GET</text><rect x="205" y="200" width="230" height="78" fill="#112b52" stroke="#294d78"/><text x="320" y="246" text-anchor="middle" fill="#eaf5ff" font-family="Inter,Arial,sans-serif" font-size="18" font-weight="500">leer</text><rect x="435" y="200" width="340" height="78" fill="#112b52" stroke="#294d78"/><text x="605" y="246" text-anchor="middle" fill="#eaf5ff" font-family="Inter,Arial,sans-serif" font-size="18" font-weight="500">/cuentas/991</text><rect x="775" y="200" width="220" height="78" fill="#112b52" stroke="#294d78"/><text x="885" y="246" text-anchor="middle" fill="#eaf5ff" font-family="Inter,Arial,sans-serif" font-size="18" font-weight="500">200 / 304</text><rect x="45" y="278" width="160" height="78" fill="#0d2244" stroke="#294d78"/><text x="125" y="324" text-anchor="middle" fill="#eaf5ff" font-family="Inter,Arial,sans-serif" font-size="18" font-weight="700">POST</text><rect x="205" y="278" width="230" height="78" fill="#0d2244" stroke="#294d78"/><text x="320" y="324" text-anchor="middle" fill="#eaf5ff" font-family="Inter,Arial,sans-serif" font-size="18" font-weight="500">crear/procesar</text><rect x="435" y="278" width="340" height="78" fill="#0d2244" stroke="#294d78"/><text x="605" y="324" text-anchor="middle" fill="#eaf5ff" font-family="Inter,Arial,sans-serif" font-size="18" font-weight="500">/transferencias</text><rect x="775" y="278" width="220" height="78" fill="#0d2244" stroke="#294d78"/><text x="885" y="324" text-anchor="middle" fill="#eaf5ff" font-family="Inter,Arial,sans-serif" font-size="18" font-weight="500">201 / 202</text><rect x="45" y="356" width="160" height="78" fill="#112b52" stroke="#294d78"/><text x="125" y="402" text-anchor="middle" fill="#eaf5ff" font-family="Inter,Arial,sans-serif" font-size="18" font-weight="700">PUT</text><rect x="205" y="356" width="230" height="78" fill="#112b52" stroke="#294d78"/><text x="320" y="402" text-anchor="middle" fill="#eaf5ff" font-family="Inter,Arial,sans-serif" font-size="18" font-weight="500">reemplazar</text><rect x="435" y="356" width="340" height="78" fill="#112b52" stroke="#294d78"/><text x="605" y="402" text-anchor="middle" fill="#eaf5ff" font-family="Inter,Arial,sans-serif" font-size="18" font-weight="500">/preferencias/483</text><rect x="775" y="356" width="220" height="78" fill="#112b52" stroke="#294d78"/><text x="885" y="402" text-anchor="middle" fill="#eaf5ff" font-family="Inter,Arial,sans-serif" font-size="18" font-weight="500">200 / 204</text><rect x="45" y="434" width="160" height="78" fill="#0d2244" stroke="#294d78"/><text x="125" y="480" text-anchor="middle" fill="#eaf5ff" font-family="Inter,Arial,sans-serif" font-size="18" font-weight="700">DELETE</text><rect x="205" y="434" width="230" height="78" fill="#0d2244" stroke="#294d78"/><text x="320" y="480" text-anchor="middle" fill="#eaf5ff" font-family="Inter,Arial,sans-serif" font-size="18" font-weight="500">eliminar</text><rect x="435" y="434" width="340" height="78" fill="#0d2244" stroke="#294d78"/><text x="605" y="480" text-anchor="middle" fill="#eaf5ff" font-family="Inter,Arial,sans-serif" font-size="18" font-weight="500">/programaciones/77</text><rect x="775" y="434" width="220" height="78" fill="#0d2244" stroke="#294d78"/><text x="885" y="480" text-anchor="middle" fill="#eaf5ff" font-family="Inter,Arial,sans-serif" font-size="18" font-weight="500">204 / 404</text></svg>