<svg xmlns="http://www.w3.org/2000/svg" viewBox="0 0 1200 620" role="img" aria-label="Ruta incremental de migración"><defs><linearGradient id="bg" x1="0%" y1="0%" x2="100%" y2="100%"><stop stop-color="#061126"/><stop offset="1" stop-color="#17143d"/></linearGradient><filter id="glow"><feGaussianBlur stdDeviation="3" result="b"/><feMerge><feMergeNode in="b"/><feMergeNode in="SourceGraphic"/></feMerge></filter><marker id="arrow" viewBox="0 0 10 10" refX="9" refY="5" markerWidth="8" markerHeight="8" orient="auto"><path d="M0 0L10 5L0 10Z" fill="#45ddff"/></marker></defs><rect width="1200" height="620" rx="34" fill="url(#bg)"/><path d="M42 102H1158" stroke="#294572" stroke-width="2"/><text x="60" y="69" fill="#f4f8ff" font-family="Inter,Arial,sans-serif" font-size="30" font-weight="700">Ruta incremental de migración</text><g><rect x="25" y="220" width="210" height="150" rx="19" fill="#0b1d3e" stroke="#f97373" stroke-width="3"/><rect x="34" y="229" width="192" height="132" rx="13" fill="#142b58" opacity=".82"/><text x="130" y="286" text-anchor="middle" fill="#f4f8ff" font-family="Inter,Arial,sans-serif" font-size="19" font-weight="700">1. Inventario</text><text x="130" y="320" text-anchor="middle" fill="#bed8ef" font-family="Inter,Arial,sans-serif" font-size="11">operaciones + consumidores + errores</text></g><path d="M235 295L260 295" stroke="#45ddff" stroke-width="5" fill="none" marker-end="url(#arrow)" filter="url(#glow)"/><g><rect x="260" y="220" width="210" height="150" rx="19" fill="#0b1d3e" stroke="#45b8f2" stroke-width="3"/><rect x="269" y="229" width="192" height="132" rx="13" fill="#142b58" opacity=".82"/><text x="365" y="286" text-anchor="middle" fill="#f4f8ff" font-family="Inter,Arial,sans-serif" font-size="19" font-weight="700">2. Recursos</text><text x="365" y="320" text-anchor="middle" fill="#bed8ef" font-family="Inter,Arial,sans-serif" font-size="13">identidad + ciclo de vida</text></g><path d="M470 295L495 295" stroke="#45ddff" stroke-width="5" fill="none" marker-end="url(#arrow)" filter="url(#glow)"/><g><rect x="495" y="220" width="210" height="150" rx="19" fill="#0b1d3e" stroke="#f4c84b" stroke-width="3"/><rect x="504" y="229" width="192" height="132" rx="13" fill="#142b58" opacity=".82"/><text x="600" y="286" text-anchor="middle" fill="#f4f8ff" font-family="Inter,Arial,sans-serif" font-size="19" font-weight="700">3. HTTP</text><text x="600" y="320" text-anchor="middle" fill="#bed8ef" font-family="Inter,Arial,sans-serif" font-size="11">métodos + status + precondiciones</text></g><path d="M705 295L730 295" stroke="#45ddff" stroke-width="5" fill="none" marker-end="url(#arrow)" filter="url(#glow)"/><g><rect x="730" y="220" width="210" height="150" rx="19" fill="#0b1d3e" stroke="#75d58c" stroke-width="3"/><rect x="739" y="229" width="192" height="132" rx="13" fill="#142b58" opacity=".82"/><text x="835" y="286" text-anchor="middle" fill="#f4f8ff" font-family="Inter,Arial,sans-serif" font-size="19" font-weight="700">4. Hipermedia</text><text x="835" y="320" text-anchor="middle" fill="#bed8ef" font-family="Inter,Arial,sans-serif" font-size="13">relaciones + transiciones</text></g><path d="M940 295L965 295" stroke="#45ddff" stroke-width="5" fill="none" marker-end="url(#arrow)" filter="url(#glow)"/><g><rect x="965" y="220" width="210" height="150" rx="19" fill="#0b1d3e" stroke="#a855f7" stroke-width="3"/><rect x="974" y="229" width="192" height="132" rx="13" fill="#142b58" opacity=".82"/><text x="1070" y="286" text-anchor="middle" fill="#f4f8ff" font-family="Inter,Arial,sans-serif" font-size="19" font-weight="700">5. Gobernanza</text><text x="1070" y="320" text-anchor="middle" fill="#bed8ef" font-family="Inter,Arial,sans-serif" font-size="11">contrato + pruebas + telemetría</text></g></svg>