<svg xmlns="http://www.w3.org/2000/svg" viewBox="0 0 1200 620" role="img" aria-label="Nivel 0: intenciones en una única dirección"><defs><linearGradient id="bg" x1="0%" y1="0%" x2="100%" y2="100%"><stop stop-color="#061126"/><stop offset="1" stop-color="#17143d"/></linearGradient><filter id="glow"><feGaussianBlur stdDeviation="3" result="b"/><feMerge><feMergeNode in="b"/><feMergeNode in="SourceGraphic"/></feMerge></filter><marker id="arrow" viewBox="0 0 10 10" refX="9" refY="5" markerWidth="8" markerHeight="8" orient="auto"><path d="M0 0L10 5L0 10Z" fill="#45ddff"/></marker></defs><rect width="1200" height="620" rx="34" fill="url(#bg)"/><path d="M42 102H1158" stroke="#294572" stroke-width="2"/><text x="60" y="69" fill="#f4f8ff" font-family="Inter,Arial,sans-serif" font-size="30" font-weight="700">Nivel 0: intenciones en una única dirección</text><g><rect x="35" y="145" width="230" height="90" rx="19" fill="#0b1d3e" stroke="#45b8f2" stroke-width="3"/><rect x="44" y="154" width="212" height="72" rx="13" fill="#142b58" opacity=".82"/><text x="150" y="181" text-anchor="middle" fill="#f4f8ff" font-family="Inter,Arial,sans-serif" font-size="21" font-weight="700">Aplicación móvil</text><text x="150" y="215" text-anchor="middle" fill="#bed8ef" font-family="Inter,Arial,sans-serif" font-size="17">consultar saldo</text></g><g><rect x="35" y="265" width="230" height="90" rx="19" fill="#0b1d3e" stroke="#a855f7" stroke-width="3"/><rect x="44" y="274" width="212" height="72" rx="13" fill="#142b58" opacity=".82"/><text x="150" y="301" text-anchor="middle" fill="#f4f8ff" font-family="Inter,Arial,sans-serif" font-size="21" font-weight="700">Portal</text><text x="150" y="335" text-anchor="middle" fill="#bed8ef" font-family="Inter,Arial,sans-serif" font-size="16">realizar transferencia</text></g><g><rect x="35" y="385" width="230" height="90" rx="19" fill="#0b1d3e" stroke="#f4c84b" stroke-width="3"/><rect x="44" y="394" width="212" height="72" rx="13" fill="#142b58" opacity=".82"/><text x="150" y="421" text-anchor="middle" fill="#f4f8ff" font-family="Inter,Arial,sans-serif" font-size="21" font-weight="700">Batch</text><text x="150" y="455" text-anchor="middle" fill="#bed8ef" font-family="Inter,Arial,sans-serif" font-size="17">emitir extracto</text></g><g><rect x="430" y="240" width="300" height="150" rx="19" fill="#0b1d3e" stroke="#a855f7" stroke-width="3"/><rect x="439" y="249" width="282" height="132" rx="13" fill="#142b58" opacity=".82"/><text x="580" y="306" text-anchor="middle" fill="#f4f8ff" font-family="Inter,Arial,sans-serif" font-size="23" font-weight="700">POST /servicio</text><text x="580" y="340" text-anchor="middle" fill="#bed8ef" font-family="Inter,Arial,sans-serif" font-size="17">operation + parámetros</text></g><g><rect x="920" y="260" width="240" height="110" rx="19" fill="#0b1d3e" stroke="#f97373" stroke-width="3"/><rect x="929" y="269" width="222" height="92" rx="13" fill="#142b58" opacity=".82"/><text x="1040" y="306" text-anchor="middle" fill="#f4f8ff" font-family="Inter,Arial,sans-serif" font-size="23" font-weight="700">Dispatcher</text><text x="1040" y="340" text-anchor="middle" fill="#bed8ef" font-family="Inter,Arial,sans-serif" font-size="17">switch por operación</text></g><path d="M265 190L430 280" stroke="#45ddff" stroke-width="5" fill="none" marker-end="url(#arrow)" filter="url(#glow)"/><path d="M265 310L430 315" stroke="#45ddff" stroke-width="5" fill="none" marker-end="url(#arrow)" filter="url(#glow)"/><path d="M265 430L430 350" stroke="#45ddff" stroke-width="5" fill="none" marker-end="url(#arrow)" filter="url(#glow)"/><path d="M730 315L920 315" stroke="#45ddff" stroke-width="5" fill="none" marker-end="url(#arrow)" filter="url(#glow)"/></svg>