<svg xmlns="http://www.w3.org/2000/svg" viewBox="0 0 1200 620" role="img" aria-label="Evolución según el Richardson Maturity Model"><defs><linearGradient id="bg" x1="0%" y1="0%" x2="100%" y2="100%"><stop stop-color="#061126"/><stop offset="1" stop-color="#17143d"/></linearGradient><filter id="glow"><feGaussianBlur stdDeviation="3" result="b"/><feMerge><feMergeNode in="b"/><feMergeNode in="SourceGraphic"/></feMerge></filter><marker id="arrow" viewBox="0 0 10 10" refX="9" refY="5" markerWidth="8" markerHeight="8" orient="auto"><path d="M0 0L10 5L0 10Z" fill="#45ddff"/></marker></defs><rect width="1200" height="620" rx="34" fill="url(#bg)"/><path d="M42 102H1158" stroke="#294572" stroke-width="2"/><text x="60" y="69" fill="#f4f8ff" font-family="Inter,Arial,sans-serif" font-size="30" font-weight="700">Evolución según el Richardson Maturity Model</text><g><rect x="35" y="350" width="250" height="120" rx="19" fill="#0b1d3e" stroke="#f97373" stroke-width="3"/><rect x="44" y="359" width="232" height="102" rx="13" fill="#142b58" opacity=".82"/><text x="160" y="401" text-anchor="middle" fill="#f4f8ff" font-family="Inter,Arial,sans-serif" font-size="20" font-weight="700">Nivel 0</text><text x="160" y="435" text-anchor="middle" fill="#bed8ef" font-family="Inter,Arial,sans-serif" font-size="11">Endpoint único · mensajes + operaciones</text></g><path d="M285 440L325 440" stroke="#45ddff" stroke-width="5" fill="none" marker-end="url(#arrow)" filter="url(#glow)"/><g><rect x="325" y="325" width="250" height="145" rx="19" fill="#0b1d3e" stroke="#45b8f2" stroke-width="3"/><rect x="334" y="334" width="232" height="127" rx="13" fill="#142b58" opacity=".82"/><text x="450" y="388.5" text-anchor="middle" fill="#f4f8ff" font-family="Inter,Arial,sans-serif" font-size="20" font-weight="700">Nivel 1</text><text x="450" y="422.5" text-anchor="middle" fill="#bed8ef" font-family="Inter,Arial,sans-serif" font-size="11">Recursos · identificadores distintos</text></g><path d="M575 440L615 440" stroke="#45ddff" stroke-width="5" fill="none" marker-end="url(#arrow)" filter="url(#glow)"/><g><rect x="615" y="300" width="250" height="170" rx="19" fill="#0b1d3e" stroke="#f4c84b" stroke-width="3"/><rect x="624" y="309" width="232" height="152" rx="13" fill="#142b58" opacity=".82"/><text x="740" y="376" text-anchor="middle" fill="#f4f8ff" font-family="Inter,Arial,sans-serif" font-size="20" font-weight="700">Nivel 2</text><text x="740" y="410" text-anchor="middle" fill="#bed8ef" font-family="Inter,Arial,sans-serif" font-size="11">Semántica HTTP · métodos + status + cache</text></g><path d="M865 440L905 440" stroke="#45ddff" stroke-width="5" fill="none" marker-end="url(#arrow)" filter="url(#glow)"/><g><rect x="905" y="275" width="250" height="195" rx="19" fill="#0b1d3e" stroke="#75d58c" stroke-width="3"/><rect x="914" y="284" width="232" height="177" rx="13" fill="#142b58" opacity=".82"/><text x="1030" y="363.5" text-anchor="middle" fill="#f4f8ff" font-family="Inter,Arial,sans-serif" font-size="20" font-weight="700">Nivel 3</text><text x="1030" y="397.5" text-anchor="middle" fill="#bed8ef" font-family="Inter,Arial,sans-serif" font-size="12">Hipermedia · links + transiciones</text></g></svg>