<svg xmlns="http://www.w3.org/2000/svg" width="1400" height="780" viewBox="0 0 1400 780" role="img" aria-labelledby="title desc"><title id="title">Cryptographic troubleshooting</title><desc id="desc">Diagnose the algorithm, parameters, key, encoding, and context.</desc><defs><linearGradient id="bg" x1="0" y1="0" x2="1" y2="1"><stop stop-color="#020617"/><stop offset=".55" stop-color="#071827"/><stop offset="1" stop-color="#171044"/></linearGradient><linearGradient id="card0"><stop stop-color="#082f49"/><stop offset="1" stop-color="#111827"/></linearGradient><linearGradient id="card1"><stop stop-color="#172554"/><stop offset="1" stop-color="#111827"/></linearGradient><linearGradient id="card2"><stop stop-color="#2e1065"/><stop offset="1" stop-color="#111827"/></linearGradient><marker id="arrow" markerWidth="9" markerHeight="9" refX="8" refY="3" orient="auto"><path d="M0,0 L0,6 L9,3 z" fill="#67e8f9"/></marker><pattern id="grid" width="42" height="42" patternUnits="userSpaceOnUse"><path d="M42 0H0V42" fill="none" stroke="#2563eb" opacity=".13"/></pattern></defs><rect width="1400" height="780" rx="28" fill="url(#bg)"/><rect width="1400" height="780" rx="28" fill="url(#grid)"/><circle cx="152" cy="110" r="115" fill="#06b6d4" opacity=".08"/><circle cx="1245" cy="652" r="175" fill="#8b5cf6" opacity=".09"/><text x="700" y="80" fill="#f8fafc" font-family="Inter,Segoe UI,Arial,sans-serif" font-size="40" font-weight="800" text-anchor="middle"><tspan x="700" dy="0">Cryptographic troubleshooting</tspan></text><text x="700" y="138" fill="#93c5fd" font-family="Inter,Segoe UI,Arial,sans-serif" font-size="22" font-weight="500" text-anchor="middle"><tspan x="700" dy="0">Diagnose the algorithm, parameters, key, encoding, and context.</tspan></text><g><rect x="58" y="252" width="244" height="370" rx="24" fill="url(#card0)" stroke="#22d3ee" stroke-width="2.5"/><rect x="72" y="268" width="216" height="7" rx="4" fill="#22d3ee"/><text x="180" y="322" fill="#f8fafc" font-family="Inter,Segoe UI,Arial,sans-serif" font-size="21" font-weight="760" text-anchor="middle"><tspan x="180" dy="0">Algorithm?</tspan></text><text x="180" y="378.78" fill="#cbd5e1" font-family="Inter,Segoe UI,Arial,sans-serif" font-size="17" font-weight="500" text-anchor="middle"><tspan x="180" dy="0">Mismatched suite or</tspan><tspan x="180" dy="20.91">scheme</tspan></text><path d="M 304 437 H 315" stroke="#67e8f9" stroke-width="3" marker-end="url(#arrow)" opacity=".68"/></g><g><rect x="318" y="252" width="244" height="370" rx="24" fill="url(#card1)" stroke="#60a5fa" stroke-width="2.5"/><rect x="332" y="268" width="216" height="7" rx="4" fill="#60a5fa"/><text x="440" y="322" fill="#f8fafc" font-family="Inter,Segoe UI,Arial,sans-serif" font-size="21" font-weight="760" text-anchor="middle"><tspan x="440" dy="0">Key?</tspan></text><text x="440" y="378.78" fill="#cbd5e1" font-family="Inter,Segoe UI,Arial,sans-serif" font-size="17" font-weight="500" text-anchor="middle"><tspan x="440" dy="0">ID, version, or</tspan><tspan x="440" dy="20.91">permission</tspan></text><path d="M 564 437 H 575" stroke="#67e8f9" stroke-width="3" marker-end="url(#arrow)" opacity=".68"/></g><g><rect x="578" y="252" width="244" height="370" rx="24" fill="url(#card2)" stroke="#a78bfa" stroke-width="2.5"/><rect x="592" y="268" width="216" height="7" rx="4" fill="#a78bfa"/><text x="700" y="322" fill="#f8fafc" font-family="Inter,Segoe UI,Arial,sans-serif" font-size="21" font-weight="760" text-anchor="middle"><tspan x="700" dy="0">Nonce or IV?</tspan></text><text x="700" y="378.78" fill="#cbd5e1" font-family="Inter,Segoe UI,Arial,sans-serif" font-size="17" font-weight="500" text-anchor="middle"><tspan x="700" dy="0">Size, format, or reuse</tspan></text><path d="M 824 437 H 835" stroke="#67e8f9" stroke-width="3" marker-end="url(#arrow)" opacity=".68"/></g><g><rect x="838" y="252" width="244" height="370" rx="24" fill="url(#card0)" stroke="#34d399" stroke-width="2.5"/><rect x="852" y="268" width="216" height="7" rx="4" fill="#34d399"/><text x="960" y="322" fill="#f8fafc" font-family="Inter,Segoe UI,Arial,sans-serif" font-size="21" font-weight="760" text-anchor="middle"><tspan x="960" dy="0">Format?</tspan></text><text x="960" y="378.78" fill="#cbd5e1" font-family="Inter,Segoe UI,Arial,sans-serif" font-size="17" font-weight="500" text-anchor="middle"><tspan x="960" dy="0">Base64, DER, PEM, or</tspan><tspan x="960" dy="20.91">JSON</tspan></text><path d="M 1084 437 H 1095" stroke="#67e8f9" stroke-width="3" marker-end="url(#arrow)" opacity=".68"/></g><g><rect x="1098" y="252" width="244" height="370" rx="24" fill="url(#card1)" stroke="#818cf8" stroke-width="2.5"/><rect x="1112" y="268" width="216" height="7" rx="4" fill="#818cf8"/><text x="1220" y="322" fill="#f8fafc" font-family="Inter,Segoe UI,Arial,sans-serif" font-size="21" font-weight="760" text-anchor="middle"><tspan x="1220" dy="0">Context?</tspan></text><text x="1220" y="378.78" fill="#cbd5e1" font-family="Inter,Segoe UI,Arial,sans-serif" font-size="17" font-weight="500" text-anchor="middle"><tspan x="1220" dy="0">AAD, canonicalization,</tspan><tspan x="1220" dy="20.91">or charset</tspan></text></g><path d="M65 687 H1335" stroke="#334155"/><text x="65" y="730" fill="#64748b" font-family="Inter,Segoe UI,Arial,sans-serif" font-size="18">FAAC · 07.13</text></svg>