<svg xmlns="http://www.w3.org/2000/svg" width="1400" height="780" viewBox="0 0 1400 780" role="img" aria-labelledby="title desc"><title id="title">Handshake TLS 1.2</title><desc id="desc">Mais mensagens e mais opções históricas aumentam a superfície de configuração.</desc><defs><linearGradient id="bg" x1="0" y1="0" x2="1" y2="1"><stop stop-color="#020617"/><stop offset=".55" stop-color="#071426"/><stop offset="1" stop-color="#11104a"/></linearGradient><linearGradient id="card0" x1="0" y1="0" x2="1" y2="1"><stop stop-color="#0b2442"/><stop offset="1" stop-color="#101a3a"/></linearGradient><linearGradient id="card1" x1="0" y1="0" x2="1" y2="1"><stop stop-color="#111c44"/><stop offset="1" stop-color="#23154a"/></linearGradient><linearGradient id="card2" x1="0" y1="0" x2="1" y2="1"><stop stop-color="#12243d"/><stop offset="1" stop-color="#151b35"/></linearGradient><filter id="glow"><feGaussianBlur stdDeviation="6" result="b"/><feMerge><feMergeNode in="b"/><feMergeNode in="SourceGraphic"/></feMerge></filter><marker id="arrow" markerWidth="10" markerHeight="10" refX="8" refY="3" orient="auto"><path d="M0,0 L0,6 L9,3 z" fill="#67e8f9"/></marker><pattern id="grid" width="42" height="42" patternUnits="userSpaceOnUse"><path d="M42 0H0V42" fill="none" stroke="#1d4ed8" stroke-width="1" opacity=".12"/></pattern></defs><rect width="1400" height="780" rx="28" fill="url(#bg)"/><rect width="1400" height="780" rx="28" fill="url(#grid)"/><circle cx="165" cy="115" r="115" fill="#0ea5e9" opacity=".08"/><circle cx="1240" cy="650" r="170" fill="#7c3aed" opacity=".09"/><text x="700" y="80" fill="#f8fafc" font-family="Inter,Segoe UI,Arial,sans-serif" font-size="38" font-weight="800" text-anchor="middle"><tspan x="700" dy="0">Handshake TLS 1.2</tspan></text><text x="700" y="142" fill="#93c5fd" font-family="Inter,Segoe UI,Arial,sans-serif" font-size="22" font-weight="500" text-anchor="middle"><tspan x="700" dy="0">Mais mensagens e mais opções históricas aumentam a superfície de configuração.</tspan></text><g><rect x="62" y="252" width="201" height="345" rx="24" fill="url(#card0)" stroke="#38bdf8" stroke-width="2.5"/><rect x="78" y="269" width="169" height="8" rx="4" fill="#38bdf8" opacity=".9"/><text x="162.5" y="324" fill="#f8fafc" font-family="Inter,Segoe UI,Arial,sans-serif" font-size="20" font-weight="750" text-anchor="middle"><tspan x="162.5" dy="0">Cliente</tspan></text><text x="162.5" y="368" fill="#cbd5e1" font-family="Inter,Segoe UI,Arial,sans-serif" font-size="16" font-weight="500" text-anchor="middle"><tspan x="162.5" dy="0">ClientHello</tspan></text><text x="162.5" y="428" fill="#cbd5e1" font-family="Inter,Segoe UI,Arial,sans-serif" font-size="16" font-weight="500" text-anchor="middle"><tspan x="162.5" dy="0">Versões, random,</tspan><tspan x="162.5" dy="19.84">ciphers, SNI e ALPN</tspan></text><circle cx="162.5" cy="569" r="8" fill="#38bdf8" filter="url(#glow)"/><path d="M 267 424.5 H 273" stroke="#67e8f9" stroke-width="4" marker-end="url(#arrow)" opacity=".75"/></g><g><rect x="277" y="252" width="201" height="345" rx="24" fill="url(#card1)" stroke="#818cf8" stroke-width="2.5"/><rect x="293" y="269" width="169" height="8" rx="4" fill="#818cf8" opacity=".9"/><text x="377.5" y="324" fill="#f8fafc" font-family="Inter,Segoe UI,Arial,sans-serif" font-size="20" font-weight="750" text-anchor="middle"><tspan x="377.5" dy="0">Servidor</tspan></text><text x="377.5" y="368" fill="#cbd5e1" font-family="Inter,Segoe UI,Arial,sans-serif" font-size="16" font-weight="500" text-anchor="middle"><tspan x="377.5" dy="0">ServerHello +</tspan><tspan x="377.5" dy="19.84">certificado</tspan></text><text x="377.5" y="428" fill="#cbd5e1" font-family="Inter,Segoe UI,Arial,sans-serif" font-size="16" font-weight="500" text-anchor="middle"><tspan x="377.5" dy="0">Parâmetros</tspan><tspan x="377.5" dy="19.84">escolhidos</tspan></text><circle cx="377.5" cy="569" r="8" fill="#818cf8" filter="url(#glow)"/><path d="M 482 424.5 H 488" stroke="#67e8f9" stroke-width="4" marker-end="url(#arrow)" opacity=".75"/></g><g><rect x="492" y="252" width="201" height="345" rx="24" fill="url(#card2)" stroke="#c084fc" stroke-width="2.5"/><rect x="508" y="269" width="169" height="8" rx="4" fill="#c084fc" opacity=".9"/><text x="592.5" y="324" fill="#f8fafc" font-family="Inter,Segoe UI,Arial,sans-serif" font-size="20" font-weight="750" text-anchor="middle"><tspan x="592.5" dy="0">Servidor</tspan></text><text x="592.5" y="368" fill="#cbd5e1" font-family="Inter,Segoe UI,Arial,sans-serif" font-size="16" font-weight="500" text-anchor="middle"><tspan x="592.5" dy="0">ServerKeyExchange</tspan></text><text x="592.5" y="428" fill="#cbd5e1" font-family="Inter,Segoe UI,Arial,sans-serif" font-size="16" font-weight="500" text-anchor="middle"><tspan x="592.5" dy="0">CertificateRequest</tspan><tspan x="592.5" dy="19.84">quando aplicável</tspan></text><circle cx="592.5" cy="569" r="8" fill="#c084fc" filter="url(#glow)"/><path d="M 697 424.5 H 703" stroke="#67e8f9" stroke-width="4" marker-end="url(#arrow)" opacity=".75"/></g><g><rect x="707" y="252" width="201" height="345" rx="24" fill="url(#card0)" stroke="#22d3ee" stroke-width="2.5"/><rect x="723" y="269" width="169" height="8" rx="4" fill="#22d3ee" opacity=".9"/><text x="807.5" y="324" fill="#f8fafc" font-family="Inter,Segoe UI,Arial,sans-serif" font-size="20" font-weight="750" text-anchor="middle"><tspan x="807.5" dy="0">Cliente</tspan></text><text x="807.5" y="368" fill="#cbd5e1" font-family="Inter,Segoe UI,Arial,sans-serif" font-size="16" font-weight="500" text-anchor="middle"><tspan x="807.5" dy="0">ClientKeyExchange +</tspan><tspan x="807.5" dy="19.84">Finished</tspan></text><text x="807.5" y="428" fill="#cbd5e1" font-family="Inter,Segoe UI,Arial,sans-serif" font-size="16" font-weight="500" text-anchor="middle"><tspan x="807.5" dy="0">Segredo pre-master</tspan><tspan x="807.5" dy="19.84">ou ECDHE</tspan></text><circle cx="807.5" cy="569" r="8" fill="#22d3ee" filter="url(#glow)"/><path d="M 912 424.5 H 918" stroke="#67e8f9" stroke-width="4" marker-end="url(#arrow)" opacity=".75"/></g><g><rect x="922" y="252" width="201" height="345" rx="24" fill="url(#card1)" stroke="#60a5fa" stroke-width="2.5"/><rect x="938" y="269" width="169" height="8" rx="4" fill="#60a5fa" opacity=".9"/><text x="1022.5" y="324" fill="#f8fafc" font-family="Inter,Segoe UI,Arial,sans-serif" font-size="20" font-weight="750" text-anchor="middle"><tspan x="1022.5" dy="0">Servidor</tspan></text><text x="1022.5" y="368" fill="#cbd5e1" font-family="Inter,Segoe UI,Arial,sans-serif" font-size="16" font-weight="500" text-anchor="middle"><tspan x="1022.5" dy="0">ChangeCipherSpec +</tspan><tspan x="1022.5" dy="19.84">Finished</tspan></text><text x="1022.5" y="428" fill="#cbd5e1" font-family="Inter,Segoe UI,Arial,sans-serif" font-size="16" font-weight="500" text-anchor="middle"><tspan x="1022.5" dy="0">Canal protegido</tspan></text><circle cx="1022.5" cy="569" r="8" fill="#60a5fa" filter="url(#glow)"/><path d="M 1127 424.5 H 1133" stroke="#67e8f9" stroke-width="4" marker-end="url(#arrow)" opacity=".75"/></g><g><rect x="1137" y="252" width="201" height="345" rx="24" fill="url(#card2)" stroke="#a78bfa" stroke-width="2.5"/><rect x="1153" y="269" width="169" height="8" rx="4" fill="#a78bfa" opacity=".9"/><text x="1237.5" y="324" fill="#f8fafc" font-family="Inter,Segoe UI,Arial,sans-serif" font-size="20" font-weight="750" text-anchor="middle"><tspan x="1237.5" dy="0">Aplicação</tspan></text><text x="1237.5" y="368" fill="#cbd5e1" font-family="Inter,Segoe UI,Arial,sans-serif" font-size="16" font-weight="500" text-anchor="middle"><tspan x="1237.5" dy="0">HTTP protegido</tspan></text><text x="1237.5" y="428" fill="#cbd5e1" font-family="Inter,Segoe UI,Arial,sans-serif" font-size="16" font-weight="500" text-anchor="middle"><tspan x="1237.5" dy="0">TLS records</tspan></text><circle cx="1237.5" cy="569" r="8" fill="#a78bfa" filter="url(#glow)"/></g><path d="M70 688 H1330" stroke="#334155" stroke-width="1"/><text x="70" y="730" fill="#64748b" font-family="Inter,Segoe UI,Arial,sans-serif" font-size="18">FAAC · 03</text></svg>