<svg xmlns="http://www.w3.org/2000/svg" width="1400" height="780" viewBox="0 0 1400 780" role="img" aria-labelledby="title desc"><title id="title">SNI e ALPN no ClientHello</title><desc id="desc">O gateway seleciona certificado e protocolo antes de processar HTTP.</desc><defs><linearGradient id="bg" x1="0" y1="0" x2="1" y2="1"><stop stop-color="#020617"/><stop offset=".55" stop-color="#071426"/><stop offset="1" stop-color="#11104a"/></linearGradient><linearGradient id="card0" x1="0" y1="0" x2="1" y2="1"><stop stop-color="#0b2442"/><stop offset="1" stop-color="#101a3a"/></linearGradient><linearGradient id="card1" x1="0" y1="0" x2="1" y2="1"><stop stop-color="#111c44"/><stop offset="1" stop-color="#23154a"/></linearGradient><linearGradient id="card2" x1="0" y1="0" x2="1" y2="1"><stop stop-color="#12243d"/><stop offset="1" stop-color="#151b35"/></linearGradient><filter id="glow"><feGaussianBlur stdDeviation="6" result="b"/><feMerge><feMergeNode in="b"/><feMergeNode in="SourceGraphic"/></feMerge></filter><marker id="arrow" markerWidth="10" markerHeight="10" refX="8" refY="3" orient="auto"><path d="M0,0 L0,6 L9,3 z" fill="#67e8f9"/></marker><pattern id="grid" width="42" height="42" patternUnits="userSpaceOnUse"><path d="M42 0H0V42" fill="none" stroke="#1d4ed8" stroke-width="1" opacity=".12"/></pattern></defs><rect width="1400" height="780" rx="28" fill="url(#bg)"/><rect width="1400" height="780" rx="28" fill="url(#grid)"/><circle cx="165" cy="115" r="115" fill="#0ea5e9" opacity=".08"/><circle cx="1240" cy="650" r="170" fill="#7c3aed" opacity=".09"/><text x="700" y="80" fill="#f8fafc" font-family="Inter,Segoe UI,Arial,sans-serif" font-size="38" font-weight="800" text-anchor="middle"><tspan x="700" dy="0">SNI e ALPN no ClientHello</tspan></text><text x="700" y="142" fill="#93c5fd" font-family="Inter,Segoe UI,Arial,sans-serif" font-size="22" font-weight="500" text-anchor="middle"><tspan x="700" dy="0">O gateway seleciona certificado e protocolo antes de processar HTTP.</tspan></text><g><rect x="62" y="252" width="298" height="345" rx="24" fill="url(#card0)" stroke="#38bdf8" stroke-width="2.5"/><rect x="78" y="269" width="266" height="8" rx="4" fill="#38bdf8" opacity=".9"/><text x="211" y="324" fill="#f8fafc" font-family="Inter,Segoe UI,Arial,sans-serif" font-size="27" font-weight="750" text-anchor="middle"><tspan x="211" dy="0">Cliente</tspan></text><text x="211" y="376.4" fill="#cbd5e1" font-family="Inter,Segoe UI,Arial,sans-serif" font-size="20" font-weight="500" text-anchor="middle"><tspan x="211" dy="0">SNI = api.exemplo.com</tspan></text><text x="211" y="436.4" fill="#cbd5e1" font-family="Inter,Segoe UI,Arial,sans-serif" font-size="20" font-weight="500" text-anchor="middle"><tspan x="211" dy="0">ALPN = h2, http/1.1</tspan></text><circle cx="211" cy="569" r="8" fill="#38bdf8" filter="url(#glow)"/><path d="M 364 424.5 H 384" stroke="#67e8f9" stroke-width="4" marker-end="url(#arrow)" opacity=".75"/></g><g><rect x="388" y="252" width="298" height="345" rx="24" fill="url(#card1)" stroke="#818cf8" stroke-width="2.5"/><rect x="404" y="269" width="266" height="8" rx="4" fill="#818cf8" opacity=".9"/><text x="537" y="324" fill="#f8fafc" font-family="Inter,Segoe UI,Arial,sans-serif" font-size="27" font-weight="750" text-anchor="middle"><tspan x="537" dy="0">Gateway ou LB</tspan></text><text x="537" y="376.4" fill="#cbd5e1" font-family="Inter,Segoe UI,Arial,sans-serif" font-size="20" font-weight="500" text-anchor="middle"><tspan x="537" dy="0">Seleciona certificado</tspan></text><text x="537" y="436.4" fill="#cbd5e1" font-family="Inter,Segoe UI,Arial,sans-serif" font-size="20" font-weight="500" text-anchor="middle"><tspan x="537" dy="0">Escolhe protocolo</tspan></text><circle cx="537" cy="569" r="8" fill="#818cf8" filter="url(#glow)"/><path d="M 690 424.5 H 710" stroke="#67e8f9" stroke-width="4" marker-end="url(#arrow)" opacity=".75"/></g><g><rect x="714" y="252" width="298" height="345" rx="24" fill="url(#card2)" stroke="#c084fc" stroke-width="2.5"/><rect x="730" y="269" width="266" height="8" rx="4" fill="#c084fc" opacity=".9"/><text x="863" y="324" fill="#f8fafc" font-family="Inter,Segoe UI,Arial,sans-serif" font-size="27" font-weight="750" text-anchor="middle"><tspan x="863" dy="0">Certificado A</tspan></text><text x="863" y="376.4" fill="#cbd5e1" font-family="Inter,Segoe UI,Arial,sans-serif" font-size="20" font-weight="500" text-anchor="middle"><tspan x="863" dy="0">api.exemplo.com</tspan></text><text x="863" y="436.4" fill="#cbd5e1" font-family="Inter,Segoe UI,Arial,sans-serif" font-size="20" font-weight="500" text-anchor="middle"><tspan x="863" dy="0">Domínio solicitado</tspan></text><circle cx="863" cy="569" r="8" fill="#c084fc" filter="url(#glow)"/><path d="M 1016 424.5 H 1036" stroke="#67e8f9" stroke-width="4" marker-end="url(#arrow)" opacity=".75"/></g><g><rect x="1040" y="252" width="298" height="345" rx="24" fill="url(#card0)" stroke="#22d3ee" stroke-width="2.5"/><rect x="1056" y="269" width="266" height="8" rx="4" fill="#22d3ee" opacity=".9"/><text x="1189" y="324" fill="#f8fafc" font-family="Inter,Segoe UI,Arial,sans-serif" font-size="27" font-weight="750" text-anchor="middle"><tspan x="1189" dy="0">Certificado B</tspan></text><text x="1189" y="376.4" fill="#cbd5e1" font-family="Inter,Segoe UI,Arial,sans-serif" font-size="20" font-weight="500" text-anchor="middle"><tspan x="1189" dy="0">portal.exemplo.com</tspan></text><text x="1189" y="436.4" fill="#cbd5e1" font-family="Inter,Segoe UI,Arial,sans-serif" font-size="20" font-weight="500" text-anchor="middle"><tspan x="1189" dy="0">Outro domínio no mesmo</tspan><tspan x="1189" dy="24.8">IP</tspan></text><circle cx="1189" cy="569" r="8" fill="#22d3ee" filter="url(#glow)"/></g><path d="M70 688 H1330" stroke="#334155" stroke-width="1"/><text x="70" y="730" fill="#64748b" font-family="Inter,Segoe UI,Arial,sans-serif" font-size="18">FAAC · 06</text></svg>