<svg xmlns="http://www.w3.org/2000/svg" viewBox="0 0 1200 650" role="img" aria-label="Diagrama educativo sobre direccionamiento IP: Dual stack">
  <defs>
    <linearGradient id="bg" x1="0" y1="0" x2="1" y2="1"><stop stop-color="#071a34"/><stop offset="1" stop-color="#030817"/></linearGradient>
    <linearGradient id="cyan" x1="0" y1="0" x2="1" y2="1"><stop stop-color="#00ffd1"/><stop offset="1" stop-color="#009cff"/></linearGradient>
    <linearGradient id="violet" x1="0" y1="0" x2="1" y2="1"><stop stop-color="#9c5bff"/><stop offset="1" stop-color="#ff2db2"/></linearGradient>
    <filter id="glow"><feGaussianBlur stdDeviation="7" result="blur"/><feMerge><feMergeNode in="blur"/><feMergeNode in="SourceGraphic"/></feMerge></filter>
    <marker id="arrow" markerWidth="12" markerHeight="12" refX="10" refY="6" orient="auto"><path d="M0,0 L12,6 L0,12 z" fill="#55dfff"/></marker>
    <style>
      text{font-family:Inter,Segoe UI,Arial,sans-serif;fill:#dcecff}.title{font-size:30px;font-weight:800}.label{font-size:24px;font-weight:700}.value{font-size:25px;font-weight:800}.small{font-size:20px;font-weight:600;fill:#a9c3d8}.eyebrow{font-size:17px;font-weight:800;letter-spacing:1.5px;text-transform:uppercase;fill:#7eeaff}.mono{font-family:Cascadia Code,Consolas,monospace;font-size:22px;font-weight:700}.card rect{fill:#07172d;stroke:#2e5d88;stroke-width:2}.card.cyan rect{stroke:#00d0ff}.card.violet rect{stroke:#a55dff}.card.green rect{stroke:#00ffd1}.arrow{fill:none;stroke:#55dfff;stroke-width:4}.muted{fill:#6f8ba5}.bright{fill:#00ffd1}.violetText{fill:#c18cff}.pill{fill:#081b35;stroke:#3c78a8;stroke-width:2}.highlight{fill:#0b2840;stroke:#00ffd1;stroke-width:3;filter:url(#glow)}
    </style>
  </defs>
  <rect width="1200" height="650" rx="28" fill="url(#bg)"/>
  <path d="M0 520 C280 430 420 650 710 535 S1040 460 1200 535" fill="none" stroke="#5534a5" stroke-opacity=".25" stroke-width="3"/>
  <text x="56" y="58" class="title" text-anchor="start">Dual stack</text>
  <g class="card cyan"><rect x="55" y="220" width="250" height="135" rx="22"/><text x="79" y="258" class="eyebrow" text-anchor="start">Cliente dual stack</text><text x="180" y="308" class="value" text-anchor="middle">IPv4 + IPv6</text></g><g class="card violet"><rect x="475" y="110" width="250" height="115" rx="22"/><text x="499" y="148" class="eyebrow" text-anchor="start">DNS publica A y AAAA</text><text x="600" y="198" class="value" text-anchor="middle">A · AAAA</text></g><g class="card green"><rect x="895" y="220" width="250" height="135" rx="22"/><text x="919" y="258" class="eyebrow" text-anchor="start">API pública</text><text x="1020" y="308" class="value" text-anchor="middle">IPv4 + IPv6</text></g><g><path d="M 305 270 L 465 185" class="arrow" marker-end="url(#arrow)"/><text x="385" y="211.5" class="small" text-anchor="middle">DNS</text></g><g><path d="M 725 170 L 885 260" class="arrow" marker-end="url(#arrow)"/><text x="805" y="199" class="small" text-anchor="middle">Ruta IPv6</text></g><g><path d="M 305 330 L 885 330" class="arrow" marker-end="url(#arrow)"/><text x="595" y="314" class="small" text-anchor="middle">Ruta IPv4</text></g><rect x="205" y="455" width="790" height="95" rx="22" class="highlight"/><text x="600" y="512" class="label" text-anchor="middle">Happy Eyeballs selecciona la ruta saludable</text>
  </svg>