<svg xmlns="http://www.w3.org/2000/svg" viewBox="0 0 1200 650" role="img" aria-label="Diagrama educativo sobre direccionamiento IP: Destino: 10.20.30.25">
  <defs>
    <linearGradient id="bg" x1="0" y1="0" x2="1" y2="1"><stop stop-color="#071a34"/><stop offset="1" stop-color="#030817"/></linearGradient>
    <linearGradient id="cyan" x1="0" y1="0" x2="1" y2="1"><stop stop-color="#00ffd1"/><stop offset="1" stop-color="#009cff"/></linearGradient>
    <linearGradient id="violet" x1="0" y1="0" x2="1" y2="1"><stop stop-color="#9c5bff"/><stop offset="1" stop-color="#ff2db2"/></linearGradient>
    <filter id="glow"><feGaussianBlur stdDeviation="7" result="blur"/><feMerge><feMergeNode in="blur"/><feMergeNode in="SourceGraphic"/></feMerge></filter>
    <marker id="arrow" markerWidth="12" markerHeight="12" refX="10" refY="6" orient="auto"><path d="M0,0 L12,6 L0,12 z" fill="#55dfff"/></marker>
    <style>
      text{font-family:Inter,Segoe UI,Arial,sans-serif;fill:#dcecff}.title{font-size:30px;font-weight:800}.label{font-size:24px;font-weight:700}.value{font-size:25px;font-weight:800}.small{font-size:20px;font-weight:600;fill:#a9c3d8}.eyebrow{font-size:17px;font-weight:800;letter-spacing:1.5px;text-transform:uppercase;fill:#7eeaff}.mono{font-family:Cascadia Code,Consolas,monospace;font-size:22px;font-weight:700}.card rect{fill:#07172d;stroke:#2e5d88;stroke-width:2}.card.cyan rect{stroke:#00d0ff}.card.violet rect{stroke:#a55dff}.card.green rect{stroke:#00ffd1}.arrow{fill:none;stroke:#55dfff;stroke-width:4}.muted{fill:#6f8ba5}.bright{fill:#00ffd1}.violetText{fill:#c18cff}.pill{fill:#081b35;stroke:#3c78a8;stroke-width:2}.highlight{fill:#0b2840;stroke:#00ffd1;stroke-width:3;filter:url(#glow)}
    </style>
  </defs>
  <rect width="1200" height="650" rx="28" fill="url(#bg)"/>
  <path d="M0 520 C280 430 420 650 710 535 S1040 460 1200 535" fill="none" stroke="#5534a5" stroke-opacity=".25" stroke-width="3"/>
  <text x="56" y="58" class="title" text-anchor="start">Destino: 10.20.30.25</text>
  <text x="105" y="130" class="eyebrow" text-anchor="start">Rutas coincidentes</text><g><rect x="100" y="155" width="1000" height="64" rx="16" class="pill"/><text x="135" y="195" class="mono" text-anchor="start">0.0.0.0/0</text><text x="1035" y="195" class="small" text-anchor="end">Internet</text></g><g><rect x="100" y="243" width="1000" height="64" rx="16" class="pill"/><text x="135" y="283" class="mono" text-anchor="start">10.0.0.0/8</text><text x="1035" y="283" class="small" text-anchor="end">Core</text></g><g><rect x="100" y="331" width="1000" height="64" rx="16" class="pill"/><text x="135" y="371" class="mono" text-anchor="start">10.20.0.0/16</text><text x="1035" y="371" class="small" text-anchor="end">Region</text></g><g><rect x="100" y="419" width="1000" height="64" rx="16" class="highlight"/><text x="135" y="459" class="mono" text-anchor="start">10.20.30.0/24</text><text x="1035" y="459" class="label bright" text-anchor="end">ruta seleccionada</text></g><g><path d="M 600 515 L 600 585" class="arrow" marker-end="url(#arrow)"/></g><text x="600" y="620" class="mono" text-anchor="middle">/24 &gt; /16 &gt; /8 &gt; /0</text>
  </svg>