<svg xmlns="http://www.w3.org/2000/svg" viewBox="0 0 1200 620"><defs><linearGradient id="bg" x2="1" y2="1"><stop stop-color="#04152d"/><stop offset="1" stop-color="#180b35"/></linearGradient><marker id="a" markerWidth="10" markerHeight="10" refX="8" refY="3" orient="auto"><path d="M0 0L9 3L0 6Z" fill="#63ead8"/></marker></defs><rect width="1200" height="620" rx="34" fill="url(#bg)"/><g font-family="Inter,Segoe UI,sans-serif"><rect x="55" y="235" width="220" height="150" rx="20" fill="#0a2142" stroke="#63ead8" stroke-width="3"/><text x="165" y="282" text-anchor="middle" font-size="21" font-weight="700" fill="#f2f8ff">Consumers</text><text x="165" y="315" text-anchor="middle" font-size="15" font-weight="700" fill="#b9cbe0">apps, partners, and services</text><path d="M275 310L410 310" fill="none" stroke="#63ead8" stroke-width="4" marker-end="url(#a)"/><rect x="410" y="190" width="380" height="240" rx="20" fill="#0a2142" stroke="#4aa8ff" stroke-width="3"/><text x="600" y="237" text-anchor="middle" font-size="21" font-weight="700" fill="#f2f8ff">API gateway</text><text x="600" y="270" text-anchor="middle" font-size="15" font-weight="700" fill="#b9cbe0">TLS • routing • policies • telemetry</text><path d="M790 310L925 310" fill="none" stroke="#63ead8" stroke-width="4" marker-end="url(#a)"/><rect x="925" y="235" width="220" height="150" rx="20" fill="#0a2142" stroke="#ffab60" stroke-width="3"/><text x="1035" y="282" text-anchor="middle" font-size="21" font-weight="700" fill="#f2f8ff">Backends</text><text x="1035" y="315" text-anchor="middle" font-size="15" font-weight="700" fill="#b9cbe0">Azure, on-prem, and SaaS</text><rect x="200" y="475" width="300" height="100" rx="20" fill="#0a2142" stroke="#63ead8" stroke-width="3"/><text x="350" y="522" text-anchor="middle" font-size="21" font-weight="700" fill="#f2f8ff">Management plane</text><text x="350" y="555" text-anchor="middle" font-size="15" font-weight="700" fill="#b9cbe0">ARM • portal • CLI</text><rect x="700" y="475" width="300" height="100" rx="20" fill="#0a2142" stroke="#a47bff" stroke-width="3"/><text x="850" y="522" text-anchor="middle" font-size="21" font-weight="700" fill="#f2f8ff">Developer portal</text><text x="850" y="555" text-anchor="middle" font-size="15" font-weight="700" fill="#b9cbe0">discovery and onboarding</text><path d="M350 475L500 420" fill="none" stroke="#63ead8" stroke-width="4" marker-end="url(#a)"/><path d="M850 475L700 420" fill="none" stroke="#63ead8" stroke-width="4" marker-end="url(#a)"/></g></svg>