<svg xmlns="http://www.w3.org/2000/svg" viewBox="0 0 1200 620"><defs><linearGradient id="bg" x2="1" y2="1"><stop stop-color="#04152d"/><stop offset="1" stop-color="#180b35"/></linearGradient><marker id="a" markerWidth="10" markerHeight="10" refX="8" refY="3" orient="auto"><path d="M0 0L9 3L0 6Z" fill="#63ead8"/></marker></defs><rect width="1200" height="620" rx="34" fill="url(#bg)"/><g font-family="Inter,Segoe UI,sans-serif"><rect x="25" y="230" width="210" height="150" rx="20" fill="#0a2142" stroke="#63ead8" stroke-width="3"/><text x="130" y="277" text-anchor="middle" font-size="21" font-weight="700" fill="#f2f8ff">Management plane</text><text x="130" y="310" text-anchor="middle" font-size="15" font-weight="700" fill="#b9cbe0">configuration and automation</text><rect x="260" y="230" width="210" height="150" rx="20" fill="#0a2142" stroke="#4aa8ff" stroke-width="3"/><text x="365" y="277" text-anchor="middle" font-size="21" font-weight="700" fill="#f2f8ff">Managed gateway</text><text x="365" y="310" text-anchor="middle" font-size="15" font-weight="700" fill="#b9cbe0">policy execution</text><rect x="495" y="230" width="210" height="150" rx="20" fill="#0a2142" stroke="#63ead8" stroke-width="3"/><text x="600" y="277" text-anchor="middle" font-size="21" font-weight="700" fill="#f2f8ff">Developer portal</text><text x="600" y="310" text-anchor="middle" font-size="15" font-weight="700" fill="#b9cbe0">discovery and onboarding</text><rect x="730" y="230" width="210" height="150" rx="20" fill="#0a2142" stroke="#a47bff" stroke-width="3"/><text x="835" y="277" text-anchor="middle" font-size="21" font-weight="700" fill="#f2f8ff">Self-hosted gateway</text><text x="835" y="310" text-anchor="middle" font-size="15" font-weight="700" fill="#b9cbe0">hybrid and multicloud</text><rect x="965" y="230" width="210" height="150" rx="20" fill="#0a2142" stroke="#a47bff" stroke-width="3"/><text x="1070" y="277" text-anchor="middle" font-size="21" font-weight="700" fill="#f2f8ff">Observability</text><text x="1070" y="310" text-anchor="middle" font-size="15" font-weight="700" fill="#b9cbe0">Azure Monitor and Insights</text><path d="M235 305L260 305" fill="none" stroke="#63ead8" stroke-width="4" marker-end="url(#a)"/><path d="M470 305L495 305" fill="none" stroke="#63ead8" stroke-width="4" marker-end="url(#a)"/><path d="M705 305L730 305" fill="none" stroke="#63ead8" stroke-width="4" marker-end="url(#a)"/><path d="M940 305L965 305" fill="none" stroke="#63ead8" stroke-width="4" marker-end="url(#a)"/></g></svg>