<svg xmlns="http://www.w3.org/2000/svg" viewBox="0 0 1200 620"><defs><linearGradient id="b" x2="1" y2="1"><stop stop-color="#04152d"/><stop offset="1" stop-color="#180b35"/></linearGradient><marker id="a" markerWidth="10" markerHeight="10" refX="8" refY="3" orient="auto"><path d="M0 0L9 3L0 6Z" fill="#5ce8d4"/></marker></defs><rect width="1200" height="620" rx="34" fill="url(#b)"/><g font-family="Inter,Segoe UI,sans-serif"><rect x="70" y="220" width="270" height="170" rx="18" fill="#0a2142" stroke="#5ce8d4" stroke-width="3"/><text x="205" y="266" text-anchor="middle" font-size="21" font-weight="700" fill="#f3f8ff">Documento HTML</text><text x="205" y="299" text-anchor="middle" font-size="15" font-weight="700" fill="#b8cce2">origen protegido</text><path d="M340 305L465 305" stroke="#5ce8d4" stroke-width="4" marker-end="url(#a)"/><rect x="465" y="185" width="270" height="240" rx="18" fill="#0a2142" stroke="#4aa8ff" stroke-width="3"/><text x="600" y="231" text-anchor="middle" font-size="21" font-weight="700" fill="#f3f8ff">Política CSP</text><text x="600" y="264" text-anchor="middle" font-size="15" font-weight="700" fill="#b8cce2">directivas y fuentes</text><path d="M735 250L920 180" stroke="#5ce8d4" stroke-width="4" marker-end="url(#a)"/><path d="M735 305L920 305" stroke="#5ce8d4" stroke-width="4" marker-end="url(#a)"/><path d="M735 360L920 430" stroke="#5ce8d4" stroke-width="4" marker-end="url(#a)"/><rect x="920" y="125" width="210" height="105" rx="18" fill="#0a2142" stroke="#5ce8d4" stroke-width="3"/><text x="1025" y="171" text-anchor="middle" font-size="21" font-weight="700" fill="#f3f8ff">Script</text><text x="1025" y="204" text-anchor="middle" font-size="15" font-weight="700" fill="#b8cce2">permitir / bloquear</text><rect x="920" y="255" width="210" height="105" rx="18" fill="#0a2142" stroke="#ffca68" stroke-width="3"/><text x="1025" y="301" text-anchor="middle" font-size="21" font-weight="700" fill="#f3f8ff">Frame</text><text x="1025" y="334" text-anchor="middle" font-size="15" font-weight="700" fill="#b8cce2">permitir / bloquear</text><rect x="920" y="385" width="210" height="105" rx="18" fill="#0a2142" stroke="#a47bff" stroke-width="3"/><text x="1025" y="431" text-anchor="middle" font-size="21" font-weight="700" fill="#f3f8ff">Conexión</text><text x="1025" y="464" text-anchor="middle" font-size="15" font-weight="700" fill="#b8cce2">permitir / bloquear</text></g></svg>