<svg xmlns="http://www.w3.org/2000/svg" viewBox="0 0 1200 600" role="img"><defs><linearGradient id="bg" x2="1" y2="1"><stop stop-color="#07142b"/><stop offset="1" stop-color="#110b2c"/></linearGradient><filter id="glow"><feGaussianBlur stdDeviation="5" result="b"/><feMerge><feMergeNode in="b"/><feMergeNode in="SourceGraphic"/></feMerge></filter><marker id="arrow" markerWidth="10" markerHeight="10" refX="8" refY="3" orient="auto"><path d="M0 0L9 3L0 6Z" fill="#45e6d2"/></marker></defs><rect width="1200" height="600" rx="34" fill="url(#bg)"/><g font-family="Inter,Segoe UI,sans-serif"><rect x="35" y="105" width="250" height="120" rx="22" fill="#0a1b38" stroke="#45e6d2" stroke-width="2"/><rect x="51" y="121" width="8" height="88" rx="4" fill="#45e6d2"/><text x="160" y="148" text-anchor="middle" font-size="22" font-weight="700" fill="#edf7ff">Listener</text><text x="160" y="176" text-anchor="middle" font-size="22" font-weight="700" fill="#edf7ff">TLS / HTTP</text><rect x="325" y="105" width="250" height="120" rx="22" fill="#0a1b38" stroke="#45e6d2" stroke-width="2"/><rect x="341" y="121" width="8" height="88" rx="4" fill="#45e6d2"/><text x="450" y="148" text-anchor="middle" font-size="22" font-weight="700" fill="#edf7ff">Selección</text><text x="450" y="176" text-anchor="middle" font-size="22" font-weight="700" fill="#edf7ff">host / path</text><rect x="615" y="105" width="250" height="120" rx="22" fill="#0a1b38" stroke="#45e6d2" stroke-width="2"/><rect x="631" y="121" width="8" height="88" rx="4" fill="#45e6d2"/><text x="740" y="148" text-anchor="middle" font-size="22" font-weight="700" fill="#edf7ff">Seguridad</text><text x="740" y="176" text-anchor="middle" font-size="22" font-weight="700" fill="#edf7ff">authn / authz</text><rect x="905" y="105" width="250" height="120" rx="22" fill="#0a1b38" stroke="#45e6d2" stroke-width="2"/><rect x="921" y="121" width="8" height="88" rx="4" fill="#45e6d2"/><text x="1030" y="148" text-anchor="middle" font-size="22" font-weight="700" fill="#edf7ff">Tráfico</text><text x="1030" y="176" text-anchor="middle" font-size="22" font-weight="700" fill="#edf7ff">quota / rate</text><rect x="905" y="365" width="250" height="120" rx="22" fill="#0a1b38" stroke="#a779ff" stroke-width="2"/><rect x="921" y="381" width="8" height="88" rx="4" fill="#a779ff"/><text x="1030" y="408" text-anchor="middle" font-size="22" font-weight="700" fill="#edf7ff">Transformación</text><text x="1030" y="436" text-anchor="middle" font-size="22" font-weight="700" fill="#edf7ff">headers / body</text><rect x="615" y="365" width="250" height="120" rx="22" fill="#0a1b38" stroke="#a779ff" stroke-width="2"/><rect x="631" y="381" width="8" height="88" rx="4" fill="#a779ff"/><text x="740" y="408" text-anchor="middle" font-size="22" font-weight="700" fill="#edf7ff">Enrutamiento</text><text x="740" y="436" text-anchor="middle" font-size="22" font-weight="700" fill="#edf7ff">pool / URL</text><rect x="325" y="365" width="250" height="120" rx="22" fill="#0a1b38" stroke="#a779ff" stroke-width="2"/><rect x="341" y="381" width="8" height="88" rx="4" fill="#a779ff"/><text x="450" y="408" text-anchor="middle" font-size="22" font-weight="700" fill="#edf7ff">Upstream</text><text x="450" y="436" text-anchor="middle" font-size="22" font-weight="700" fill="#edf7ff">connect / retry</text><rect x="35" y="365" width="250" height="120" rx="22" fill="#0a1b38" stroke="#a779ff" stroke-width="2"/><rect x="51" y="381" width="8" height="88" rx="4" fill="#a779ff"/><text x="160" y="408" text-anchor="middle" font-size="22" font-weight="700" fill="#edf7ff">Respuesta</text><text x="160" y="436" text-anchor="middle" font-size="22" font-weight="700" fill="#edf7ff">policy / log</text><path d="M285 165 C302.5 165,302.5 165,320 165" fill="none" stroke="#45e6d2" stroke-width="4" marker-end="url(#arrow)" filter="url(#glow)"/><path d="M575 165 C592.5 165,592.5 165,610 165" fill="none" stroke="#45e6d2" stroke-width="4" marker-end="url(#arrow)" filter="url(#glow)"/><path d="M865 165 C882.5 165,882.5 165,900 165" fill="none" stroke="#45e6d2" stroke-width="4" marker-end="url(#arrow)" filter="url(#glow)"/><path d="M1115 225 C1115 225,1115 360,1115 360" fill="none" stroke="#45e6d2" stroke-width="4" marker-end="url(#arrow)" filter="url(#glow)"/><path d="M905 425 C887.5 425,887.5 425,870 425" fill="none" stroke="#45e6d2" stroke-width="4" marker-end="url(#arrow)" filter="url(#glow)"/><path d="M615 425 C597.5 425,597.5 425,580 425" fill="none" stroke="#45e6d2" stroke-width="4" marker-end="url(#arrow)" filter="url(#glow)"/><path d="M325 425 C307.5 425,307.5 425,290 425" fill="none" stroke="#45e6d2" stroke-width="4" marker-end="url(#arrow)" filter="url(#glow)"/></g></svg>