<svg xmlns="http://www.w3.org/2000/svg" viewBox="0 0 1200 620" role="img" aria-label="REST en una plataforma de APIs corporativas"><defs><linearGradient id="bg" x1="0%" y1="0%" x2="100%" y2="100%"><stop stop-color="#061126"/><stop offset="1" stop-color="#15163d"/></linearGradient><filter id="glow"><feGaussianBlur stdDeviation="3" result="b"/><feMerge><feMergeNode in="b"/><feMergeNode in="SourceGraphic"/></feMerge></filter><marker id="arrow" viewBox="0 0 10 10" refX="9" refY="5" markerWidth="8" markerHeight="8" orient="auto"><path d="M0 0L10 5L0 10Z" fill="#45ddff"/></marker></defs><rect width="1200" height="620" rx="34" fill="url(#bg)"/><path d="M42 102H1158" stroke="#274370" stroke-width="2"/><text x="60" y="69" fill="#f4f8ff" font-family="Inter,Arial,sans-serif" font-size="30" font-weight="700">REST en una plataforma de APIs corporativas</text><g><rect x="25" y="230" width="200" height="125" rx="19" fill="#0a1c3b" stroke="#21d4fd" stroke-width="3"/><rect x="34" y="239" width="182" height="107" rx="13" fill="#112653" opacity=".75"/><text x="125" y="284.5" text-anchor="middle" fill="#f1f7ff" font-family="Inter,Arial,sans-serif" font-size="19" font-weight="700">Consumidor</text><text x="125" y="317.5" text-anchor="middle" fill="#b9d8f4" font-family="Inter,Arial,sans-serif" font-size="13">método · URI · headers</text></g><path d="M225 292L255 292" stroke="#45ddff" stroke-width="5" fill="none" marker-end="url(#arrow)" filter="url(#glow)"/><g><rect x="255" y="230" width="200" height="125" rx="19" fill="#0a1c3b" stroke="#a855f7" stroke-width="3"/><rect x="264" y="239" width="182" height="107" rx="13" fill="#112653" opacity=".75"/><text x="355" y="284.5" text-anchor="middle" fill="#f1f7ff" font-family="Inter,Arial,sans-serif" font-size="19" font-weight="700">Borde</text><text x="355" y="317.5" text-anchor="middle" fill="#b9d8f4" font-family="Inter,Arial,sans-serif" font-size="15">WAF · TLS · límites</text></g><path d="M455 292L485 292" stroke="#45ddff" stroke-width="5" fill="none" marker-end="url(#arrow)" filter="url(#glow)"/><g><rect x="485" y="230" width="200" height="125" rx="19" fill="#0a1c3b" stroke="#21d4fd" stroke-width="3"/><rect x="494" y="239" width="182" height="107" rx="13" fill="#112653" opacity=".75"/><text x="585" y="284.5" text-anchor="middle" fill="#f1f7ff" font-family="Inter,Arial,sans-serif" font-size="19" font-weight="700">API Gateway</text><text x="585" y="317.5" text-anchor="middle" fill="#b9d8f4" font-family="Inter,Arial,sans-serif" font-size="13">auth · cuota · routing</text></g><path d="M685 292L730 292" stroke="#45ddff" stroke-width="5" fill="none" marker-end="url(#arrow)" filter="url(#glow)"/><g><rect x="730" y="230" width="200" height="125" rx="19" fill="#0a1c3b" stroke="#34d399" stroke-width="3"/><rect x="739" y="239" width="182" height="107" rx="13" fill="#112653" opacity=".75"/><text x="830" y="284.5" text-anchor="middle" fill="#f1f7ff" font-family="Inter,Arial,sans-serif" font-size="19" font-weight="700">Servicio REST</text><text x="830" y="317.5" text-anchor="middle" fill="#b9d8f4" font-family="Inter,Arial,sans-serif" font-size="16">dominio + contrato</text></g><path d="M930 292L955 292" stroke="#45ddff" stroke-width="5" fill="none" marker-end="url(#arrow)" filter="url(#glow)"/><g><rect x="955" y="230" width="200" height="125" rx="19" fill="#0a1c3b" stroke="#fbbf24" stroke-width="3"/><rect x="964" y="239" width="182" height="107" rx="13" fill="#112653" opacity=".75"/><text x="1055" y="284.5" text-anchor="middle" fill="#f1f7ff" font-family="Inter,Arial,sans-serif" font-size="19" font-weight="700">Dependencias</text><text x="1055" y="317.5" text-anchor="middle" fill="#b9d8f4" font-family="Inter,Arial,sans-serif" font-size="17">DB · colas · APIs</text></g><g><rect x="355" y="430" width="490" height="42" rx="21" fill="#102a42" stroke="#34d399" stroke-width="2"/><text x="600" y="457" text-anchor="middle" fill="#eafff8" font-family="Inter,Arial,sans-serif" font-size="17" font-weight="600">Correlación de extremo a extremo</text></g><text x="600" y="515" text-anchor="middle" fill="#cfe8ff" font-family="Inter,Arial,sans-serif" font-size="18">request ID · trace context · status · latencia · origen del error</text></svg>