<svg xmlns="http://www.w3.org/2000/svg" viewBox="0 0 1200 620" role="img" aria-label="Lectura condicional y control de concurrencia"><defs><linearGradient id="bg" x1="0%" y1="0%" x2="100%" y2="100%"><stop stop-color="#061126"/><stop offset="1" stop-color="#15163d"/></linearGradient><filter id="glow"><feGaussianBlur stdDeviation="3" result="b"/><feMerge><feMergeNode in="b"/><feMergeNode in="SourceGraphic"/></feMerge></filter><marker id="arrow" viewBox="0 0 10 10" refX="9" refY="5" markerWidth="8" markerHeight="8" orient="auto"><path d="M0 0L10 5L0 10Z" fill="#45ddff"/></marker></defs><rect width="1200" height="620" rx="34" fill="url(#bg)"/><path d="M42 102H1158" stroke="#274370" stroke-width="2"/><text x="60" y="69" fill="#f4f8ff" font-family="Inter,Arial,sans-serif" font-size="30" font-weight="700">Lectura condicional y control de concurrencia</text><g><rect x="35" y="170" width="300" height="115" rx="19" fill="#0a1c3b" stroke="#21d4fd" stroke-width="3"/><rect x="44" y="179" width="282" height="97" rx="13" fill="#112653" opacity=".75"/><text x="185" y="219.5" text-anchor="middle" fill="#f1f7ff" font-family="Inter,Arial,sans-serif" font-size="22" font-weight="700">1. GET /cuentas/123</text><text x="185" y="252.5" text-anchor="middle" fill="#b9d8f4" font-family="Inter,Arial,sans-serif" font-size="17">Respuesta: ETag "v7"</text></g><g><rect x="450" y="170" width="300" height="115" rx="19" fill="#0a1c3b" stroke="#a855f7" stroke-width="3"/><rect x="459" y="179" width="282" height="97" rx="13" fill="#112653" opacity=".75"/><text x="600" y="219.5" text-anchor="middle" fill="#f1f7ff" font-family="Inter,Arial,sans-serif" font-size="22" font-weight="700">2. Cambio local</text><text x="600" y="252.5" text-anchor="middle" fill="#b9d8f4" font-family="Inter,Arial,sans-serif" font-size="13">el cliente edita la representación</text></g><g><rect x="865" y="170" width="300" height="115" rx="19" fill="#0a1c3b" stroke="#21d4fd" stroke-width="3"/><rect x="874" y="179" width="282" height="97" rx="13" fill="#112653" opacity=".75"/><text x="1015" y="219.5" text-anchor="middle" fill="#f1f7ff" font-family="Inter,Arial,sans-serif" font-size="22" font-weight="700">3. PUT + If-Match</text><text x="1015" y="252.5" text-anchor="middle" fill="#b9d8f4" font-family="Inter,Arial,sans-serif" font-size="17">If-Match: "v7"</text></g><path d="M335 227L450 227" stroke="#45ddff" stroke-width="5" fill="none" marker-end="url(#arrow)" filter="url(#glow)"/><path d="M750 227L865 227" stroke="#45ddff" stroke-width="5" fill="none" marker-end="url(#arrow)" filter="url(#glow)"/><path d="M1015 285V355H380" stroke="#45ddff" stroke-width="5" fill="none"/><g><rect x="210" y="405" width="340" height="105" rx="19" fill="#0a1c3b" stroke="#34d399" stroke-width="3"/><rect x="219" y="414" width="322" height="87" rx="13" fill="#112653" opacity=".75"/><text x="380" y="449.5" text-anchor="middle" fill="#f1f7ff" font-family="Inter,Arial,sans-serif" font-size="22" font-weight="700">Éxito</text><text x="380" y="482.5" text-anchor="middle" fill="#b9d8f4" font-family="Inter,Arial,sans-serif" font-size="17">204/200 + nuevo ETag</text></g><g><rect x="650" y="405" width="340" height="105" rx="19" fill="#0a1c3b" stroke="#f87171" stroke-width="3"/><rect x="659" y="414" width="322" height="87" rx="13" fill="#112653" opacity=".75"/><text x="820" y="449.5" text-anchor="middle" fill="#f1f7ff" font-family="Inter,Arial,sans-serif" font-size="22" font-weight="700">Conflicto</text><text x="820" y="482.5" text-anchor="middle" fill="#b9d8f4" font-family="Inter,Arial,sans-serif" font-size="17">412 Precondition Failed</text></g><path d="M380 355L380 405" stroke="#45ddff" stroke-width="5" fill="none" marker-end="url(#arrow)" filter="url(#glow)"/><path d="M820 355L820 405" stroke="#45ddff" stroke-width="5" fill="none" marker-end="url(#arrow)" filter="url(#glow)"/></svg>