<svg xmlns="http://www.w3.org/2000/svg" viewBox="0 0 1200 650" role="img" aria-label="Diagrama educacional sobre endereçamento IP: 192.168.10.77/26">
  <defs>
    <linearGradient id="bg" x1="0" y1="0" x2="1" y2="1"><stop stop-color="#071a34"/><stop offset="1" stop-color="#030817"/></linearGradient>
    <linearGradient id="cyan" x1="0" y1="0" x2="1" y2="1"><stop stop-color="#00ffd1"/><stop offset="1" stop-color="#009cff"/></linearGradient>
    <linearGradient id="violet" x1="0" y1="0" x2="1" y2="1"><stop stop-color="#9c5bff"/><stop offset="1" stop-color="#ff2db2"/></linearGradient>
    <filter id="glow"><feGaussianBlur stdDeviation="7" result="blur"/><feMerge><feMergeNode in="blur"/><feMergeNode in="SourceGraphic"/></feMerge></filter>
    <marker id="arrow" markerWidth="12" markerHeight="12" refX="10" refY="6" orient="auto"><path d="M0,0 L12,6 L0,12 z" fill="#55dfff"/></marker>
    <style>
      text{font-family:Inter,Segoe UI,Arial,sans-serif;fill:#dcecff}.title{font-size:30px;font-weight:800}.label{font-size:24px;font-weight:700}.value{font-size:25px;font-weight:800}.small{font-size:20px;font-weight:600;fill:#a9c3d8}.eyebrow{font-size:17px;font-weight:800;letter-spacing:1.5px;text-transform:uppercase;fill:#7eeaff}.mono{font-family:Cascadia Code,Consolas,monospace;font-size:22px;font-weight:700}.card rect{fill:#07172d;stroke:#2e5d88;stroke-width:2}.card.cyan rect{stroke:#00d0ff}.card.violet rect{stroke:#a55dff}.card.green rect{stroke:#00ffd1}.arrow{fill:none;stroke:#55dfff;stroke-width:4}.muted{fill:#6f8ba5}.bright{fill:#00ffd1}.violetText{fill:#c18cff}.pill{fill:#081b35;stroke:#3c78a8;stroke-width:2}.highlight{fill:#0b2840;stroke:#00ffd1;stroke-width:3;filter:url(#glow)}
    </style>
  </defs>
  <rect width="1200" height="650" rx="28" fill="url(#bg)"/>
  <path d="M0 520 C280 430 420 650 710 535 S1040 460 1200 535" fill="none" stroke="#5534a5" stroke-opacity=".25" stroke-width="3"/>
  <text x="56" y="58" class="title" text-anchor="start">192.168.10.77/26</text>
  <g class="card cyan"><rect x="65" y="130" width="320" height="120" rx="22"/><text x="89" y="168" class="eyebrow" text-anchor="start">Endereço</text><text x="225" y="218" class="value" text-anchor="middle">192.168.10.77</text></g><g class="card violet"><rect x="440" y="130" width="320" height="120" rx="22"/><text x="464" y="168" class="eyebrow" text-anchor="start">Máscara</text><text x="600" y="218" class="value" text-anchor="middle">255.255.255.192</text></g><g class="card green"><rect x="815" y="130" width="320" height="120" rx="22"/><text x="839" y="168" class="eyebrow" text-anchor="start">Tamanho do bloco</text><text x="975" y="218" class="value" text-anchor="middle">64</text></g><g class="card green"><rect x="65" y="335" width="320" height="120" rx="22"/><text x="89" y="373" class="eyebrow" text-anchor="start">Rede</text><text x="225" y="423" class="value" text-anchor="middle">192.168.10.64</text></g><g class="card violet"><rect x="440" y="335" width="320" height="120" rx="22"/><text x="464" y="373" class="eyebrow" text-anchor="start">Broadcast</text><text x="600" y="423" class="value" text-anchor="middle">192.168.10.127</text></g><g class="card cyan"><rect x="815" y="335" width="320" height="120" rx="22"/><text x="839" y="373" class="eyebrow" text-anchor="start">Faixa de hosts</text><text x="975" y="423" class="value" text-anchor="middle">192.168.10.65 – 126</text></g><g><path d="M 385 190 L 430 190" class="arrow" marker-end="url(#arrow)"/></g><g><path d="M 760 190 L 805 190" class="arrow" marker-end="url(#arrow)"/></g><text x="600" y="555" class="mono" text-anchor="middle">01001101 AND 11000000 = 01000000</text>
  </svg>