<svg id="Layer_1" version="1.1" viewBox="0 0 74 74" xml:space="preserve" xmlns="http://www.w3.org/2000/svg"><style>.st0{fill:#2b3033}</style><path class="st0" d="M63 3H11c-4.4 0-8 3.6-8 7.9v32.7c0 4.4 3.6 8 8 8h21.4c.4.7.9 1.4 1.4 2l-3.6 12.7c-.2.7 0 1.5.6 2s1.4.7 2.1.4l3-1.1 2 2.6c.4.5 1 .8 1.6.8h.4c.7-.1 1.3-.7 1.5-1.4l1.8-6.2 1.8 6.2c.2.7.8 1.3 1.5 1.4h.4c.6 0 1.2-.3 1.6-.8l2-2.6 3 1.1c.7.3 1.5.1 2.1-.4.6-.5.8-1.3.6-2l-3.6-12.7c.5-.6 1-1.3 1.4-2h9c4.4 0 8-3.6 8-8V10.9C71 6.6 67.4 3 63 3zM51.3 45.6c0 4.6-3.7 8.3-8.3 8.3s-8.3-3.7-8.3-8.3 3.7-8.3 8.3-8.3 8.3 3.7 8.3 8.3zm-12.8 19L38 64c-.5-.7-1.5-1-2.3-.7l-.7.3 2.1-7.3c1.1.6 2.2 1 3.4 1.3l-2 7zm11.8-1.2c-.8-.3-1.8 0-2.3.7l-.5.6-2-7c1.2-.3 2.3-.7 3.4-1.3l2.1 7.3-.7-.3zM67 43.7c0 2.2-1.8 4-4 4h-7.9c.1-.7.2-1.4.2-2.1 0-1.7-.3-3.3-.9-4.7h4.5c1.1 0 2-.9 2-2s-.9-2-2-2h-7.2c-2.2-2.2-5.3-3.6-8.7-3.6s-6.5 1.4-8.7 3.6H15.1c-1.1 0-2 .9-2 2s.9 2 2 2h16.5c-.6 1.5-.9 3-.9 4.7 0 .7.1 1.4.2 2.1H11c-2.2 0-4-1.8-4-4V10.9C7 8.8 8.8 7 11 7h52c2.2 0 4 1.8 4 3.9v32.8z"/><path class="st0" d="M58.9 13.8H15.1c-1.1 0-2 .9-2 2s.9 2 2 2h43.8c1.1 0 2-.9 2-2s-.9-2-2-2zm0 11.5H15.1c-1.1 0-2 .9-2 2s.9 2 2 2h43.8c1.1 0 2-.9 2-2s-.9-2-2-2z"/></svg>