<svg xmlns="http://www.w3.org/2000/svg" viewBox="0 0 509 549" role="img" aria-label="utily.tools logo"><path fill="#ffffff" fill-rule="evenodd" d="M0.1 518.8L0.1 488.5L2 495.7C7.6 517 23.2 532 43.3 535.4C61.3 538.5 80.6 532.5 94 519.8C100.9 513.3 103.9 509 113.5 491.5C118.3 482.7 125.9 469 130.3 461C134.7 453 139.4 444.5 140.8 442C142.1 439.5 144 436.1 145 434.5C146 432.9 148.2 428.8 150 425.5C154.7 417 156.5 413.8 163 402.5C166.1 397 170.6 388.9 173 384.5C185.3 361.5 205.4 325.1 214.5 309.5C217.7 304 224.3 292.2 229.1 283.4C233.9 274.5 239.3 265.1 240.9 262.4C242.6 259.8 244 257.3 244 256.9C244 256.5 238.9 253.3 232.8 249.8C226.6 246.2 216.3 240.2 210 236.5C197.4 229.1 167.9 212.5 161.3 209.2L157.2 207L145.2 226.8C138.7 237.6 131.7 249.2 129.8 252.5C127.9 255.8 115.7 275.8 102.8 297C72.5 346.6 59 368.7 50.5 383C46.7 389.3 39.5 401.2 34.5 409.5C20.3 432.7 7.8 454 5.3 459.3C4 462 2.3 467 1.6 470.3C0.4 475.6 0.2 440.8 0.1 238.2L0 0L102.2 0.1C163.2 0.2 202.1 0.6 198.5 1.1C154.4 7.4 115.2 25.9 74.5 59.6C60.6 71 14.4 116.7 11 122.2C8.5 126.4 8.5 129.6 11 131C12.7 131.9 14.2 131.4 19.4 128.5C36.6 118.9 121 81.2 127.3 80.4C133.1 79.6 141.5 82.1 146.3 86.1C154.4 92.8 157.6 105.2 153.6 114.5C152.1 118.1 139.6 139.1 131.4 151.7L128.1 156.9L133.3 160.1C141.5 165.2 165.5 179.2 178 186.2C192.2 194.2 249.4 226.9 264.9 235.9C271.2 239.5 276.6 242.5 276.8 242.5C277.6 242.5 287 226.8 294.6 212.8C307.2 189.6 318.1 172.7 321.6 170.7C322.4 170.2 322.7 169.3 322.4 168.7C322 168 322 167.8 322.5 168.2C322.9 168.6 324.9 168.1 326.9 167.1C331.1 165 339.6 163 344.6 163C348.7 163 359.8 166.6 362.1 168.6C363.6 170 364.3 169.3 368.9 161.3C371.8 156.5 377.3 147.3 381.1 141C384.9 134.7 390.8 124.3 394.2 118C399.8 107.6 400.1 106.5 398.5 105.5C383.6 96.8 377.2 89.1 375.2 77.7C374.5 73.9 374.1 73.6 356.5 63.3C337.1 52 274.4 16.2 256.5 6.1L245.5 0L377.2 0L509 0L508.9 153.2C508.8 237.5 508.4 304.5 508 302C501.6 264.3 475.3 232 438.9 217C431.6 213.9 420.3 210.8 412.2 209.5L408 208.8L408 236.2L408 263.7L410.6 266.1C416.3 271.4 416.5 272.4 416.8 300.4C417 314.7 416.9 327.9 416.5 329.8C416.2 331.7 414.2 335 411.9 337.5L408 341.7L408 365.6C408 391.8 407.8 392.9 402.1 396.7C397.9 399.6 393.1 399.6 389.6 396.9C384.3 392.7 384 391.1 384 364.8L384 340.5L381.3 338C376.3 333.2 376 331.2 376 302C376 272.7 376.4 270.2 381.4 266.3L384 264.2L384 236.5L384 208.7L378.8 209.4C341.1 214.2 307.1 240.4 291.5 276.6C285.3 291 283.1 304.1 283 326.2L283 337.9L308.9 338.2C338.1 338.5 338.5 338.6 342.4 346.4C344.9 351.5 343.4 356.8 338.5 360.6L335 363.3L309.2 363.4L283.5 363.5L283.5 405.5C283.5 450 283.8 454.1 288.5 468.3C296 491.2 310.6 512.2 328.9 526.1C343.1 536.8 366.2 546.1 383.5 547.9C388.1 548.4 308 548.8 195.8 548.9L0 549L0.1 518.8ZM406 548C431.2 545.8 454.8 535 473.3 517.1C491.4 499.6 503.3 477.9 507.5 454.7C508.7 448.3 508.8 453.4 508.9 498.2L509 549L453.2 548.9C421.7 548.8 401.2 548.4 406 548ZM461.1 363.1C457 362.6 455.2 361.8 453.4 359.7C450 355.8 449.4 350.7 451.6 345.9C454.7 338.9 456.2 338.5 484.2 338.2L509 337.8L509 350.9L509 364L487.8 363.9C476.1 363.8 464.1 363.4 461.1 363.1ZM462.1 190.8C465.1 184.8 481.5 155.8 486 148.4C488.1 145 490.1 140.8 490.5 139.1C491.4 135 489.6 129.9 486.2 126.8C483.9 124.7 454.9 108 444.3 102.6C440 100.4 435.8 100.6 432.7 103C431.4 104.1 424.9 114.4 418.4 126C411.8 137.6 402.3 154.1 397.2 162.6C392.2 171.2 388 178.3 388 178.6C388 178.8 394.8 179 403 179C412.7 179 420.8 179.6 425.5 180.5C434 182.3 447.3 187.6 454 192C456.5 193.6 458.8 194.9 459.2 194.9C459.6 195 460.9 193.1 462.1 190.8ZM248.5 180.1C246.3 179.1 239.1 175.1 232.5 171.3C225.9 167.5 214.3 160.8 206.7 156.4C192 148 189 145.1 189 139.1C189 132.5 194.2 127 200.6 127C202.2 127 212.7 132.3 226.9 140.4C239.9 147.8 253 155.2 256.1 156.9C263.6 161.1 265.2 163.1 265.7 168.7C266.3 174.3 263.8 178.4 258.4 180.6C254.1 182.4 253.3 182.3 248.5 180.1ZM275 137.3C274.2 137 262.7 130.5 249.5 123C236.3 115.4 224 108.5 222.3 107.6C220.5 106.7 217.4 104.4 215.5 102.4C212.7 99.6 212 98.2 212 94.9C212 84.6 220.9 79.1 230.1 83.8C232 84.7 237.8 88 243 91.1C248.2 94.2 260.3 101.1 269.7 106.4C279.2 111.8 287.9 117.3 289 118.7C295 126.4 290.4 136.5 280.3 137.6C278.2 137.8 275.8 137.7 275 137.3Z"/></svg>