<svg xmlns="http://www.w3.org/2000/svg" viewBox="0 0 509 549" role="img" aria-label="utily.tools logo"><path fill="#ffffff" fill-rule="evenodd" d="M383.5 547.9C366.2 546.1 343.1 536.8 328.9 526.1C310.6 512.2 296 491.2 288.5 468.3C283.8 454.1 283.5 450 283.5 405.5L283.5 363.5L309.2 363.4L335 363.3L338.5 360.6C343.4 356.8 344.9 351.5 342.4 346.4C338.5 338.6 338.1 338.5 308.9 338.2L283 337.9L283 326.2C283.1 304.1 285.3 291 291.5 276.6C307.1 240.4 341.1 214.2 378.8 209.4L384 208.7L384 236.5L384 264.2L381.4 266.3C376.4 270.2 376 272.7 376 302C376 331.2 376.3 333.2 381.3 338L384 340.5L384 364.8C384 391.1 384.3 392.7 389.6 396.9C393.1 399.6 397.9 399.6 402.1 396.7C407.8 392.9 408 391.8 408 365.6L408 341.7L411.9 337.5C414.2 335 416.2 331.7 416.5 329.8C416.9 327.9 417 314.7 416.8 300.4C416.5 272.4 416.3 271.4 410.6 266.1L408 263.7L408 236.2L408 208.8L412.2 209.5C449.7 215.5 481.9 238.9 498.4 272.2C506 287.7 508.1 297.3 508.7 319.2L509.2 337.8L484.4 338.2C456.2 338.5 454.7 338.9 451.6 345.9C449.4 350.7 450 355.8 453.4 359.7C456.4 363.2 461.5 363.8 488.2 363.9L509 364L509 405.2C508.9 449.7 508.5 455.1 503.5 469.9C494.1 498.2 472.7 523.1 446.5 536.2C426.9 546 404.7 550.2 383.5 547.9ZM43.3 535.4C29.5 533.1 18.3 525.7 10.1 513.5C-1 496.9 -2.9 476 5.3 459.3C7.8 454 20.4 432.7 34.5 409.5C39.5 401.2 46.7 389.3 50.5 383C59 368.7 72.5 346.6 102.8 297C115.7 275.8 127.9 255.8 129.8 252.5C131.7 249.2 138.7 237.6 145.2 226.8L157.2 207L161.3 209.2C167.9 212.5 197.4 229.1 210 236.5C216.3 240.2 226.6 246.2 232.8 249.8C238.9 253.3 244 256.5 244 256.9C244 257.3 242.6 259.8 240.9 262.4C239.3 265.1 233.9 274.5 229.1 283.4C224.3 292.2 217.7 304 214.5 309.5C205.4 325.1 185.3 361.5 173 384.5C170.6 388.9 166.1 397 163 402.5C156.5 413.8 154.7 417 150 425.5C148.2 428.8 146 432.9 145 434.5C144 436.1 142.1 439.5 140.8 442C139.4 444.5 134.7 453 130.3 461C125.9 469 118.3 482.7 113.5 491.5C103.9 509 100.9 513.3 94 519.8C80.6 532.5 61.3 538.5 43.3 535.4ZM266 236.5C260.2 233.1 246.7 225.3 236 219.3C186.9 191.4 146 167.9 135.3 161.3L128.1 156.8L131.4 151.7C139.6 139.1 152.1 118.1 153.6 114.5C157.6 105.2 154.4 92.8 146.3 86.1C141.5 82.1 133.1 79.6 127.3 80.4C121 81.2 36.6 118.9 19.4 128.5C14.2 131.4 12.7 131.9 11 131C8.5 129.6 8.5 126.4 11 122.2C14.4 116.7 60.6 71 74.5 59.6C102.8 36.1 129 20.8 157.5 11C181.6 2.7 198.6 0 226.1 0L245.4 0L256.5 6.1C273.3 15.5 336.2 51.5 356.5 63.3C374.1 73.6 374.5 73.9 375.2 77.7C377.2 89.1 383.6 96.8 398.5 105.5C400.1 106.5 399.8 107.6 394.2 118C390.8 124.3 384.9 134.7 381.1 141C377.3 147.3 371.8 156.5 368.9 161.3C364.3 169.3 363.6 170 362.1 168.6C359.8 166.6 348.7 163 344.6 163C339.6 163 331.1 165 326.9 167.1C324.9 168.1 322.9 168.6 322.5 168.2C322 167.8 322 168 322.4 168.7C322.7 169.3 322.4 170.2 321.6 170.7C318.4 172.5 306.9 190.1 297 208.5C291 219.6 277.9 241.9 277.2 242.4C276.8 242.6 271.8 240 266 236.5ZM454 192C447.3 187.6 434 182.3 425.5 180.5C420.8 179.6 412.7 179 403 179C394.8 179 388 178.8 388 178.6C388 178.3 392.2 171.2 397.2 162.6C402.3 154.1 411.8 137.6 418.4 126C424.9 114.4 431.4 104.1 432.7 103C435.8 100.6 440 100.4 444.3 102.6C454.9 108 483.9 124.7 486.2 126.8C489.6 129.9 491.4 135 490.5 139.1C490.1 140.8 488.1 145 486 148.4C481.5 155.8 465.1 184.8 462.1 190.8C460.9 193.1 459.6 195 459.2 194.9C458.8 194.9 456.5 193.6 454 192ZM258.4 180.6C263.8 178.4 266.3 174.3 265.7 168.7C265.2 163.1 263.6 161.1 256.1 156.9C253 155.2 239.9 147.8 226.9 140.4C212.7 132.3 202.2 127 200.6 127C194.2 127 189 132.5 189 139.1C189 145.1 192 148 206.7 156.4C214.3 160.8 225.9 167.5 232.5 171.3C245.4 178.8 251.7 181.9 253.8 182C254.5 182 256.5 181.4 258.4 180.6ZM286.5 135.6C292.2 131.9 293.3 124.2 289 118.7C287.9 117.3 279.2 111.8 269.7 106.4C260.3 101.1 248.2 94.2 243 91.1C237.8 88 232 84.7 230.1 83.8C220.9 79.1 212 84.6 212 94.9C212 98.2 212.7 99.6 215.5 102.4C217.4 104.4 220.5 106.7 222.3 107.6C224 108.5 236.3 115.4 249.5 123C262.7 130.5 274.2 137 275 137.3C277.4 138.3 283.8 137.3 286.5 135.6Z"/></svg>