<svg xmlns="http://www.w3.org/2000/svg" viewBox="0 0 1200 620" role="img" aria-label="Workload identity without a static secret"><defs><linearGradient id="g" x1="0" x2="1"><stop stop-color="#bc78ff"/><stop offset=".5" stop-color="#27d8ff"/><stop offset="1" stop-color="#35f2c1"/></linearGradient><filter id="glow"><feGaussianBlur stdDeviation="5" result="b"/><feMerge><feMergeNode in="b"/><feMergeNode in="SourceGraphic"/></feMerge></filter><marker id="arrow" viewBox="0 0 10 10" refX="9" refY="5" markerWidth="7" markerHeight="7" orient="auto-start-reverse"><path d="M0 0L10 5L0 10Z" fill="context-stroke"/></marker></defs><rect width="1200" height="620" rx="28" fill="#070d22"/><path d="M0 95H1200M0 540H1200" stroke="#28416e" opacity=".35"/><text x="60" y="68" fill="#eff7ff" font-family="Inter,Arial,sans-serif" font-size="30" font-weight="700">Workload identity without a static secret</text><rect x="30" y="155" width="205" height="175" rx="19" fill="#0d1732" stroke="#bc78ff" stroke-width="2"/><circle cx="132" cy="192" r="12" fill="#bc78ff" filter="url(#glow)"/><text x="132" y="235" text-anchor="middle" fill="#bc78ff" font-family="Inter,Arial,sans-serif" font-size="19" font-weight="700">Workload</text><text x="132" y="275" text-anchor="middle" fill="#a9bbd1" font-family="Inter,Arial,sans-serif" font-size="16" font-weight="500"><tspan x="132" dy="0">process or pod</tspan></text><path d="M235 245L265 245" fill="none" stroke="#bc78ff" stroke-width="4" marker-end="url(#arrow)" filter="url(#glow)"/><rect x="265" y="155" width="205" height="175" rx="19" fill="#0d1732" stroke="#ffbd59" stroke-width="2"/><circle cx="367" cy="192" r="12" fill="#ffbd59" filter="url(#glow)"/><text x="367" y="235" text-anchor="middle" fill="#ffbd59" font-family="Inter,Arial,sans-serif" font-size="19" font-weight="700">Attestation</text><text x="367" y="275" text-anchor="middle" fill="#a9bbd1" font-family="Inter,Arial,sans-serif" font-size="16" font-weight="500"><tspan x="367" dy="0">environment and</tspan><tspan x="367" dy="20.8">attributes</tspan></text><path d="M470 245L500 245" fill="none" stroke="#ffbd59" stroke-width="4" marker-end="url(#arrow)" filter="url(#glow)"/><rect x="500" y="155" width="205" height="175" rx="19" fill="#0d1732" stroke="#27d8ff" stroke-width="2"/><circle cx="602" cy="192" r="12" fill="#27d8ff" filter="url(#glow)"/><text x="602" y="235" text-anchor="middle" fill="#27d8ff" font-family="Inter,Arial,sans-serif" font-size="19" font-weight="700">Issuer</text><text x="602" y="275" text-anchor="middle" fill="#a9bbd1" font-family="Inter,Arial,sans-serif" font-size="16" font-weight="500"><tspan x="602" dy="0">short-lived token</tspan><tspan x="602" dy="20.8">or SVID</tspan></text><path d="M705 245L735 245" fill="none" stroke="#27d8ff" stroke-width="4" marker-end="url(#arrow)" filter="url(#glow)"/><rect x="735" y="155" width="205" height="175" rx="19" fill="#0d1732" stroke="#35f2c1" stroke-width="2"/><circle cx="837" cy="192" r="12" fill="#35f2c1" filter="url(#glow)"/><text x="837" y="235" text-anchor="middle" fill="#35f2c1" font-family="Inter,Arial,sans-serif" font-size="19" font-weight="700">API Gateway</text><text x="837" y="275" text-anchor="middle" fill="#a9bbd1" font-family="Inter,Arial,sans-serif" font-size="16" font-weight="500"><tspan x="837" dy="0">validation and</tspan><tspan x="837" dy="20.8">policy</tspan></text><path d="M940 245L970 245" fill="none" stroke="#35f2c1" stroke-width="4" marker-end="url(#arrow)" filter="url(#glow)"/><rect x="970" y="155" width="205" height="175" rx="19" fill="#0d1732" stroke="#bc78ff" stroke-width="2"/><circle cx="1072" cy="192" r="12" fill="#bc78ff" filter="url(#glow)"/><text x="1072" y="235" text-anchor="middle" fill="#bc78ff" font-family="Inter,Arial,sans-serif" font-size="19" font-weight="700">Backend</text><text x="1072" y="275" text-anchor="middle" fill="#a9bbd1" font-family="Inter,Arial,sans-serif" font-size="16" font-weight="500"><tspan x="1072" dy="0">domain</tspan><tspan x="1072" dy="20.8">authorization</tspan></text><rect x="120" y="410" width="960" height="100" rx="19" fill="#0d1732" stroke="url(#g)" stroke-width="2"/><text x="600" y="454" text-anchor="middle" fill="#eff7ff" font-family="Inter,Arial,sans-serif" font-size="19" font-weight="600"><tspan x="600" dy="0">Short-lived credentials • minimum scope • automatic rotation • workload lifecycle</tspan></text></svg>