<svg xmlns="http://www.w3.org/2000/svg" viewBox="0 0 1400 780" role="img" aria-label="Resolución recursiva y consultas iterativas"><defs><linearGradient id="bg" x2="1" y2="1"><stop stop-color="#071a34"/><stop offset="1" stop-color="#030817"/></linearGradient><marker id="arrow" markerWidth="12" markerHeight="12" refX="10" refY="6" orient="auto"><path d="M0 0L12 6L0 12z" fill="#65e8ff"/></marker><style>text{font-family:Inter,Segoe UI,Arial,sans-serif;fill:#e5f4ff}.title{font-size:34px;font-weight:800}.cardTitle{font-size:23px;font-weight:800}.label{font-size:22px;font-weight:750}.small{font-size:17px;font-weight:600;fill:#b7d0e3}.card{fill:#081b35;stroke-width:2}.c0{stroke:#00d8ff}.c1{stroke:#9b6cff}.c2{stroke:#00ffd1}.c3{stroke:#ffb84d}.c4{stroke:#ff5cab}.arrow{fill:none;stroke:#65e8ff;stroke-width:4}.track{fill:none;stroke:#376e9d;stroke-width:4}</style></defs><rect width="1400" height="780" rx="30" fill="url(#bg)"/><text x="55" y="62" class="title" text-anchor="start">Resolución recursiva y consultas iterativas</text><g><rect x="55" y="250" width="240.4" height="190" rx="20" class="card c0"/><text x="175.2" y="292" class="cardTitle" text-anchor="middle"><tspan x="175.2" dy="0">Aplicación</tspan></text><text x="175.2" y="328" class="small" text-anchor="middle"><tspan x="175.2" dy="0">stub resolver</tspan></text></g><g><rect x="317.4" y="250" width="240.4" height="190" rx="20" class="card c1"/><text x="437.59999999999997" y="292" class="cardTitle" text-anchor="middle"><tspan x="437.59999999999997" dy="0">Recursivo</tspan></text><text x="437.59999999999997" y="328" class="small" text-anchor="middle"><tspan x="437.59999999999997" dy="0">caché e iteración</tspan></text></g><g><rect x="579.8" y="250" width="240.4" height="190" rx="20" class="card c2"/><text x="700" y="292" class="cardTitle" text-anchor="middle"><tspan x="700" dy="0">Raíz</tspan></text><text x="700" y="328" class="small" text-anchor="middle"><tspan x="700" dy="0">referencia al TLD</tspan></text></g><g><rect x="842.1999999999999" y="250" width="240.4" height="190" rx="20" class="card c3"/><text x="962.4" y="292" class="cardTitle" text-anchor="middle"><tspan x="962.4" dy="0">TLD</tspan></text><text x="962.4" y="328" class="small" text-anchor="middle"><tspan x="962.4" dy="0">referencia a la zona</tspan></text></g><g><rect x="1104.6" y="250" width="240.4" height="190" rx="20" class="card c4"/><text x="1224.8" y="292" class="cardTitle" text-anchor="middle"><tspan x="1224.8" dy="0">Autoritativo</tspan></text><text x="1224.8" y="328" class="small" text-anchor="middle"><tspan x="1224.8" dy="0">A = 198.51.100.25</tspan></text></g><path d="M295.4 345 L307.4 345" class="arrow" marker-end="url(#arrow)"/><path d="M557.8 345 L569.8 345" class="arrow" marker-end="url(#arrow)"/><path d="M820.2 345 L832.2 345" class="arrow" marker-end="url(#arrow)"/><path d="M1082.6 345 L1094.6 345" class="arrow" marker-end="url(#arrow)"/></svg>