<svg xmlns="http://www.w3.org/2000/svg" viewBox="0 0 1200 620"><defs><linearGradient id="b" x2="1" y2="1"><stop stop-color="#031426"/><stop offset="1" stop-color="#190b35"/></linearGradient><marker id="a" markerWidth="10" markerHeight="10" refX="8" refY="3" orient="auto"><path d="M0 0L9 3L0 6Z" fill="#5ce8d4"/></marker></defs><rect width="1200" height="620" rx="34" fill="url(#b)"/><g font-family="Inter,Segoe UI,sans-serif"><rect x="260" y="70" width="680" height="130" rx="20" fill="#0a2142" stroke="#a47bff" stroke-width="3"/><text x="600" y="118" text-anchor="middle" font-size="21" font-weight="700" fill="#f4f8ff">Control plane</text><text x="600" y="150" text-anchor="middle" font-size="14" font-weight="700" fill="#b8cce2">distributes decisions</text><path d="M600 200L220 340" stroke="#5ce8d4" stroke-width="4" marker-end="url(#a)"/><path d="M600 200L600 340" stroke="#5ce8d4" stroke-width="4" marker-end="url(#a)"/><path d="M600 200L980 340" stroke="#5ce8d4" stroke-width="4" marker-end="url(#a)"/><rect x="80" y="340" width="280" height="160" rx="20" fill="#0a2142" stroke="#5ce8d4" stroke-width="3"/><text x="220" y="388" text-anchor="middle" font-size="21" font-weight="700" fill="#f4f8ff">Workload A</text><text x="220" y="420" text-anchor="middle" font-size="14" font-weight="700" fill="#b8cce2">proxy</text><rect x="460" y="340" width="280" height="160" rx="20" fill="#0a2142" stroke="#5ce8d4" stroke-width="3"/><text x="600" y="388" text-anchor="middle" font-size="21" font-weight="700" fill="#f4f8ff">Workload B</text><text x="600" y="420" text-anchor="middle" font-size="14" font-weight="700" fill="#b8cce2">proxy</text><rect x="840" y="340" width="280" height="160" rx="20" fill="#0a2142" stroke="#5ce8d4" stroke-width="3"/><text x="980" y="388" text-anchor="middle" font-size="21" font-weight="700" fill="#f4f8ff">Workload C</text><text x="980" y="420" text-anchor="middle" font-size="14" font-weight="700" fill="#b8cce2">proxy</text><text x="600" y="560" text-anchor="middle" font-size="23" font-weight="700" fill="#f4f8ff">Data plane · enforces on traffic</text></g></svg>